<?xml version="1.0" encoding="UTF-8" standalone="no"?>
<svg width="524px" height="454px" viewBox="0 0 524 454"
 xmlns="http://www.w3.org/2000/svg" xmlns:xlink="http://www.w3.org/1999/xlink" version="1.2" baseProfile="tiny">
<title>谱号</title>
<desc>Generated by MuseScore 3.3.4</desc>
<polyline class="" fill="none" stroke="#000000" stroke-width="4.00" stroke-linejoin="bevel" points="63.373,317.857 63.373,419.857"/>
<polyline class="" fill="none" stroke="#000000" stroke-width="4.00" stroke-linejoin="bevel" points="495.608,317.857 495.608,419.857"/>
<polyline class="" fill="none" stroke="#000000" stroke-width="12.50" stroke-linejoin="bevel" points="513.858,317.857 513.858,419.857"/>
<polyline class="" fill="none" stroke="#000000" stroke-width="4.00" stroke-linejoin="bevel" points="63.373,55.3564 63.373,318.857"/>
<polyline class="" fill="none" stroke="#000000" stroke-width="4.00" stroke-linejoin="bevel" points="495.608,55.3564 495.608,157.356"/>
<polyline class="" fill="none" stroke="#000000" stroke-width="12.50" stroke-linejoin="bevel" points="513.858,55.3564 513.858,157.356"/>
<polyline class="" fill="none" stroke="#000000" stroke-width="2.00" stroke-linejoin="bevel" points="61.373,318.857 520.108,318.857"/>
<polyline class="" fill="none" stroke="#000000" stroke-width="2.00" stroke-linejoin="bevel" points="61.373,343.857 520.108,343.857"/>
<polyline class="" fill="none" stroke="#000000" stroke-width="2.00" stroke-linejoin="bevel" points="61.373,368.857 520.108,368.857"/>
<polyline class="" fill="none" stroke="#000000" stroke-width="2.00" stroke-linejoin="bevel" points="61.373,393.857 520.108,393.857"/>
<polyline class="" fill="none" stroke="#000000" stroke-width="2.00" stroke-linejoin="bevel" points="61.373,418.857 520.108,418.857"/>
<polyline class="" fill="none" stroke="#000000" stroke-width="2.00" stroke-linejoin="bevel" points="61.373,56.3564 520.108,56.3564"/>
<polyline class="" fill="none" stroke="#000000" stroke-width="2.00" stroke-linejoin="bevel" points="61.373,81.3564 520.108,81.3564"/>
<polyline class="" fill="none" stroke="#000000" stroke-width="2.00" stroke-linejoin="bevel" points="61.373,106.356 520.108,106.356"/>
<polyline class="" fill="none" stroke="#000000" stroke-width="2.00" stroke-linejoin="bevel" points="61.373,131.356 520.108,131.356"/>
<polyline class="" fill="none" stroke="#000000" stroke-width="2.00" stroke-linejoin="bevel" points="61.373,156.356 520.108,156.356"/>
<path class="" d="M143.775,334.97 C142.799,333.993 142.311,332.789 142.311,331.357 C142.311,329.924 142.799,328.72 143.775,327.743 C144.752,326.767 145.956,326.278 147.389,326.278 C148.821,326.278 150.025,326.767 151.002,327.743 C151.979,328.72 152.467,329.924 152.467,331.357 C152.467,332.789 151.979,333.993 151.002,334.97 C150.025,335.946 148.821,336.435 147.389,336.435 C145.956,336.435 144.752,335.946 143.775,334.97 M143.775,359.97 C142.799,358.993 142.311,357.789 142.311,356.357 C142.311,354.924 142.799,353.72 143.775,352.743 C144.752,351.767 145.956,351.278 147.389,351.278 C148.821,351.278 150.025,351.767 151.002,352.743 C151.979,353.72 152.467,354.924 152.467,356.357 C152.467,357.789 151.979,358.993 151.002,359.97 C150.025,360.946 148.821,361.435 147.389,361.435 C145.956,361.435 144.752,360.946 143.775,359.97 M109.889,317.587 C118.548,317.587 125.644,319.768 131.178,324.13 C136.516,328.687 139.186,334.872 139.186,342.685 C139.186,347.958 138.144,352.776 136.061,357.138 C134.107,361.695 131.536,365.732 128.346,369.247 C125.09,372.828 121.152,376.213 116.529,379.403 C112.037,382.528 107.415,385.328 102.662,387.802 C92.9616,392.685 87.623,395.126 86.6465,395.126 C85.8001,395.126 85.3769,394.703 85.3769,393.857 C85.3769,393.531 85.5072,393.238 85.7676,392.978 C89.0879,391.025 93.1569,388.518 97.9746,385.458 C101.1,383.44 104.745,380.64 108.912,377.06 C112.949,373.674 116.074,370.484 118.287,367.489 C120.566,364.56 122.649,360.914 124.537,356.552 C126.165,352.19 126.979,347.893 126.979,343.661 C126.979,337.346 125.416,331.845 122.291,327.157 C119.166,322.47 115.032,320.126 109.889,320.126 C106.243,320.126 103.118,321.298 100.514,323.642 C97.7142,326.051 95.696,329.078 94.459,332.724 C95.696,332.203 96.8353,331.942 97.8769,331.942 C100.611,331.942 102.955,332.919 104.908,334.872 C106.861,336.955 107.838,339.332 107.838,342.001 C107.838,344.801 106.894,347.307 105.006,349.521 C102.988,351.539 100.611,352.548 97.8769,352.548 C94.9473,352.548 92.3105,351.539 89.9668,349.521 C87.7532,347.307 86.6465,344.801 86.6465,342.001 C86.6465,335.295 88.9251,329.566 93.4824,324.814 C97.9746,319.996 103.443,317.587 109.889,317.587"/>
<path class="" d="M123.365,105.77 C123.365,105.77 123.561,105.77 123.951,105.77 C124.212,105.705 124.439,105.673 124.635,105.673 C131.926,105.673 137.916,108.244 142.604,113.388 C147.291,118.466 149.635,124.39 149.635,131.161 C149.635,139.56 146.152,146.395 139.186,151.669 C137.363,153.101 134.986,154.273 132.057,155.185 C132.382,159.416 132.545,162.834 132.545,165.438 C132.545,165.959 132.48,167.847 132.35,171.102 C132.089,177.157 130.006,182.398 126.1,186.825 C122.324,191.187 117.636,193.368 112.037,193.368 C106.764,193.368 102.271,191.513 98.5605,187.802 C94.8496,184.026 92.9941,179.468 92.9941,174.13 C92.9941,171.33 94.0683,168.954 96.2168,167.001 C98.4303,165.048 101.002,164.071 103.932,164.071 C106.536,164.071 108.717,165.08 110.475,167.099 C112.298,168.987 113.209,171.33 113.209,174.13 C113.209,176.669 112.298,178.85 110.475,180.673 C108.652,182.496 106.471,183.407 103.932,183.407 C102.89,183.407 101.881,183.212 100.904,182.821 C103.769,187.053 107.577,189.169 112.33,189.169 C116.822,189.169 120.501,187.346 123.365,183.7 C126.36,179.924 127.988,175.53 128.248,170.517 C128.378,167.392 128.443,165.601 128.443,165.145 C128.443,161.5 128.313,158.505 128.053,156.161 C124.798,156.682 121.9,156.942 119.361,156.942 C110.312,156.942 102.597,153.362 96.2168,146.2 C89.9668,138.974 86.8418,130.38 86.8418,120.419 C86.8418,118.336 87.0371,116.22 87.4277,114.071 C87.8183,112.313 88.3066,110.393 88.8926,108.31 C89.2181,107.138 90.097,105.25 91.5293,102.645 C92.0501,101.864 92.6361,100.888 93.2871,99.7158 C93.9381,98.5439 94.3939,97.7626 94.6543,97.372 C95.3053,96.0699 96.5749,94.3121 98.4629,92.0986 C98.9837,91.5126 99.5208,90.8616 100.074,90.1455 C100.628,89.4293 101.1,88.8434 101.49,88.3876 C101.881,87.9319 102.174,87.5738 102.369,87.3134 C102.564,87.053 104.029,85.3278 106.764,82.1376 C107.415,81.4866 108.049,80.7867 108.668,80.038 C109.286,79.2893 109.791,78.7034 110.182,78.2802 C110.572,77.8571 110.865,77.5478 111.061,77.3525 C108.717,69.6051 107.252,63.4202 106.666,58.7978 C106.21,55.0869 105.982,50.0087 105.982,43.5634 C105.982,37.8994 107.284,32.5934 109.889,27.6455 C112.428,22.5022 115.976,18.303 120.533,15.0478 C120.794,14.8525 121.119,14.7548 121.51,14.7548 C121.965,14.7548 122.291,14.8525 122.486,15.0478 C126.002,19.2796 129.029,24.7809 131.568,31.5517 C134.173,38.3225 135.475,44.4749 135.475,50.0087 C135.475,56.2587 133.977,62.1181 130.982,67.5869 C127.597,73.3811 123.235,79.3707 117.896,85.5556 C119.264,89.8525 121.087,96.5908 123.365,105.77 M131.666,151.181 C135.051,149.944 137.688,147.828 139.576,144.833 C141.659,141.968 142.701,138.746 142.701,135.165 C142.701,130.543 141.139,126.441 138.014,122.86 C134.824,119.149 130.755,117.066 125.807,116.61 C128.606,130.347 130.559,141.871 131.666,151.181 M93.873,128.622 C93.873,135.067 96.4772,140.731 101.686,145.614 C107.024,150.367 113.014,152.743 119.654,152.743 C122.389,152.743 125.058,152.548 127.662,152.157 C126.62,142.261 124.57,130.412 121.51,116.61 C117.799,117.001 114.837,118.303 112.623,120.517 C110.475,122.795 109.4,125.367 109.4,128.231 C109.4,133.179 112.037,137.183 117.311,140.243 C117.766,140.699 117.994,141.187 117.994,141.708 C117.994,142.229 117.766,142.717 117.311,143.173 C116.92,143.629 116.432,143.856 115.846,143.856 C115.781,143.856 115.488,143.791 114.967,143.661 C111.256,141.643 108.391,139.039 106.373,135.849 C104.485,132.463 103.541,129.045 103.541,125.595 C103.541,121.102 104.941,117.033 107.74,113.388 C110.67,109.742 114.479,107.398 119.166,106.356 C117.343,99.0647 115.846,93.3681 114.674,89.2666 C113.632,90.4384 112.379,91.8544 110.914,93.5146 C109.449,95.1748 108.587,96.1676 108.326,96.4931 C105.982,99.553 104.192,101.929 102.955,103.622 C100.742,106.682 99.1139,109.319 98.0723,111.532 C96.9655,114.006 95.9889,116.708 95.1426,119.638 C94.2962,122.437 93.873,125.432 93.873,128.622 M126.49,29.3056 C121.607,31.7145 117.766,35.165 114.967,39.6572 C112.102,44.2796 110.67,49.26 110.67,54.5986 C110.67,59.2861 111.842,65.6012 114.186,73.5439 C118.873,67.8798 122.389,62.639 124.732,57.8212 C127.206,52.7431 128.443,47.4371 128.443,41.9033 C128.443,37.7366 127.792,33.5374 126.49,29.3056"/>
<path class="" d="M323.885,387.509 C323.885,388.746 323.266,389.364 322.029,389.364 C320.792,389.364 320.174,388.746 320.174,387.509 L320.174,373.056 L311.873,376.181 L311.873,392.001 C311.873,393.238 311.255,393.857 310.018,393.857 C308.781,393.857 308.162,393.238 308.162,392.001 L308.162,377.45 L305.037,378.622 C304.972,378.687 304.712,378.72 304.256,378.72 C303.735,378.72 303.279,378.525 302.889,378.134 C302.498,377.743 302.303,377.288 302.303,376.767 L302.303,370.712 C302.303,369.735 302.726,369.117 303.572,368.857 L308.162,367.294 L308.162,351.278 L305.037,352.353 C304.972,352.418 304.712,352.45 304.256,352.45 C303.735,352.45 303.279,352.255 302.889,351.864 C302.498,351.474 302.303,351.018 302.303,350.497 L302.303,344.442 C302.303,343.531 302.726,342.945 303.572,342.685 L308.162,340.927 L308.162,325.204 C308.162,323.967 308.781,323.349 310.018,323.349 C311.255,323.349 311.873,323.967 311.873,325.204 L311.873,339.657 L320.174,336.532 L320.174,320.712 C320.174,319.475 320.792,318.857 322.029,318.857 C323.266,318.857 323.885,319.475 323.885,320.712 L323.885,335.263 L327.108,334.091 C327.173,334.026 327.401,333.993 327.791,333.993 C328.247,333.993 328.735,334.189 329.256,334.579 C329.647,334.97 329.842,335.426 329.842,335.946 L329.842,342.001 C329.842,342.913 329.386,343.531 328.475,343.857 L323.885,345.419 L323.885,361.435 L327.108,360.36 C327.173,360.295 327.401,360.263 327.791,360.263 C328.247,360.263 328.735,360.458 329.256,360.849 C329.647,361.239 329.842,361.695 329.842,362.216 L329.842,368.271 C329.842,369.117 329.386,369.703 328.475,370.028 L323.885,371.786 L323.885,387.509 M320.174,346.884 L311.873,349.814 L311.873,365.829 L320.174,362.9 L320.174,346.884 "/>
<path class="" d="M298.885,437.509 C298.885,438.746 298.266,439.364 297.029,439.364 C295.792,439.364 295.174,438.746 295.174,437.509 L295.174,423.056 L286.873,426.181 L286.873,442.001 C286.873,443.238 286.255,443.857 285.018,443.857 C283.781,443.857 283.162,443.238 283.162,442.001 L283.162,427.45 L280.037,428.622 C279.972,428.687 279.712,428.72 279.256,428.72 C278.735,428.72 278.279,428.525 277.889,428.134 C277.498,427.743 277.303,427.288 277.303,426.767 L277.303,420.712 C277.303,419.735 277.726,419.117 278.572,418.857 L283.162,417.294 L283.162,401.278 L280.037,402.353 C279.972,402.418 279.712,402.45 279.256,402.45 C278.735,402.45 278.279,402.255 277.889,401.864 C277.498,401.474 277.303,401.018 277.303,400.497 L277.303,394.443 C277.303,393.531 277.726,392.945 278.572,392.685 L283.162,390.927 L283.162,375.204 C283.162,373.967 283.781,373.349 285.018,373.349 C286.255,373.349 286.873,373.967 286.873,375.204 L286.873,389.657 L295.174,386.532 L295.174,370.712 C295.174,369.475 295.792,368.857 297.029,368.857 C298.266,368.857 298.885,369.475 298.885,370.712 L298.885,385.263 L302.108,384.091 C302.173,384.026 302.401,383.993 302.791,383.993 C303.247,383.993 303.735,384.189 304.256,384.579 C304.647,384.97 304.842,385.426 304.842,385.946 L304.842,392.001 C304.842,392.913 304.386,393.531 303.475,393.857 L298.885,395.419 L298.885,411.435 L302.108,410.36 C302.173,410.295 302.401,410.263 302.791,410.263 C303.247,410.263 303.735,410.458 304.256,410.849 C304.647,411.239 304.842,411.695 304.842,412.216 L304.842,418.271 C304.842,419.117 304.386,419.703 303.475,420.028 L298.885,421.786 L298.885,437.509 M295.174,396.884 L286.873,399.814 L286.873,415.829 L295.174,412.9 L295.174,396.884 "/>
<path class="" d="M273.885,400.009 C273.885,401.246 273.266,401.864 272.029,401.864 C270.792,401.864 270.174,401.246 270.174,400.009 L270.174,385.556 L261.873,388.681 L261.873,404.501 C261.873,405.738 261.255,406.357 260.018,406.357 C258.781,406.357 258.162,405.738 258.162,404.501 L258.162,389.95 L255.037,391.122 C254.972,391.187 254.712,391.22 254.256,391.22 C253.735,391.22 253.279,391.025 252.889,390.634 C252.498,390.243 252.303,389.788 252.303,389.267 L252.303,383.212 C252.303,382.235 252.726,381.617 253.572,381.357 L258.162,379.794 L258.162,363.778 L255.037,364.853 C254.972,364.918 254.712,364.95 254.256,364.95 C253.735,364.95 253.279,364.755 252.889,364.364 C252.498,363.974 252.303,363.518 252.303,362.997 L252.303,356.942 C252.303,356.031 252.726,355.445 253.572,355.185 L258.162,353.427 L258.162,337.704 C258.162,336.467 258.781,335.849 260.018,335.849 C261.255,335.849 261.873,336.467 261.873,337.704 L261.873,352.157 L270.174,349.032 L270.174,333.212 C270.174,331.975 270.792,331.357 272.029,331.357 C273.266,331.357 273.885,331.975 273.885,333.212 L273.885,347.763 L277.108,346.591 C277.173,346.526 277.4,346.493 277.791,346.493 C278.247,346.493 278.735,346.689 279.256,347.079 C279.647,347.47 279.842,347.926 279.842,348.446 L279.842,354.501 C279.842,355.413 279.386,356.031 278.475,356.357 L273.885,357.919 L273.885,373.935 L277.108,372.86 C277.173,372.795 277.4,372.763 277.791,372.763 C278.247,372.763 278.735,372.958 279.256,373.349 C279.647,373.739 279.842,374.195 279.842,374.716 L279.842,380.771 C279.842,381.617 279.386,382.203 278.475,382.528 L273.885,384.286 L273.885,400.009 M270.174,359.384 L261.873,362.314 L261.873,378.329 L270.174,375.4 L270.174,359.384 "/>
<path class="" d="M248.885,362.509 C248.885,363.746 248.266,364.364 247.029,364.364 C245.792,364.364 245.174,363.746 245.174,362.509 L245.174,348.056 L236.873,351.181 L236.873,367.001 C236.873,368.238 236.255,368.857 235.018,368.857 C233.781,368.857 233.162,368.238 233.162,367.001 L233.162,352.45 L230.037,353.622 C229.972,353.687 229.712,353.72 229.256,353.72 C228.735,353.72 228.279,353.524 227.889,353.134 C227.498,352.743 227.303,352.288 227.303,351.767 L227.303,345.712 C227.303,344.735 227.726,344.117 228.572,343.857 L233.162,342.294 L233.162,326.278 L230.037,327.353 C229.972,327.418 229.712,327.45 229.256,327.45 C228.735,327.45 228.279,327.255 227.889,326.864 C227.498,326.474 227.303,326.018 227.303,325.497 L227.303,319.442 C227.303,318.531 227.726,317.945 228.572,317.685 L233.162,315.927 L233.162,300.204 C233.162,298.967 233.781,298.349 235.018,298.349 C236.255,298.349 236.873,298.967 236.873,300.204 L236.873,314.657 L245.174,311.532 L245.174,295.712 C245.174,294.475 245.792,293.857 247.029,293.857 C248.266,293.857 248.885,294.475 248.885,295.712 L248.885,310.263 L252.108,309.091 C252.173,309.026 252.4,308.993 252.791,308.993 C253.247,308.993 253.735,309.189 254.256,309.579 C254.647,309.97 254.842,310.426 254.842,310.946 L254.842,317.001 C254.842,317.913 254.386,318.531 253.475,318.857 L248.885,320.419 L248.885,336.435 L252.108,335.36 C252.173,335.295 252.4,335.263 252.791,335.263 C253.247,335.263 253.735,335.458 254.256,335.849 C254.647,336.239 254.842,336.695 254.842,337.216 L254.842,343.271 C254.842,344.117 254.386,344.703 253.475,345.028 L248.885,346.786 L248.885,362.509 M245.174,321.884 L236.873,324.814 L236.873,340.829 L245.174,337.899 L245.174,321.884 "/>
<path class="" d="M223.885,412.509 C223.885,413.746 223.266,414.364 222.029,414.364 C220.792,414.364 220.174,413.746 220.174,412.509 L220.174,398.056 L211.873,401.181 L211.873,417.001 C211.873,418.238 211.255,418.857 210.018,418.857 C208.781,418.857 208.162,418.238 208.162,417.001 L208.162,402.45 L205.037,403.622 C204.972,403.687 204.712,403.72 204.256,403.72 C203.735,403.72 203.279,403.525 202.889,403.134 C202.498,402.743 202.303,402.288 202.303,401.767 L202.303,395.712 C202.303,394.735 202.726,394.117 203.572,393.857 L208.162,392.294 L208.162,376.278 L205.037,377.353 C204.972,377.418 204.712,377.45 204.256,377.45 C203.735,377.45 203.279,377.255 202.889,376.864 C202.498,376.474 202.303,376.018 202.303,375.497 L202.303,369.442 C202.303,368.531 202.726,367.945 203.572,367.685 L208.162,365.927 L208.162,350.204 C208.162,348.967 208.781,348.349 210.018,348.349 C211.255,348.349 211.873,348.967 211.873,350.204 L211.873,364.657 L220.174,361.532 L220.174,345.712 C220.174,344.475 220.792,343.857 222.029,343.857 C223.266,343.857 223.885,344.475 223.885,345.712 L223.885,360.263 L227.107,359.091 C227.173,359.026 227.4,358.993 227.791,358.993 C228.247,358.993 228.735,359.189 229.256,359.579 C229.647,359.97 229.842,360.426 229.842,360.946 L229.842,367.001 C229.842,367.913 229.386,368.531 228.475,368.857 L223.885,370.419 L223.885,386.435 L227.107,385.36 C227.173,385.295 227.4,385.263 227.791,385.263 C228.247,385.263 228.735,385.458 229.256,385.849 C229.647,386.239 229.842,386.695 229.842,387.216 L229.842,393.271 C229.842,394.117 229.386,394.703 228.475,395.028 L223.885,396.786 L223.885,412.509 M220.174,371.884 L211.873,374.814 L211.873,390.829 L220.174,387.9 L220.174,371.884 "/>
<path class="" d="M198.885,375.009 C198.885,376.246 198.266,376.864 197.029,376.864 C195.792,376.864 195.174,376.246 195.174,375.009 L195.174,360.556 L186.873,363.681 L186.873,379.501 C186.873,380.738 186.255,381.357 185.018,381.357 C183.781,381.357 183.162,380.738 183.162,379.501 L183.162,364.95 L180.037,366.122 C179.972,366.187 179.712,366.22 179.256,366.22 C178.735,366.22 178.279,366.025 177.889,365.634 C177.498,365.243 177.303,364.788 177.303,364.267 L177.303,358.212 C177.303,357.235 177.726,356.617 178.572,356.357 L183.162,354.794 L183.162,338.778 L180.037,339.853 C179.972,339.918 179.712,339.95 179.256,339.95 C178.735,339.95 178.279,339.755 177.889,339.364 C177.498,338.974 177.303,338.518 177.303,337.997 L177.303,331.942 C177.303,331.031 177.726,330.445 178.572,330.185 L183.162,328.427 L183.162,312.704 C183.162,311.467 183.781,310.849 185.018,310.849 C186.255,310.849 186.873,311.467 186.873,312.704 L186.873,327.157 L195.174,324.032 L195.174,308.212 C195.174,306.975 195.792,306.357 197.029,306.357 C198.266,306.357 198.885,306.975 198.885,308.212 L198.885,322.763 L202.107,321.591 C202.173,321.526 202.4,321.493 202.791,321.493 C203.247,321.493 203.735,321.689 204.256,322.079 C204.647,322.47 204.842,322.926 204.842,323.446 L204.842,329.501 C204.842,330.413 204.386,331.031 203.475,331.357 L198.885,332.919 L198.885,348.935 L202.107,347.86 C202.173,347.795 202.4,347.763 202.791,347.763 C203.247,347.763 203.735,347.958 204.256,348.349 C204.647,348.739 204.842,349.195 204.842,349.716 L204.842,355.771 C204.842,356.617 204.386,357.203 203.475,357.528 L198.885,359.286 L198.885,375.009 M195.174,334.384 L186.873,337.314 L186.873,353.329 L195.174,350.4 L195.174,334.384 "/>
<path class="" d="M323.885,100.009 C323.885,101.246 323.266,101.864 322.029,101.864 C320.792,101.864 320.174,101.246 320.174,100.009 L320.174,85.5556 L311.873,88.6806 L311.873,104.501 C311.873,105.738 311.255,106.356 310.018,106.356 C308.781,106.356 308.162,105.738 308.162,104.501 L308.162,89.9501 L305.037,91.122 C304.972,91.1871 304.712,91.2196 304.256,91.2196 C303.735,91.2196 303.279,91.0243 302.889,90.6337 C302.498,90.2431 302.303,89.7873 302.303,89.2665 L302.303,83.2118 C302.303,82.2353 302.726,81.6168 303.572,81.3564 L308.162,79.7939 L308.162,63.7782 L305.037,64.8525 C304.972,64.9176 304.712,64.9501 304.256,64.9501 C303.735,64.9501 303.279,64.7548 302.889,64.3642 C302.498,63.9735 302.303,63.5178 302.303,62.997 L302.303,56.9423 C302.303,56.0308 302.726,55.4449 303.572,55.1845 L308.162,53.4267 L308.162,37.704 C308.162,36.467 308.781,35.8485 310.018,35.8485 C311.255,35.8485 311.873,36.467 311.873,37.704 L311.873,52.1571 L320.174,49.0321 L320.174,33.2118 C320.174,31.9748 320.792,31.3564 322.029,31.3564 C323.266,31.3564 323.885,31.9748 323.885,33.2118 L323.885,47.7626 L327.108,46.5907 C327.173,46.5256 327.401,46.4931 327.791,46.4931 C328.247,46.4931 328.735,46.6884 329.256,47.079 C329.647,47.4696 329.842,47.9254 329.842,48.4462 L329.842,54.5009 C329.842,55.4123 329.386,56.0308 328.475,56.3564 L323.885,57.9189 L323.885,73.9345 L327.108,72.8603 C327.173,72.7952 327.401,72.7626 327.791,72.7626 C328.247,72.7626 328.735,72.9579 329.256,73.3485 C329.647,73.7392 329.842,74.1949 329.842,74.7157 L329.842,80.7704 C329.842,81.6168 329.386,82.2027 328.475,82.5282 L323.885,84.286 L323.885,100.009 M320.174,59.3837 L311.873,62.3134 L311.873,78.329 L320.174,75.3993 L320.174,59.3837 "/>
<path class="" d="M298.885,150.009 C298.885,151.246 298.266,151.864 297.029,151.864 C295.792,151.864 295.174,151.246 295.174,150.009 L295.174,135.556 L286.873,138.681 L286.873,154.501 C286.873,155.738 286.255,156.356 285.018,156.356 C283.781,156.356 283.162,155.738 283.162,154.501 L283.162,139.95 L280.037,141.122 C279.972,141.187 279.712,141.22 279.256,141.22 C278.735,141.22 278.279,141.024 277.889,140.634 C277.498,140.243 277.303,139.787 277.303,139.267 L277.303,133.212 C277.303,132.235 277.726,131.617 278.572,131.356 L283.162,129.794 L283.162,113.778 L280.037,114.852 C279.972,114.918 279.712,114.95 279.256,114.95 C278.735,114.95 278.279,114.755 277.889,114.364 C277.498,113.974 277.303,113.518 277.303,112.997 L277.303,106.942 C277.303,106.031 277.726,105.445 278.572,105.185 L283.162,103.427 L283.162,87.704 C283.162,86.4671 283.781,85.8486 285.018,85.8486 C286.255,85.8486 286.873,86.4671 286.873,87.704 L286.873,102.157 L295.174,99.0322 L295.174,83.2119 C295.174,81.9749 295.792,81.3564 297.029,81.3564 C298.266,81.3564 298.885,81.9749 298.885,83.2119 L298.885,97.7626 L302.108,96.5908 C302.173,96.5257 302.401,96.4931 302.791,96.4931 C303.247,96.4931 303.735,96.6884 304.256,97.079 C304.647,97.4697 304.842,97.9254 304.842,98.4462 L304.842,104.501 C304.842,105.412 304.386,106.031 303.475,106.356 L298.885,107.919 L298.885,123.935 L302.108,122.86 C302.173,122.795 302.401,122.763 302.791,122.763 C303.247,122.763 303.735,122.958 304.256,123.349 C304.647,123.739 304.842,124.195 304.842,124.716 L304.842,130.77 C304.842,131.617 304.386,132.203 303.475,132.528 L298.885,134.286 L298.885,150.009 M295.174,109.384 L286.873,112.313 L286.873,128.329 L295.174,125.399 L295.174,109.384 "/>
<path class="" d="M273.885,112.509 C273.885,113.746 273.266,114.364 272.029,114.364 C270.792,114.364 270.174,113.746 270.174,112.509 L270.174,98.0556 L261.873,101.181 L261.873,117.001 C261.873,118.238 261.255,118.856 260.018,118.856 C258.781,118.856 258.162,118.238 258.162,117.001 L258.162,102.45 L255.037,103.622 C254.972,103.687 254.712,103.72 254.256,103.72 C253.735,103.72 253.279,103.524 252.889,103.134 C252.498,102.743 252.303,102.287 252.303,101.767 L252.303,95.7118 C252.303,94.7353 252.726,94.1168 253.572,93.8564 L258.162,92.2939 L258.162,76.2782 L255.037,77.3525 C254.972,77.4176 254.712,77.4501 254.256,77.4501 C253.735,77.4501 253.279,77.2548 252.889,76.8642 C252.498,76.4736 252.303,76.0178 252.303,75.497 L252.303,69.4423 C252.303,68.5308 252.726,67.9449 253.572,67.6845 L258.162,65.9267 L258.162,50.204 C258.162,48.967 258.781,48.3486 260.018,48.3486 C261.255,48.3486 261.873,48.967 261.873,50.204 L261.873,64.6571 L270.174,61.5321 L270.174,45.7118 C270.174,44.4749 270.792,43.8564 272.029,43.8564 C273.266,43.8564 273.885,44.4749 273.885,45.7118 L273.885,60.2626 L277.108,59.0907 C277.173,59.0256 277.4,58.9931 277.791,58.9931 C278.247,58.9931 278.735,59.1884 279.256,59.579 C279.647,59.9696 279.842,60.4254 279.842,60.9462 L279.842,67.0009 C279.842,67.9124 279.386,68.5308 278.475,68.8564 L273.885,70.4189 L273.885,86.4345 L277.108,85.3603 C277.173,85.2952 277.4,85.2626 277.791,85.2626 C278.247,85.2626 278.735,85.4579 279.256,85.8486 C279.647,86.2392 279.842,86.6949 279.842,87.2157 L279.842,93.2704 C279.842,94.1168 279.386,94.7027 278.475,95.0282 L273.885,96.7861 L273.885,112.509 M270.174,71.8837 L261.873,74.8134 L261.873,90.829 L270.174,87.8993 L270.174,71.8837 "/>
<path class="" d="M248.885,75.0087 C248.885,76.2457 248.266,76.8642 247.029,76.8642 C245.792,76.8642 245.174,76.2457 245.174,75.0087 L245.174,60.5556 L236.873,63.6806 L236.873,79.5009 C236.873,80.7379 236.255,81.3563 235.018,81.3563 C233.781,81.3563 233.162,80.7379 233.162,79.5009 L233.162,64.9501 L230.037,66.122 C229.972,66.1871 229.712,66.2196 229.256,66.2196 C228.735,66.2196 228.279,66.0243 227.889,65.6337 C227.498,65.2431 227.303,64.7873 227.303,64.2665 L227.303,58.2118 C227.303,57.2353 227.726,56.6168 228.572,56.3563 L233.162,54.7938 L233.162,38.7782 L230.037,39.8524 C229.972,39.9175 229.712,39.9501 229.256,39.9501 C228.735,39.9501 228.279,39.7548 227.889,39.3642 C227.498,38.9735 227.303,38.5178 227.303,37.997 L227.303,31.9423 C227.303,31.0308 227.726,30.4449 228.572,30.1845 L233.162,28.4267 L233.162,12.704 C233.162,11.467 233.781,10.8485 235.018,10.8485 C236.255,10.8485 236.873,11.467 236.873,12.704 L236.873,27.1571 L245.174,24.0321 L245.174,8.21181 C245.174,6.97483 245.792,6.35634 247.029,6.35634 C248.266,6.35634 248.885,6.97483 248.885,8.21181 L248.885,22.7626 L252.108,21.5907 C252.173,21.5256 252.4,21.4931 252.791,21.4931 C253.247,21.4931 253.735,21.6884 254.256,22.079 C254.647,22.4696 254.842,22.9254 254.842,23.4462 L254.842,29.5009 C254.842,30.4123 254.386,31.0308 253.475,31.3563 L248.885,32.9188 L248.885,48.9345 L252.108,47.8603 C252.173,47.7951 252.4,47.7626 252.791,47.7626 C253.247,47.7626 253.735,47.9579 254.256,48.3485 C254.647,48.7392 254.842,49.1949 254.842,49.7157 L254.842,55.7704 C254.842,56.6168 254.386,57.2027 253.475,57.5282 L248.885,59.286 L248.885,75.0087 M245.174,34.3837 L236.873,37.3134 L236.873,53.329 L245.174,50.3993 L245.174,34.3837 "/>
<path class="" d="M223.885,125.009 C223.885,126.246 223.266,126.864 222.029,126.864 C220.792,126.864 220.174,126.246 220.174,125.009 L220.174,110.556 L211.873,113.681 L211.873,129.501 C211.873,130.738 211.255,131.356 210.018,131.356 C208.781,131.356 208.162,130.738 208.162,129.501 L208.162,114.95 L205.037,116.122 C204.972,116.187 204.712,116.22 204.256,116.22 C203.735,116.22 203.279,116.024 202.889,115.634 C202.498,115.243 202.303,114.787 202.303,114.267 L202.303,108.212 C202.303,107.235 202.726,106.617 203.572,106.356 L208.162,104.794 L208.162,88.7783 L205.037,89.8525 C204.972,89.9176 204.712,89.9501 204.256,89.9501 C203.735,89.9501 203.279,89.7548 202.889,89.3642 C202.498,88.9736 202.303,88.5178 202.303,87.997 L202.303,81.9423 C202.303,81.0309 202.726,80.4449 203.572,80.1845 L208.162,78.4267 L208.162,62.704 C208.162,61.4671 208.781,60.8486 210.018,60.8486 C211.255,60.8486 211.873,61.4671 211.873,62.704 L211.873,77.1572 L220.174,74.0322 L220.174,58.2118 C220.174,56.9749 220.792,56.3564 222.029,56.3564 C223.266,56.3564 223.885,56.9749 223.885,58.2118 L223.885,72.7626 L227.107,71.5908 C227.173,71.5256 227.4,71.4931 227.791,71.4931 C228.247,71.4931 228.735,71.6884 229.256,72.079 C229.647,72.4697 229.842,72.9254 229.842,73.4462 L229.842,79.5009 C229.842,80.4124 229.386,81.0309 228.475,81.3564 L223.885,82.9189 L223.885,98.9345 L227.107,97.8603 C227.173,97.7952 227.4,97.7626 227.791,97.7626 C228.247,97.7626 228.735,97.9579 229.256,98.3486 C229.647,98.7392 229.842,99.1949 229.842,99.7158 L229.842,105.77 C229.842,106.617 229.386,107.203 228.475,107.528 L223.885,109.286 L223.885,125.009 M220.174,84.3837 L211.873,87.3134 L211.873,103.329 L220.174,100.399 L220.174,84.3837 "/>
<path class="" d="M198.885,87.5087 C198.885,88.7457 198.266,89.3642 197.029,89.3642 C195.792,89.3642 195.174,88.7457 195.174,87.5087 L195.174,73.0556 L186.873,76.1806 L186.873,92.0009 C186.873,93.2379 186.255,93.8564 185.018,93.8564 C183.781,93.8564 183.162,93.2379 183.162,92.0009 L183.162,77.4501 L180.037,78.622 C179.972,78.6871 179.712,78.7196 179.256,78.7196 C178.735,78.7196 178.279,78.5243 177.889,78.1337 C177.498,77.7431 177.303,77.2873 177.303,76.7665 L177.303,70.7118 C177.303,69.7353 177.726,69.1168 178.572,68.8564 L183.162,67.2939 L183.162,51.2782 L180.037,52.3524 C179.972,52.4176 179.712,52.4501 179.256,52.4501 C178.735,52.4501 178.279,52.2548 177.889,51.8642 C177.498,51.4735 177.303,51.0178 177.303,50.497 L177.303,44.4423 C177.303,43.5308 177.726,42.9449 178.572,42.6845 L183.162,40.9267 L183.162,25.204 C183.162,23.967 183.781,23.3485 185.018,23.3485 C186.255,23.3485 186.873,23.967 186.873,25.204 L186.873,39.6571 L195.174,36.5321 L195.174,20.7118 C195.174,19.4748 195.792,18.8564 197.029,18.8564 C198.266,18.8564 198.885,19.4748 198.885,20.7118 L198.885,35.2626 L202.107,34.0907 C202.173,34.0256 202.4,33.9931 202.791,33.9931 C203.247,33.9931 203.735,34.1884 204.256,34.579 C204.647,34.9696 204.842,35.4254 204.842,35.9462 L204.842,42.0009 C204.842,42.9123 204.386,43.5308 203.475,43.8564 L198.885,45.4189 L198.885,61.4345 L202.107,60.3603 C202.173,60.2952 202.4,60.2626 202.791,60.2626 C203.247,60.2626 203.735,60.4579 204.256,60.8485 C204.647,61.2392 204.842,61.6949 204.842,62.2157 L204.842,68.2704 C204.842,69.1168 204.386,69.7027 203.475,70.0282 L198.885,71.786 L198.885,87.5087 M195.174,46.8837 L186.873,49.8134 L186.873,65.829 L195.174,62.8993 L195.174,46.8837 "/>
<path class="" fill-rule="evenodd" d="M50.9159,185.325 C50.9159,156.12 30.8016,127.733 30.8016,99.7543 C30.8016,85.6627 36.2873,71.9796 53.2016,59.7261 C53.4302,59.5729 53.5444,59.3176 53.5444,59.1645 C53.5444,58.7049 52.2873,58.2965 51.373,58.2965 C50.9159,58.2965 50.1159,58.3476 49.5444,58.7049 C27.6016,74.4303 20.2873,92.6064 20.2873,110.987 C20.2873,140.599 41.773,169.191 41.773,197.578 C41.773,211.67 36.2873,224.944 19.373,237.198 L19.373,237.606 L19.373,238.015 C36.2873,250.268 41.773,263.543 41.773,277.635 C41.773,306.022 20.2873,334.614 20.2873,364.226 C20.2873,382.607 27.6016,400.783 49.5444,416.508 C50.1159,416.865 50.9159,416.916 51.373,416.916 C52.2873,416.916 53.5444,416.508 53.5444,416.048 C53.5444,415.895 53.4302,415.64 53.2016,415.487 C36.2873,403.233 30.8016,389.55 30.8016,375.459 C30.8016,347.48 50.9159,319.092 50.9159,289.888 C50.9159,271.304 43.6016,253.536 22.1159,237.606 C43.6016,221.677 50.9159,203.909 50.9159,185.325"/>
</svg>
