<?xml version="1.0" encoding="utf-8"?>
<!-- Generator: Adobe Illustrator 23.1.1, SVG Export Plug-In . SVG Version: 6.00 Build 0)  -->
<svg version="1.1" xmlns="http://www.w3.org/2000/svg" xmlns:xlink="http://www.w3.org/1999/xlink" x="0px" y="0px"
	 viewBox="0 0 5669.3 3189" style="enable-background:new 0 0 5669.3 3189;" xml:space="preserve">
<style type="text/css">
	.st0{fill:none;stroke:#000000;stroke-width:2;stroke-linejoin:bevel;}
	.st1{fill:none;stroke:#000000;stroke-width:4;stroke-linejoin:bevel;}
	.st2{fill:none;stroke:#000000;stroke-width:12.5;stroke-linejoin:bevel;}
	.st3{fill:none;stroke:#000000;stroke-width:4;stroke-linecap:square;stroke-linejoin:bevel;}
	.st4{fill-rule:evenodd;clip-rule:evenodd;}
	.st5{fill:#FFFFFF;stroke:#000000;stroke-width:3;stroke-miterlimit:10;}
	.st6{stroke:#000000;stroke-width:3;stroke-miterlimit:10;}
	.st7{fill:none;}
	.st8{font-family:'HiraKakuPro-W3-83pv-RKSJ-H';}
	.st9{font-size:18px;}
	.st10{fill:none;stroke:#00B0EC;stroke-width:3;stroke-miterlimit:10;}
	.st11{fill:#00B0EC;}
	.st12{fill:none;stroke:#EC7594;stroke-width:3;stroke-miterlimit:10;}
	.st13{fill:#EC7594;}
</style>
<g id="五线谱图层">
	<g id="五线谱">
		<title>88Keys</title>
		<desc>Generated by MuseScore 3.3.2</desc>
		<g>
			<line class="st0" x1="145.6" y1="2118.8" x2="5574.5" y2="2118.8"/>
			<line class="st0" x1="145.6" y1="2143" x2="5574.5" y2="2143"/>
			<line class="st0" x1="145.6" y1="2167.2" x2="5574.5" y2="2167.2"/>
			<line class="st0" x1="145.6" y1="2191.4" x2="5574.5" y2="2191.4"/>
			<line class="st0" x1="145.6" y1="2215.5" x2="5574.5" y2="2215.5"/>
			<line class="st0" x1="145.6" y1="2372.5" x2="5574.5" y2="2372.5"/>
			<line class="st0" x1="145.6" y1="2396.7" x2="5574.5" y2="2396.7"/>
			<line class="st0" x1="145.6" y1="2420.9" x2="5574.5" y2="2420.9"/>
			<line class="st0" x1="145.6" y1="2445" x2="5574.5" y2="2445"/>
			<line class="st0" x1="145.6" y1="2469.2" x2="5574.5" y2="2469.2"/>
			<line class="st1" x1="147.5" y1="2371.6" x2="147.5" y2="2470.1"/>
			<line class="st1" x1="5550.9" y1="2371.6" x2="5550.9" y2="2470.1"/>
			<line class="st2" x1="5568.6" y1="2371.6" x2="5568.6" y2="2470.1"/>
			<line class="st1" x1="147.5" y1="2117.8" x2="147.5" y2="2372.5"/>
			<line class="st1" x1="5550.9" y1="2117.8" x2="5550.9" y2="2372.5"/>
			<line class="st2" x1="5568.6" y1="2117.8" x2="5568.6" y2="2372.5"/>
			<line class="st3" x1="227.2" y1="2614.1" x2="289.5" y2="2614.1"/>
			<line class="st3" x1="227.2" y1="2590" x2="289.5" y2="2590"/>
			<line class="st3" x1="227.2" y1="2565.8" x2="289.5" y2="2565.8"/>
			<line class="st3" x1="227.2" y1="2541.6" x2="289.5" y2="2541.6"/>
			<line class="st3" x1="227.2" y1="2517.5" x2="289.5" y2="2517.5"/>
			<line class="st3" x1="227.2" y1="2493.3" x2="289.5" y2="2493.3"/>
			<line class="st3" x1="329.3" y1="2614.1" x2="391.6" y2="2614.1"/>
			<line class="st3" x1="329.3" y1="2590" x2="391.6" y2="2590"/>
			<line class="st3" x1="329.3" y1="2565.8" x2="391.6" y2="2565.8"/>
			<line class="st3" x1="329.3" y1="2541.6" x2="391.6" y2="2541.6"/>
			<line class="st3" x1="329.3" y1="2517.5" x2="391.6" y2="2517.5"/>
			<line class="st3" x1="329.3" y1="2493.3" x2="391.6" y2="2493.3"/>
			<line class="st3" x1="431.3" y1="2590" x2="493.7" y2="2590"/>
			<line class="st3" x1="431.3" y1="2565.8" x2="493.7" y2="2565.8"/>
			<line class="st3" x1="431.3" y1="2541.6" x2="493.7" y2="2541.6"/>
			<line class="st3" x1="431.3" y1="2517.5" x2="493.7" y2="2517.5"/>
			<line class="st3" x1="431.3" y1="2493.3" x2="493.7" y2="2493.3"/>
			<line class="st3" x1="533.3" y1="2590" x2="595.8" y2="2590"/>
			<line class="st3" x1="533.3" y1="2565.8" x2="595.8" y2="2565.8"/>
			<line class="st3" x1="533.3" y1="2541.6" x2="595.8" y2="2541.6"/>
			<line class="st3" x1="533.3" y1="2517.5" x2="595.8" y2="2517.5"/>
			<line class="st3" x1="533.3" y1="2493.3" x2="595.8" y2="2493.3"/>
			<line class="st3" x1="635.5" y1="2565.8" x2="697.8" y2="2565.8"/>
			<line class="st3" x1="635.5" y1="2541.6" x2="697.8" y2="2541.6"/>
			<line class="st3" x1="635.5" y1="2517.5" x2="697.8" y2="2517.5"/>
			<line class="st3" x1="635.5" y1="2493.3" x2="697.8" y2="2493.3"/>
			<line class="st3" x1="737.5" y1="2565.8" x2="799.8" y2="2565.8"/>
			<line class="st3" x1="737.5" y1="2541.6" x2="799.8" y2="2541.6"/>
			<line class="st3" x1="737.5" y1="2517.5" x2="799.8" y2="2517.5"/>
			<line class="st3" x1="737.5" y1="2493.3" x2="799.8" y2="2493.3"/>
			<line class="st3" x1="839.5" y1="2541.6" x2="901.9" y2="2541.6"/>
			<line class="st3" x1="839.5" y1="2517.5" x2="901.9" y2="2517.5"/>
			<line class="st3" x1="839.5" y1="2493.3" x2="901.9" y2="2493.3"/>
			<line class="st3" x1="941.6" y1="2541.6" x2="1003.9" y2="2541.6"/>
			<line class="st3" x1="941.6" y1="2517.5" x2="1003.9" y2="2517.5"/>
			<line class="st3" x1="941.6" y1="2493.3" x2="1003.9" y2="2493.3"/>
			<line class="st3" x1="1043.6" y1="2517.5" x2="1105.9" y2="2517.5"/>
			<line class="st3" x1="1043.6" y1="2493.3" x2="1105.9" y2="2493.3"/>
			<line class="st3" x1="1145.7" y1="2517.5" x2="1208" y2="2517.5"/>
			<line class="st3" x1="1145.7" y1="2493.3" x2="1208" y2="2493.3"/>
			<line class="st3" x1="1247.7" y1="2493.3" x2="1310" y2="2493.3"/>
			<line class="st3" x1="1349.7" y1="2493.3" x2="1412.1" y2="2493.3"/>
			<line class="st3" x1="2574.3" y1="2348.4" x2="2636.7" y2="2348.4"/>
			<line class="st3" x1="2676.4" y1="2348.4" x2="2738.7" y2="2348.4"/>
			<line class="st3" x1="2778.5" y1="2348.4" x2="2840.8" y2="2348.4"/>
			<line class="st3" x1="2778.5" y1="2324.2" x2="2840.8" y2="2324.2"/>
			<line class="st3" x1="2880.5" y1="2348.4" x2="2942.8" y2="2348.4"/>
			<line class="st3" x1="2880.5" y1="2324.2" x2="2942.8" y2="2324.2"/>
			<line class="st3" x1="2982.5" y1="2348.4" x2="3044.9" y2="2348.4"/>
			<line class="st3" x1="2982.5" y1="2324.2" x2="3044.9" y2="2324.2"/>
			<line class="st3" x1="2982.5" y1="2300.1" x2="3044.9" y2="2300.1"/>
			<line class="st3" x1="2166.1" y1="2288" x2="2228.5" y2="2288"/>
			<line class="st3" x1="2166.1" y1="2263.8" x2="2228.5" y2="2263.8"/>
			<line class="st3" x1="2166.1" y1="2239.7" x2="2228.5" y2="2239.7"/>
			<line class="st3" x1="2268.2" y1="2263.8" x2="2330.5" y2="2263.8"/>
			<line class="st3" x1="2268.2" y1="2239.7" x2="2330.5" y2="2239.7"/>
			<line class="st3" x1="2370.2" y1="2263.8" x2="2432.5" y2="2263.8"/>
			<line class="st3" x1="2370.2" y1="2239.7" x2="2432.5" y2="2239.7"/>
			<line class="st3" x1="2472.2" y1="2239.7" x2="2534.6" y2="2239.7"/>
			<line class="st3" x1="2574.3" y1="2239.7" x2="2636.7" y2="2239.7"/>
			<line class="st3" x1="3798.9" y1="2094.6" x2="3861.3" y2="2094.6"/>
			<line class="st3" x1="3901" y1="2094.6" x2="3963.3" y2="2094.6"/>
			<line class="st3" x1="4003" y1="2094.6" x2="4065.3" y2="2094.6"/>
			<line class="st3" x1="4003" y1="2070.5" x2="4065.3" y2="2070.5"/>
			<line class="st3" x1="4105" y1="2094.6" x2="4167.4" y2="2094.6"/>
			<line class="st3" x1="4105" y1="2070.5" x2="4167.4" y2="2070.5"/>
			<line class="st3" x1="4207.1" y1="2094.6" x2="4269.4" y2="2094.6"/>
			<line class="st3" x1="4207.1" y1="2070.5" x2="4269.4" y2="2070.5"/>
			<line class="st3" x1="4207.1" y1="2046.3" x2="4269.4" y2="2046.3"/>
			<line class="st3" x1="4309.1" y1="2094.6" x2="4371.4" y2="2094.6"/>
			<line class="st3" x1="4309.1" y1="2070.5" x2="4371.4" y2="2070.5"/>
			<line class="st3" x1="4309.1" y1="2046.3" x2="4371.4" y2="2046.3"/>
			<line class="st3" x1="4411.2" y1="2094.6" x2="4473.5" y2="2094.6"/>
			<line class="st3" x1="4411.2" y1="2070.5" x2="4473.5" y2="2070.5"/>
			<line class="st3" x1="4411.2" y1="2046.3" x2="4473.5" y2="2046.3"/>
			<line class="st3" x1="4411.2" y1="2022.2" x2="4473.5" y2="2022.2"/>
			<line class="st3" x1="4513.2" y1="2094.6" x2="4575.6" y2="2094.6"/>
			<line class="st3" x1="4513.2" y1="2070.5" x2="4575.6" y2="2070.5"/>
			<line class="st3" x1="4513.2" y1="2046.3" x2="4575.6" y2="2046.3"/>
			<line class="st3" x1="4513.2" y1="2022.2" x2="4575.6" y2="2022.2"/>
			<line class="st3" x1="4615.3" y1="2094.6" x2="4677.7" y2="2094.6"/>
			<line class="st3" x1="4615.3" y1="2070.5" x2="4677.7" y2="2070.5"/>
			<line class="st3" x1="4615.3" y1="2046.3" x2="4677.7" y2="2046.3"/>
			<line class="st3" x1="4615.3" y1="2022.2" x2="4677.7" y2="2022.2"/>
			<line class="st3" x1="4615.3" y1="1998" x2="4677.7" y2="1998"/>
			<line class="st3" x1="4717.4" y1="2094.6" x2="4779.7" y2="2094.6"/>
			<line class="st3" x1="4717.4" y1="2070.5" x2="4779.7" y2="2070.5"/>
			<line class="st3" x1="4717.4" y1="2046.3" x2="4779.7" y2="2046.3"/>
			<line class="st3" x1="4717.4" y1="2022.2" x2="4779.7" y2="2022.2"/>
			<line class="st3" x1="4717.4" y1="1998" x2="4779.7" y2="1998"/>
			<line class="st3" x1="4819.4" y1="2094.6" x2="4881.7" y2="2094.6"/>
			<line class="st3" x1="4819.4" y1="2070.5" x2="4881.7" y2="2070.5"/>
			<line class="st3" x1="4819.4" y1="2046.3" x2="4881.7" y2="2046.3"/>
			<line class="st3" x1="4819.4" y1="2022.2" x2="4881.7" y2="2022.2"/>
			<line class="st3" x1="4819.4" y1="1998" x2="4881.7" y2="1998"/>
			<line class="st3" x1="4819.4" y1="1973.9" x2="4881.7" y2="1973.9"/>
			<line class="st3" x1="4921.4" y1="2094.6" x2="4983.8" y2="2094.6"/>
			<line class="st3" x1="4921.4" y1="2070.5" x2="4983.8" y2="2070.5"/>
			<line class="st3" x1="4921.4" y1="2046.3" x2="4983.8" y2="2046.3"/>
			<line class="st3" x1="4921.4" y1="2022.2" x2="4983.8" y2="2022.2"/>
			<line class="st3" x1="4921.4" y1="1998" x2="4983.8" y2="1998"/>
			<line class="st3" x1="4921.4" y1="1973.9" x2="4983.8" y2="1973.9"/>
			<line class="st3" x1="5023.5" y1="2094.6" x2="5085.8" y2="2094.6"/>
			<line class="st3" x1="5023.5" y1="2070.5" x2="5085.8" y2="2070.5"/>
			<line class="st3" x1="5023.5" y1="2046.3" x2="5085.8" y2="2046.3"/>
			<line class="st3" x1="5023.5" y1="2022.2" x2="5085.8" y2="2022.2"/>
			<line class="st3" x1="5023.5" y1="1998" x2="5085.8" y2="1998"/>
			<line class="st3" x1="5023.5" y1="1973.9" x2="5085.8" y2="1973.9"/>
			<line class="st3" x1="5023.5" y1="1949.7" x2="5085.8" y2="1949.7"/>
			<line class="st3" x1="5125.5" y1="2094.6" x2="5187.8" y2="2094.6"/>
			<line class="st3" x1="5125.5" y1="2070.5" x2="5187.8" y2="2070.5"/>
			<line class="st3" x1="5125.5" y1="2046.3" x2="5187.8" y2="2046.3"/>
			<line class="st3" x1="5125.5" y1="2022.2" x2="5187.8" y2="2022.2"/>
			<line class="st3" x1="5125.5" y1="1998" x2="5187.8" y2="1998"/>
			<line class="st3" x1="5125.5" y1="1973.9" x2="5187.8" y2="1973.9"/>
			<line class="st3" x1="5125.5" y1="1949.7" x2="5187.8" y2="1949.7"/>
			<line class="st3" x1="5227.6" y1="2094.6" x2="5289.9" y2="2094.6"/>
			<line class="st3" x1="5227.6" y1="2070.5" x2="5289.9" y2="2070.5"/>
			<line class="st3" x1="5227.6" y1="2046.3" x2="5289.9" y2="2046.3"/>
			<line class="st3" x1="5227.6" y1="2022.2" x2="5289.9" y2="2022.2"/>
			<line class="st3" x1="5227.6" y1="1998" x2="5289.9" y2="1998"/>
			<line class="st3" x1="5227.6" y1="1973.9" x2="5289.9" y2="1973.9"/>
			<line class="st3" x1="5227.6" y1="1949.7" x2="5289.9" y2="1949.7"/>
			<line class="st3" x1="5227.6" y1="1925.5" x2="5289.9" y2="1925.5"/>
			<line class="st3" x1="5329.6" y1="2094.6" x2="5391.9" y2="2094.6"/>
			<line class="st3" x1="5329.6" y1="2070.5" x2="5391.9" y2="2070.5"/>
			<line class="st3" x1="5329.6" y1="2046.3" x2="5391.9" y2="2046.3"/>
			<line class="st3" x1="5329.6" y1="2022.2" x2="5391.9" y2="2022.2"/>
			<line class="st3" x1="5329.6" y1="1998" x2="5391.9" y2="1998"/>
			<line class="st3" x1="5329.6" y1="1973.9" x2="5391.9" y2="1973.9"/>
			<line class="st3" x1="5329.6" y1="1949.7" x2="5391.9" y2="1949.7"/>
			<line class="st3" x1="5329.6" y1="1925.5" x2="5391.9" y2="1925.5"/>
			<line class="st3" x1="5431.6" y1="2094.6" x2="5494.1" y2="2094.6"/>
			<line class="st3" x1="5431.6" y1="2070.5" x2="5494.1" y2="2070.5"/>
			<line class="st3" x1="5431.6" y1="2046.3" x2="5494.1" y2="2046.3"/>
			<line class="st3" x1="5431.6" y1="2022.2" x2="5494.1" y2="2022.2"/>
			<line class="st3" x1="5431.6" y1="1998" x2="5494.1" y2="1998"/>
			<line class="st3" x1="5431.6" y1="1973.9" x2="5494.1" y2="1973.9"/>
			<line class="st3" x1="5431.6" y1="1949.7" x2="5494.1" y2="1949.7"/>
			<line class="st3" x1="5431.6" y1="1925.5" x2="5494.1" y2="1925.5"/>
			<line class="st3" x1="5431.6" y1="1901.4" x2="5494.1" y2="1901.4"/>
			<path d="M255.2,2615.3c-2.2,0-3.9,0.8-4.9,2.3c-1.2,1.5-1.7,3.6-1.7,6.1c0,3,0.8,5.5,2.3,7.6c1.5,2,3.3,3.5,5.2,4.3
				c1.7,0.8,3.5,1.3,5.4,1.3c2.2,0,3.9-0.8,5-2.3s1.6-3.6,1.6-6.1c0-3-0.8-5.5-2.3-7.6c-1.5-2-3.3-3.5-5.1-4.3
				C258.9,2615.8,257.1,2615.3,255.2,2615.3 M258.4,2612.9c6.8,0,12.5,1.4,17,4c4.6,2.6,6.9,5.8,6.9,9.4c0,3.9-2.3,7-7.1,9.5
				c-4.7,2.6-10.3,3.9-16.8,3.9c-6.7,0-12.4-1.4-17-4s-7-5.8-7-9.4c0-3.9,2.4-7,7.2-9.5C246.4,2614.1,252,2612.9,258.4,2612.9"/>
			<path d="M357.3,2603.2c-2.2,0-3.9,0.8-4.9,2.3c-1.2,1.5-1.7,3.6-1.7,6.1c0,3,0.8,5.5,2.3,7.6c1.5,2,3.3,3.5,5.2,4.3
				c1.7,0.8,3.5,1.3,5.4,1.3c2.2,0,3.9-0.8,5-2.3c1.1-1.5,1.6-3.6,1.6-6.1c0-3-0.8-5.5-2.3-7.6c-1.5-2-3.3-3.5-5.1-4.3
				C361,2603.7,359.1,2603.2,357.3,2603.2 M360.5,2600.8c6.8,0,12.5,1.4,17,4c4.6,2.6,6.9,5.8,6.9,9.4c0,3.9-2.3,7-7.1,9.5
				c-4.7,2.6-10.3,3.9-16.8,3.9c-6.7,0-12.4-1.4-17-4s-7-5.8-7-9.4c0-3.9,2.4-7,7.2-9.5C348.4,2602,354,2600.8,360.5,2600.8"/>
			<path d="M459.3,2591.1c-2.2,0-3.9,0.8-4.9,2.3c-1.2,1.5-1.7,3.6-1.7,6.1c0,3,0.8,5.5,2.3,7.6c1.5,2,3.3,3.5,5.2,4.3
				c1.7,0.8,3.5,1.3,5.4,1.3c2.2,0,3.9-0.8,5-2.3s1.6-3.6,1.6-6.1c0-3-0.8-5.5-2.3-7.6c-1.5-2-3.3-3.5-5.1-4.3
				S461.2,2591.1,459.3,2591.1 M462.5,2588.7c6.8,0,12.5,1.4,17,4c4.6,2.6,6.9,5.8,6.9,9.4c0,3.9-2.3,7-7.1,9.5
				c-4.7,2.6-10.3,3.9-16.8,3.9c-6.7,0-12.4-1.4-17-4s-7-5.8-7-9.4c0-3.9,2.4-7,7.2-9.5C450.4,2590,456,2588.7,462.5,2588.7"/>
			<path d="M561.4,2579c-2.2,0-3.9,0.8-4.9,2.3c-1.2,1.5-1.7,3.6-1.7,6.1c0,3,0.8,5.5,2.3,7.6c1.5,2,3.3,3.5,5.2,4.3
				c1.7,0.8,3.5,1.3,5.4,1.3c2.2,0,3.9-0.8,5-2.3s1.6-3.6,1.6-6.1c0-3-0.8-5.5-2.3-7.6c-1.5-2-3.3-3.5-5.1-4.3
				C565,2579.5,563.2,2579,561.4,2579 M564.5,2576.6c6.8,0,12.5,1.4,17,4c4.6,2.6,6.9,5.8,6.9,9.4c0,3.9-2.3,7-7.1,9.5
				c-4.7,2.6-10.3,3.9-16.8,3.9c-6.7,0-12.4-1.4-17-4s-7-5.8-7-9.4c0-3.9,2.4-7,7.2-9.5C552.5,2577.9,558.1,2576.6,564.5,2576.6"/>
			<path d="M663.4,2567c-2.2,0-3.9,0.8-4.9,2.3c-1.2,1.5-1.7,3.6-1.7,6.1c0,3,0.8,5.5,2.3,7.6c1.5,2,3.3,3.5,5.2,4.3
				c1.7,0.8,3.5,1.3,5.4,1.3c2.2,0,3.9-0.8,5-2.3s1.6-3.6,1.6-6.1c0-3-0.8-5.5-2.3-7.6c-1.5-2-3.3-3.5-5.1-4.3
				C667.1,2567.4,665.2,2567,663.4,2567 M666.7,2564.5c6.8,0,12.5,1.4,17,4c4.6,2.6,6.9,5.8,6.9,9.4c0,3.9-2.3,7-7.1,9.5
				c-4.7,2.6-10.3,3.9-16.8,3.9c-6.7,0-12.4-1.4-17-4s-7-5.8-7-9.4c0-3.9,2.4-7,7.2-9.5C654.6,2565.8,660.2,2564.5,666.7,2564.5"/>
			<path d="M765.4,2554.9c-2.2,0-3.9,0.8-4.9,2.3c-1.2,1.5-1.7,3.6-1.7,6.1c0,3,0.8,5.5,2.3,7.6c1.5,2,3.3,3.5,5.2,4.3
				c1.7,0.8,3.5,1.3,5.4,1.3c2.2,0,3.9-0.8,5-2.3s1.6-3.6,1.6-6.1c0-3-0.8-5.5-2.3-7.6c-1.5-2-3.3-3.5-5.1-4.3
				S767.3,2554.9,765.4,2554.9 M768.7,2552.5c6.8,0,12.5,1.4,17,4c4.6,2.6,6.9,5.8,6.9,9.4c0,3.9-2.3,7-7.1,9.5
				c-4.7,2.6-10.3,3.9-16.8,3.9c-6.7,0-12.4-1.4-17-4s-7-5.8-7-9.4c0-3.9,2.4-7,7.2-9.5C756.6,2553.7,762.2,2552.5,768.7,2552.5"/>
			<path d="M867.6,2542.8c-2.2,0-3.9,0.8-4.9,2.3c-1.2,1.5-1.7,3.6-1.7,6.1c0,3,0.8,5.5,2.3,7.6c1.5,2,3.3,3.5,5.2,4.3
				c1.7,0.8,3.5,1.3,5.4,1.3c2.2,0,3.9-0.8,5-2.3s1.6-3.6,1.6-6.1c0-3-0.8-5.5-2.3-7.6c-1.5-2-3.3-3.5-5.1-4.3
				C871.1,2543.3,869.3,2542.8,867.6,2542.8 M870.8,2540.4c6.8,0,12.5,1.4,17,4c4.6,2.6,6.9,5.8,6.9,9.4c0,3.9-2.3,7-7.1,9.5
				c-4.7,2.6-10.3,3.9-16.8,3.9c-6.7,0-12.4-1.4-17-4s-7-5.8-7-9.4c0-3.9,2.4-7,7.2-9.5C858.7,2541.6,864.3,2540.4,870.8,2540.4"/>
			<path d="M969.6,2530.7c-2.2,0-3.9,0.8-4.9,2.3c-1.2,1.5-1.7,3.6-1.7,6.1c0,3,0.8,5.5,2.3,7.6c1.5,2,3.3,3.5,5.2,4.3
				c1.7,0.8,3.5,1.3,5.4,1.3c2.2,0,3.9-0.8,5-2.3s1.6-3.6,1.6-6.1c0-3-0.8-5.5-2.3-7.6c-1.5-2-3.3-3.5-5.1-4.3
				C973.2,2531.2,971.3,2530.7,969.6,2530.7 M972.8,2528.3c6.8,0,12.5,1.4,17,4c4.6,2.6,6.9,5.8,6.9,9.4c0,3.9-2.3,7-7.1,9.5
				c-4.7,2.6-10.3,3.9-16.8,3.9c-6.7,0-12.4-1.4-17-4s-7-5.8-7-9.4c0-3.9,2.4-7,7.2-9.5C960.7,2529.6,966.3,2528.3,972.8,2528.3"/>
			<path d="M1071.6,2518.6c-2.2,0-3.9,0.8-4.9,2.3c-1.2,1.5-1.7,3.6-1.7,6.1c0,3,0.8,5.5,2.3,7.6c1.5,2,3.3,3.5,5.2,4.3
				c1.7,0.8,3.5,1.3,5.4,1.3c2.2,0,3.9-0.8,5-2.3s1.6-3.6,1.6-6.1c0-3-0.8-5.5-2.3-7.6c-1.5-2-3.3-3.5-5.1-4.3
				C1075.2,2519.1,1073.5,2518.6,1071.6,2518.6 M1074.8,2516.2c6.8,0,12.5,1.4,17,4c4.6,2.6,6.9,5.8,6.9,9.4c0,3.9-2.3,7-7.1,9.5
				c-4.7,2.6-10.3,3.9-16.8,3.9c-6.7,0-12.4-1.4-17-4s-7-5.8-7-9.4c0-3.9,2.4-7,7.2-9.5C1062.8,2517.5,1068.4,2516.2,1074.8,2516.2"
				/>
			<path d="M1173.7,2506.6c-2.2,0-3.9,0.8-4.9,2.3c-1.2,1.5-1.7,3.6-1.7,6.1c0,3,0.8,5.5,2.3,7.6c1.5,2,3.3,3.5,5.2,4.3
				c1.7,0.8,3.5,1.3,5.4,1.3c2.2,0,3.9-0.8,5-2.3s1.6-3.6,1.6-6.1c0-3-0.8-5.5-2.3-7.6c-1.5-2-3.3-3.5-5.1-4.3
				C1177.4,2507,1175.5,2506.6,1173.7,2506.6 M1176.9,2504.1c6.8,0,12.5,1.4,17,4c4.6,2.6,6.9,5.8,6.9,9.4c0,3.9-2.3,7-7.1,9.5
				c-4.7,2.6-10.3,3.9-16.8,3.9c-6.7,0-12.4-1.4-17-4s-7-5.8-7-9.4c0-3.9,2.4-7,7.2-9.5C1164.8,2505.4,1170.4,2504.1,1176.9,2504.1"
				/>
			<path d="M1275.7,2494.5c-2.3,0-3.9,0.8-4.9,2.3c-1.2,1.5-1.7,3.6-1.7,6.1c0,3,0.8,5.5,2.3,7.6c1.5,2,3.3,3.5,5.2,4.3
				c1.7,0.8,3.5,1.3,5.4,1.3c2.2,0,3.9-0.8,5-2.3s1.6-3.6,1.6-6.1c0-3-0.8-5.5-2.4-7.6c-1.5-2-3.3-3.5-5.1-4.3
				C1279.4,2495,1277.6,2494.5,1275.7,2494.5 M1278.9,2492.1c6.8,0,12.5,1.4,17,4c4.6,2.6,6.9,5.8,6.9,9.4c0,3.9-2.3,7-7.1,9.5
				c-4.7,2.6-10.3,3.9-16.8,3.9c-6.7,0-12.4-1.4-17-4s-7-5.8-7-9.4c0-3.9,2.4-7,7.2-9.5C1266.8,2493.3,1272.4,2492.1,1278.9,2492.1"
				/>
			<path d="M1377.8,2482.4c-2.2,0-3.9,0.8-4.9,2.3c-1.2,1.5-1.7,3.6-1.7,6.1c0,3,0.8,5.5,2.3,7.6c1.5,2,3.3,3.5,5.2,4.3
				c1.7,0.8,3.5,1.3,5.4,1.3c2.2,0,3.9-0.8,5-2.3s1.6-3.6,1.6-6.1c0-3-0.8-5.5-2.4-7.6c-1.5-2-3.3-3.5-5.1-4.3
				C1381.4,2482.9,1379.6,2482.4,1377.8,2482.4 M1380.9,2480c6.8,0,12.5,1.4,17,4c4.6,2.6,6.9,5.8,6.9,9.4c0,3.9-2.3,7-7.1,9.5
				c-4.7,2.6-10.3,3.9-16.8,3.9c-6.7,0-12.4-1.4-17-4s-7-5.8-7-9.4c0-3.9,2.4-7,7.2-9.5C1368.9,2481.2,1374.5,2480,1380.9,2480"/>
			<path d="M1479.8,2470.3c-2.2,0-3.9,0.8-4.9,2.3c-1.2,1.5-1.7,3.6-1.7,6.1c0,3,0.8,5.5,2.3,7.6c1.5,2,3.3,3.5,5.2,4.3
				c1.7,0.8,3.5,1.3,5.4,1.3c2.2,0,3.9-0.8,5-2.3s1.6-3.6,1.6-6.1c0-3-0.8-5.5-2.4-7.6c-1.5-2-3.3-3.5-5.1-4.3
				C1483.5,2470.8,1481.6,2470.3,1479.8,2470.3 M1483,2467.9c6.8,0,12.5,1.4,17,4c4.6,2.6,6.9,5.8,6.9,9.4c0,3.9-2.3,7-7.1,9.5
				c-4.7,2.6-10.3,3.9-16.8,3.9c-6.7,0-12.4-1.4-17-4s-7-5.8-7-9.4c0-3.9,2.4-7,7.2-9.5C1470.9,2469.2,1476.5,2467.9,1483,2467.9"/>
			<path d="M1581.8,2458.3c-2.2,0-3.9,0.8-4.9,2.3c-1.2,1.5-1.7,3.6-1.7,6.1c0,3,0.8,5.5,2.3,7.6c1.5,2,3.3,3.5,5.2,4.3
				c1.7,0.8,3.5,1.3,5.4,1.3c2.2,0,3.9-0.8,5-2.3s1.6-3.6,1.6-6.1c0-3-0.8-5.5-2.3-7.6c-1.5-2-3.3-3.5-5.1-4.3
				C1585.5,2458.7,1583.7,2458.3,1581.8,2458.3 M1585,2455.8c6.8,0,12.5,1.4,17,4c4.6,2.6,6.9,5.8,6.9,9.4c0,3.9-2.3,7-7.1,9.5
				c-4.7,2.6-10.3,3.9-16.8,3.9c-6.7,0-12.4-1.4-17-4s-7-5.8-7-9.4c0-3.9,2.4-7,7.2-9.5C1572.9,2457.1,1578.5,2455.8,1585,2455.8"/>
			<path d="M1683.9,2446.2c-2.2,0-3.9,0.8-4.9,2.3c-1.2,1.5-1.7,3.6-1.7,6.1c0,3,0.8,5.5,2.3,7.6c1.5,2,3.3,3.5,5.2,4.3
				c1.7,0.8,3.5,1.3,5.4,1.3c2.2,0,3.9-0.8,5-2.3s1.6-3.6,1.6-6.1c0-3-0.8-5.5-2.3-7.6c-1.5-2-3.3-3.5-5.1-4.3
				C1687.5,2446.7,1685.7,2446.2,1683.9,2446.2 M1687.2,2443.8c6.8,0,12.5,1.4,17,4c4.6,2.6,6.9,5.8,6.9,9.4c0,3.9-2.3,7-7.1,9.5
				c-4.7,2.6-10.3,3.9-16.8,3.9c-6.7,0-12.4-1.4-17-4s-7-5.8-7-9.4c0-3.9,2.4-7,7.2-9.5C1675.1,2445,1680.6,2443.8,1687.2,2443.8"/>
			<path d="M1785.9,2434.1c-2.2,0-3.9,0.8-4.9,2.3c-1.2,1.5-1.7,3.6-1.7,6.1c0,3,0.8,5.5,2.3,7.6c1.5,2,3.3,3.5,5.2,4.3
				c1.7,0.8,3.5,1.3,5.4,1.3c2.2,0,3.9-0.8,5-2.3s1.6-3.6,1.6-6.1c0-3-0.8-5.5-2.3-7.6c-1.5-2-3.3-3.5-5.1-4.3
				S1787.7,2434.1,1785.9,2434.1 M1789.2,2431.7c6.8,0,12.5,1.4,17,4c4.6,2.6,6.9,5.8,6.9,9.4c0,3.9-2.3,7-7.1,9.5
				c-4.7,2.6-10.3,3.9-16.8,3.9c-6.7,0-12.4-1.4-17-4s-7-5.8-7-9.4c0-3.9,2.4-7,7.2-9.5C1777.1,2432.9,1782.7,2431.7,1789.2,2431.7"
				/>
			<path d="M1888,2422c-2.2,0-3.9,0.8-4.9,2.3c-1.2,1.5-1.7,3.6-1.7,6.1c0,3,0.8,5.5,2.3,7.6c1.5,2,3.3,3.5,5.2,4.3
				c1.7,0.8,3.5,1.3,5.4,1.3c2.2,0,3.9-0.8,5-2.3s1.6-3.6,1.6-6.1c0-3-0.8-5.5-2.3-7.6c-1.5-2-3.3-3.5-5.1-4.3
				C1891.6,2422.5,1889.8,2422,1888,2422 M1891.2,2419.6c6.8,0,12.5,1.4,17,4c4.6,2.6,6.9,5.8,6.9,9.4c0,3.9-2.3,7-7.1,9.5
				c-4.7,2.6-10.3,3.9-16.8,3.9c-6.7,0-12.4-1.4-17-4s-7-5.8-7-9.4c0-3.9,2.4-7,7.2-9.5C1879.2,2420.9,1884.8,2419.6,1891.2,2419.6"
				/>
			<path d="M1990.1,2409.9c-2.3,0-3.9,0.8-4.9,2.3c-1.2,1.5-1.7,3.6-1.7,6.1c0,3,0.8,5.5,2.3,7.6c1.5,2,3.3,3.5,5.2,4.3
				c1.7,0.8,3.5,1.3,5.4,1.3c2.2,0,3.9-0.8,5-2.3s1.6-3.6,1.6-6.1c0-3-0.8-5.5-2.3-7.6c-1.5-2-3.3-3.5-5.1-4.3
				C1993.7,2410.4,1991.9,2409.9,1990.1,2409.9 M1993.3,2407.5c6.8,0,12.5,1.4,17,4c4.6,2.6,6.9,5.8,6.9,9.4c0,3.9-2.3,7-7.1,9.5
				c-4.7,2.6-10.3,3.9-16.8,3.9c-6.7,0-12.4-1.4-17-4s-7-5.8-7-9.4c0-3.9,2.4-7,7.2-9.5C1981.2,2408.8,1986.8,2407.5,1993.3,2407.5"
				/>
			<path d="M2092.1,2397.9c-2.2,0-3.9,0.8-4.9,2.3c-1.2,1.5-1.7,3.6-1.7,6.1c0,3,0.8,5.5,2.3,7.6c1.5,2,3.3,3.5,5.2,4.3
				c1.7,0.8,3.5,1.3,5.4,1.3c2.2,0,3.9-0.8,5-2.3s1.6-3.6,1.6-6.1c0-3-0.8-5.5-2.3-7.6c-1.5-2-3.3-3.5-5.1-4.3
				C2095.7,2398.3,2094,2397.9,2092.1,2397.9 M2095.3,2395.4c6.8,0,12.5,1.4,17,4c4.6,2.6,6.9,5.8,6.9,9.4c0,3.9-2.3,7-7.1,9.5
				c-4.7,2.6-10.3,3.9-16.8,3.9c-6.7,0-12.4-1.4-17-4s-7-5.8-7-9.4c0-3.9,2.4-7,7.2-9.5C2083.2,2396.7,2088.8,2395.4,2095.3,2395.4"
				/>
			<path d="M2194.2,2385.8c-2.3,0-3.9,0.8-4.9,2.3c-1.2,1.5-1.7,3.6-1.7,6.1c0,3,0.8,5.5,2.3,7.6c1.5,2,3.3,3.5,5.2,4.3
				c1.7,0.8,3.5,1.3,5.4,1.3c2.2,0,3.9-0.8,5-2.3s1.6-3.6,1.6-6.1c0-3-0.8-5.5-2.3-7.6c-1.5-2-3.3-3.5-5.1-4.3
				C2197.8,2386.3,2196,2385.8,2194.2,2385.8 M2197.3,2383.4c6.8,0,12.5,1.4,17,4c4.6,2.6,6.9,5.8,6.9,9.4c0,3.9-2.3,7-7.1,9.5
				c-4.7,2.6-10.3,3.9-16.8,3.9c-6.7,0-12.4-1.4-17-4s-7-5.8-7-9.4c0-3.9,2.4-7,7.2-9.5C2185.3,2384.6,2190.9,2383.4,2197.3,2383.4"
				/>
			<path d="M2296.2,2373.7c-2.2,0-3.9,0.8-4.9,2.3c-1.2,1.5-1.7,3.6-1.7,6.1c0,3,0.8,5.5,2.3,7.6c1.5,2,3.3,3.5,5.2,4.3
				c1.7,0.8,3.5,1.3,5.4,1.3c2.2,0,3.9-0.8,5-2.3s1.6-3.6,1.6-6.1c0-3-0.8-5.5-2.3-7.6c-1.5-2-3.3-3.5-5.1-4.3
				C2299.9,2374.2,2298,2373.7,2296.2,2373.7 M2299.4,2371.3c6.8,0,12.5,1.4,17,4c4.6,2.6,6.9,5.8,6.9,9.4c0,3.9-2.3,7-7.1,9.5
				c-4.7,2.6-10.3,3.9-16.8,3.9c-6.7,0-12.4-1.4-17-4s-7-5.8-7-9.4c0-3.9,2.4-7,7.2-9.5C2287.3,2372.5,2292.9,2371.3,2299.4,2371.3"
				/>
			<path d="M2398.2,2361.6c-2.3,0-3.9,0.8-4.9,2.3c-1.2,1.5-1.7,3.6-1.7,6.1c0,3,0.8,5.5,2.3,7.6c1.5,2,3.3,3.5,5.2,4.3
				c1.7,0.8,3.5,1.3,5.4,1.3c2.2,0,3.9-0.8,5-2.3s1.6-3.6,1.6-6.1c0-3-0.8-5.5-2.3-7.6c-1.5-2-3.3-3.5-5.1-4.3
				C2401.9,2362.1,2400.1,2361.6,2398.2,2361.6 M2401.4,2359.2c6.8,0,12.5,1.4,17,4c4.6,2.6,6.9,5.8,6.9,9.4c0,3.9-2.3,7-7.1,9.5
				c-4.7,2.6-10.3,3.9-16.8,3.9c-6.7,0-12.4-1.4-17-4s-7-5.8-7-9.4c0-3.9,2.4-7,7.2-9.5C2389.3,2360.5,2394.9,2359.2,2401.4,2359.2"
				/>
			<path d="M2500.3,2349.5c-2.3,0-3.9,0.8-4.9,2.3c-1.2,1.5-1.7,3.6-1.7,6.1c0,3,0.8,5.5,2.3,7.6c1.5,2,3.3,3.5,5.2,4.3
				c1.7,0.8,3.5,1.3,5.4,1.3c2.2,0,3.9-0.8,5-2.3s1.6-3.6,1.6-6.1c0-3-0.8-5.5-2.3-7.6c-1.5-2-3.3-3.5-5.1-4.3
				C2503.9,2350,2502.1,2349.5,2500.3,2349.5 M2503.5,2347.1c6.8,0,12.5,1.4,17,4c4.6,2.6,6.9,5.8,6.9,9.4c0,3.9-2.3,7-7.1,9.5
				c-4.7,2.6-10.3,3.9-16.8,3.9c-6.7,0-12.4-1.4-17-4s-7-5.8-7-9.4c0-3.9,2.4-7,7.2-9.5C2491.4,2348.4,2497,2347.1,2503.5,2347.1"/>
			<path d="M2602.3,2337.5c-2.3,0-3.9,0.8-4.9,2.3c-1.2,1.5-1.7,3.6-1.7,6.1c0,3,0.8,5.5,2.3,7.6c1.5,2,3.3,3.5,5.2,4.3
				c1.7,0.8,3.5,1.3,5.4,1.3c2.2,0,3.9-0.8,5-2.3s1.6-3.6,1.6-6.1c0-3-0.8-5.5-2.3-7.6c-1.5-2-3.3-3.5-5.1-4.3
				S2604.1,2337.5,2602.3,2337.5 M2605.6,2335.1c6.8,0,12.5,1.4,17,4c4.6,2.6,6.9,5.8,6.9,9.4c0,3.9-2.3,7-7.1,9.5
				c-4.7,2.6-10.3,3.9-16.8,3.9c-6.7,0-12.4-1.4-17-4s-7-5.8-7-9.4c0-3.9,2.4-7,7.2-9.5C2593.5,2336.3,2599,2335.1,2605.6,2335.1"/>
			<path d="M2704.3,2325.4c-2.3,0-3.9,0.8-4.9,2.3c-1.2,1.5-1.7,3.6-1.7,6.1c0,3,0.8,5.5,2.3,7.6c1.5,2,3.3,3.5,5.2,4.3
				c1.7,0.8,3.5,1.3,5.4,1.3c2.2,0,3.9-0.8,5-2.3s1.6-3.6,1.6-6.1c0-3-0.8-5.5-2.3-7.6c-1.5-2-3.3-3.5-5.1-4.3
				S2706.2,2325.4,2704.3,2325.4 M2707.6,2323c6.8,0,12.5,1.4,17,4c4.6,2.6,6.9,5.8,6.9,9.4c0,3.9-2.4,7-7.1,9.5
				c-4.7,2.6-10.3,3.9-16.8,3.9c-6.7,0-12.4-1.4-17-4s-7-5.8-7-9.4c0-3.9,2.4-7,7.2-9.5C2695.5,2324.2,2701.1,2323,2707.6,2323"/>
			<path d="M2806.4,2313.3c-2.2,0-3.9,0.8-4.9,2.3c-1.2,1.5-1.7,3.6-1.7,6.1c0,3,0.8,5.5,2.3,7.6c1.5,2,3.3,3.5,5.2,4.3
				c1.7,0.8,3.5,1.3,5.4,1.3c2.2,0,3.9-0.8,5-2.3s1.6-3.6,1.6-6.1c0-3-0.8-5.5-2.3-7.6c-1.5-2-3.3-3.5-5.1-4.3
				S2808.2,2313.3,2806.4,2313.3 M2809.7,2310.9c6.8,0,12.5,1.4,17,4c4.6,2.6,6.9,5.8,6.9,9.4c0,3.9-2.3,7-7.1,9.5
				c-4.7,2.6-10.3,3.9-16.8,3.9c-6.7,0-12.4-1.4-17-4s-7-5.8-7-9.4c0-3.9,2.4-7,7.2-9.5C2797.6,2312.2,2803.2,2310.9,2809.7,2310.9"
				/>
			<path d="M2908.5,2301.2c-2.3,0-3.9,0.8-4.9,2.3c-1.2,1.5-1.7,3.6-1.7,6.1c0,3,0.8,5.5,2.3,7.6c1.5,2,3.3,3.5,5.2,4.3
				c1.7,0.8,3.5,1.3,5.4,1.3c2.2,0,3.9-0.8,5-2.3s1.6-3.6,1.6-6.1c0-3-0.8-5.5-2.3-7.6c-1.5-2-3.3-3.5-5.1-4.3
				C2912.1,2301.7,2910.3,2301.2,2908.5,2301.2 M2911.7,2298.8c6.8,0,12.5,1.4,17,4c4.6,2.6,6.9,5.8,6.9,9.4c0,3.9-2.4,7-7.1,9.5
				c-4.7,2.6-10.3,3.9-16.8,3.9c-6.7,0-12.4-1.4-17-4s-7-5.8-7-9.4c0-3.9,2.4-7,7.2-9.5C2899.6,2300.1,2905.2,2298.8,2911.7,2298.8"
				/>
			<path d="M3010.6,2289.2c-2.2,0-3.9,0.8-4.9,2.3c-1.2,1.5-1.7,3.6-1.7,6.1c0,3,0.8,5.5,2.3,7.6c1.5,2,3.3,3.5,5.2,4.3
				c1.7,0.8,3.5,1.3,5.4,1.3c2.2,0,3.9-0.8,5-2.3s1.6-3.6,1.6-6.1c0-3-0.8-5.5-2.3-7.6c-1.5-2-3.3-3.5-5.1-4.3
				C3014.1,2289.6,3012.4,2289.2,3010.6,2289.2 M3013.7,2286.7c6.8,0,12.5,1.4,17,4c4.6,2.6,6.9,5.8,6.9,9.4c0,3.9-2.3,7-7.1,9.5
				c-4.7,2.6-10.3,3.9-16.8,3.9c-6.7,0-12.4-1.4-17-4s-7-5.8-7-9.4c0-3.9,2.4-7,7.2-9.5C3001.7,2288,3007.3,2286.7,3013.7,2286.7"/>
			<path d="M2194.2,2277.1c-2.3,0-3.9,0.8-4.9,2.3c-1.2,1.5-1.7,3.6-1.7,6.1c0,3,0.8,5.5,2.3,7.6c1.5,2,3.3,3.5,5.2,4.3
				c1.7,0.8,3.5,1.3,5.4,1.3c2.2,0,3.9-0.8,5-2.3s1.6-3.6,1.6-6.1c0-3-0.8-5.5-2.3-7.6c-1.5-2-3.3-3.5-5.1-4.3
				C2197.8,2277.6,2196,2277.1,2194.2,2277.1 M2197.3,2274.7c6.8,0,12.5,1.4,17,4c4.6,2.6,6.9,5.8,6.9,9.4c0,3.9-2.3,7-7.1,9.5
				c-4.7,2.6-10.3,3.9-16.8,3.9c-6.7,0-12.4-1.4-17-4s-7-5.8-7-9.4c0-3.9,2.4-7,7.2-9.5C2185.3,2275.9,2190.9,2274.7,2197.3,2274.7"
				/>
			<path d="M2296.2,2265c-2.2,0-3.9,0.8-4.9,2.3c-1.2,1.5-1.7,3.6-1.7,6.1c0,3,0.8,5.5,2.3,7.6c1.5,2,3.3,3.5,5.2,4.3
				c1.7,0.8,3.5,1.3,5.4,1.3c2.2,0,3.9-0.8,5-2.3s1.6-3.6,1.6-6.1c0-3-0.8-5.5-2.3-7.6c-1.5-2-3.3-3.5-5.1-4.3
				C2299.9,2265.5,2298,2265,2296.2,2265 M2299.4,2262.6c6.8,0,12.5,1.4,17,4c4.6,2.6,6.9,5.8,6.9,9.4c0,3.9-2.3,7-7.1,9.5
				c-4.7,2.6-10.3,3.9-16.8,3.9c-6.7,0-12.4-1.4-17-4s-7-5.8-7-9.4c0-3.9,2.4-7,7.2-9.5C2287.3,2263.8,2292.9,2262.6,2299.4,2262.6"
				/>
			<path d="M2398.2,2252.9c-2.3,0-3.9,0.8-4.9,2.3c-1.2,1.5-1.7,3.6-1.7,6.1c0,3,0.8,5.5,2.3,7.6c1.5,2,3.3,3.5,5.2,4.3
				c1.7,0.8,3.5,1.3,5.4,1.3c2.2,0,3.9-0.8,5-2.3s1.6-3.6,1.6-6.1c0-3-0.8-5.5-2.3-7.6c-1.5-2-3.3-3.5-5.1-4.3
				C2401.9,2253.3,2400.1,2252.9,2398.2,2252.9 M2401.4,2250.5c6.8,0,12.5,1.4,17,4c4.6,2.6,6.9,5.8,6.9,9.4c0,3.9-2.3,7-7.1,9.5
				c-4.7,2.6-10.3,3.9-16.8,3.9c-6.7,0-12.4-1.4-17-4s-7-5.8-7-9.4c0-3.9,2.4-7,7.2-9.5C2389.3,2251.8,2394.9,2250.5,2401.4,2250.5"
				/>
			<path d="M2500.3,2240.8c-2.3,0-3.9,0.8-4.9,2.3c-1.2,1.5-1.7,3.6-1.7,6.1c0,3,0.8,5.5,2.3,7.6c1.5,2,3.3,3.5,5.2,4.3
				c1.7,0.8,3.5,1.3,5.4,1.3c2.2,0,3.9-0.8,5-2.3s1.6-3.6,1.6-6.1c0-3-0.8-5.5-2.3-7.6c-1.5-2-3.3-3.5-5.1-4.3
				S2502.1,2240.8,2500.3,2240.8 M2503.5,2238.4c6.8,0,12.5,1.4,17,4c4.6,2.6,6.9,5.8,6.9,9.4c0,3.9-2.3,7-7.1,9.5
				c-4.7,2.6-10.3,3.9-16.8,3.9c-6.7,0-12.4-1.4-17-4s-7-5.8-7-9.4c0-3.9,2.4-7,7.2-9.5C2491.4,2239.7,2497,2238.4,2503.5,2238.4"/>
			<path d="M2602.3,2228.8c-2.3,0-3.9,0.8-4.9,2.3c-1.2,1.5-1.7,3.6-1.7,6.1c0,3,0.8,5.5,2.3,7.6c1.5,2,3.3,3.5,5.2,4.3
				c1.7,0.8,3.5,1.3,5.4,1.3c2.2,0,3.9-0.8,5-2.3s1.6-3.6,1.6-6.1c0-3-0.8-5.5-2.3-7.6c-1.5-2-3.3-3.5-5.1-4.3
				C2606,2229.1,2604.1,2228.8,2602.3,2228.8 M2605.6,2226.3c6.8,0,12.5,1.4,17,4c4.6,2.6,6.9,5.8,6.9,9.4c0,3.9-2.3,7-7.1,9.5
				c-4.7,2.6-10.3,3.9-16.8,3.9c-6.7,0-12.4-1.4-17-4s-7-5.8-7-9.4c0-3.9,2.4-7,7.2-9.5C2593.5,2227.6,2599,2226.3,2605.6,2226.3"/>
			<path d="M2704.3,2216.7c-2.3,0-3.9,0.8-4.9,2.3c-1.2,1.5-1.7,3.6-1.7,6.1c0,3,0.8,5.5,2.3,7.6c1.5,2,3.3,3.5,5.2,4.3
				c1.7,0.8,3.5,1.3,5.4,1.3c2.2,0,3.9-0.8,5-2.3s1.6-3.6,1.6-6.1c0-3-0.8-5.5-2.3-7.6c-1.5-2-3.3-3.5-5.1-4.3
				C2708,2217.1,2706.2,2216.7,2704.3,2216.7 M2707.6,2214.3c6.8,0,12.5,1.4,17,4c4.6,2.6,6.9,5.8,6.9,9.4c0,3.9-2.4,7-7.1,9.5
				c-4.7,2.6-10.3,3.9-16.8,3.9c-6.7,0-12.4-1.4-17-4s-7-5.8-7-9.4c0-3.9,2.4-7,7.2-9.5C2695.5,2215.5,2701.1,2214.3,2707.6,2214.3"
				/>
			<path d="M2806.4,2204.6c-2.2,0-3.9,0.8-4.9,2.3c-1.2,1.5-1.7,3.6-1.7,6.1c0,3,0.8,5.5,2.3,7.6c1.5,2,3.3,3.5,5.2,4.3
				c1.7,0.8,3.5,1.3,5.4,1.3c2.2,0,3.9-0.8,5-2.3s1.6-3.6,1.6-6.1c0-3-0.8-5.5-2.3-7.6c-1.5-2-3.3-3.5-5.1-4.3
				C2810.1,2205,2808.2,2204.6,2806.4,2204.6 M2809.7,2202.2c6.8,0,12.5,1.4,17,4c4.6,2.6,6.9,5.8,6.9,9.4c0,3.9-2.3,7-7.1,9.5
				c-4.7,2.6-10.3,3.9-16.8,3.9c-6.7,0-12.4-1.4-17-4s-7-5.8-7-9.4c0-3.9,2.4-7,7.2-9.5C2797.6,2203.4,2803.2,2202.2,2809.7,2202.2"
				/>
			<path d="M2908.5,2192.5c-2.3,0-3.9,0.8-4.9,2.3c-1.2,1.5-1.7,3.6-1.7,6.1c0,3,0.8,5.5,2.3,7.6c1.5,2,3.3,3.5,5.2,4.3
				c1.7,0.8,3.5,1.3,5.4,1.3c2.2,0,3.9-0.8,5-2.3s1.6-3.6,1.6-6.1c0-3-0.8-5.5-2.3-7.6c-1.5-2-3.3-3.5-5.1-4.3
				C2912.1,2192.9,2910.3,2192.5,2908.5,2192.5 M2911.7,2190.1c6.8,0,12.5,1.4,17,4c4.6,2.6,6.9,5.8,6.9,9.4c0,3.9-2.4,7-7.1,9.5
				c-4.7,2.6-10.3,3.9-16.8,3.9c-6.7,0-12.4-1.4-17-4c-4.6-2.6-7-5.8-7-9.4c0-3.9,2.4-7,7.2-9.5
				C2899.6,2191.4,2905.2,2190.1,2911.7,2190.1"/>
			<path d="M3010.6,2180.4c-2.2,0-3.9,0.8-4.9,2.3c-1.2,1.5-1.7,3.6-1.7,6.1c0,3,0.8,5.5,2.3,7.6c1.5,2,3.3,3.5,5.2,4.3
				c1.7,0.8,3.5,1.3,5.4,1.3c2.2,0,3.9-0.8,5-2.3s1.6-3.6,1.6-6.1c0-3-0.8-5.5-2.3-7.6c-1.5-2-3.3-3.5-5.1-4.3
				C3014.1,2180.8,3012.4,2180.4,3010.6,2180.4 M3013.7,2178c6.8,0,12.5,1.4,17,4c4.6,2.6,6.9,5.8,6.9,9.4c0,3.9-2.3,7-7.1,9.5
				c-4.7,2.6-10.3,3.9-16.8,3.9c-6.7,0-12.4-1.4-17-4c-4.6-2.6-7-5.8-7-9.4c0-3.9,2.4-7,7.2-9.5
				C3001.7,2179.3,3007.3,2178,3013.7,2178"/>
			<path d="M3112.6,2168.4c-2.3,0-3.9,0.8-4.9,2.3c-1.2,1.5-1.7,3.6-1.7,6.1c0,3,0.8,5.5,2.3,7.6c1.5,2,3.3,3.5,5.2,4.3
				c1.7,0.8,3.5,1.3,5.4,1.3c2.2,0,3.9-0.8,5-2.3s1.6-3.6,1.6-6.1c0-3-0.8-5.5-2.3-7.6c-1.5-2-3.3-3.5-5.1-4.3
				C3116.3,2168.8,3114.4,2168.4,3112.6,2168.4 M3115.8,2166c6.8,0,12.5,1.4,17,4c4.6,2.6,6.9,5.8,6.9,9.4c0,3.9-2.3,7-7.1,9.5
				c-4.7,2.6-10.3,3.9-16.8,3.9c-6.7,0-12.4-1.4-17-4c-4.6-2.6-7-5.8-7-9.4c0-3.9,2.4-7,7.2-9.5
				C3103.7,2167.2,3109.3,2166,3115.8,2166"/>
			<path d="M3214.6,2156.3c-2.2,0-3.9,0.8-4.9,2.3c-1.2,1.5-1.7,3.6-1.7,6.1c0,3,0.8,5.5,2.3,7.6c1.5,2,3.3,3.5,5.2,4.3
				c1.7,0.8,3.5,1.3,5.4,1.3c2.2,0,3.9-0.8,5-2.3s1.6-3.6,1.6-6.1c0-3-0.8-5.5-2.3-7.6c-1.5-2-3.3-3.5-5.1-4.3
				C3218.3,2156.7,3216.5,2156.3,3214.6,2156.3 M3217.8,2153.9c6.8,0,12.5,1.4,17,4c4.6,2.6,6.9,5.8,6.9,9.4c0,3.9-2.3,7-7.1,9.5
				c-4.7,2.6-10.3,3.9-16.8,3.9c-6.7,0-12.4-1.4-17-4c-4.6-2.6-7-5.8-7-9.4c0-3.9,2.4-7,7.2-9.5
				C3205.7,2155.1,3211.3,2153.9,3217.8,2153.9"/>
			<path d="M3316.7,2144.2c-2.2,0-3.9,0.8-4.9,2.3c-1.2,1.5-1.7,3.6-1.7,6.1c0,3,0.8,5.5,2.3,7.6c1.5,2,3.3,3.5,5.2,4.3
				c1.7,0.8,3.5,1.3,5.4,1.3c2.2,0,3.9-0.8,5-2.3s1.6-3.6,1.6-6.1c0-3-0.8-5.5-2.3-7.6c-1.5-2-3.3-3.5-5.1-4.3
				C3320.3,2144.6,3318.5,2144.2,3316.7,2144.2 M3319.9,2141.8c6.8,0,12.5,1.4,17,4c4.6,2.6,6.9,5.8,6.9,9.4c0,3.9-2.3,7-7.1,9.5
				c-4.7,2.6-10.3,3.9-16.8,3.9c-6.7,0-12.4-1.4-17-4c-4.6-2.6-7-5.8-7-9.4c0-3.9,2.4-7,7.2-9.5
				C3307.8,2143.1,3313.4,2141.8,3319.9,2141.8"/>
			<path d="M3418.7,2132.1c-2.2,0-3.9,0.8-4.9,2.3c-1.2,1.5-1.7,3.6-1.7,6.1c0,3,0.8,5.5,2.3,7.6c1.5,2,3.3,3.5,5.2,4.3
				c1.7,0.8,3.5,1.3,5.4,1.3c2.2,0,3.9-0.8,5-2.3s1.6-3.6,1.6-6.1c0-3-0.8-5.5-2.3-7.6c-1.5-2-3.3-3.5-5.1-4.3
				C3422.4,2132.5,3420.5,2132.1,3418.7,2132.1 M3421.9,2129.7c6.8,0,12.5,1.4,17,4c4.6,2.6,6.9,5.8,6.9,9.4c0,3.9-2.3,7-7.1,9.5
				c-4.7,2.6-10.3,3.9-16.8,3.9c-6.7,0-12.4-1.4-17-4c-4.6-2.6-7-5.8-7-9.4c0-3.9,2.4-7,7.2-9.5
				C3409.8,2131,3415.4,2129.7,3421.9,2129.7"/>
			<path d="M3520.7,2120.1c-2.2,0-3.9,0.8-4.9,2.3c-1.2,1.5-1.7,3.6-1.7,6.1c0,3,0.8,5.5,2.3,7.6c1.5,2,3.3,3.5,5.2,4.3
				c1.7,0.8,3.5,1.3,5.4,1.3c2.2,0,3.9-0.8,5-2.3s1.6-3.6,1.6-6.1c0-3-0.8-5.5-2.3-7.6c-1.5-2-3.3-3.5-5.1-4.3
				C3524.4,2120.4,3522.6,2120.1,3520.7,2120.1 M3523.9,2117.6c6.8,0,12.5,1.4,17,4c4.6,2.6,6.9,5.8,6.9,9.4c0,3.9-2.3,7-7.1,9.5
				c-4.7,2.6-10.3,3.9-16.8,3.9c-6.7,0-12.4-1.4-17-4c-4.6-2.6-7-5.8-7-9.4c0-3.9,2.4-7,7.2-9.5
				C3511.9,2118.9,3517.5,2117.6,3523.9,2117.6"/>
			<path d="M3622.8,2108c-2.2,0-3.9,0.8-4.9,2.3c-1.2,1.5-1.7,3.6-1.7,6.1c0,3,0.8,5.5,2.3,7.6c1.5,2,3.3,3.5,5.2,4.3
				c1.7,0.8,3.5,1.3,5.4,1.3c2.2,0,3.9-0.8,5-2.3s1.6-3.6,1.6-6.1c0-3-0.8-5.5-2.3-7.6c-1.5-2-3.3-3.5-5.1-4.3
				C3626.5,2108.4,3624.6,2108,3622.8,2108 M3626,2105.6c6.8,0,12.5,1.4,17,4c4.6,2.6,6.9,5.8,6.9,9.4c0,3.9-2.3,7-7.1,9.5
				c-4.7,2.6-10.3,3.9-16.8,3.9c-6.7,0-12.4-1.4-17-4c-4.6-2.6-7-5.8-7-9.4c0-3.9,2.4-7,7.2-9.5
				C3613.9,2106.8,3619.5,2105.6,3626,2105.6"/>
			<path d="M3724.8,2095.9c-2.2,0-3.9,0.8-4.9,2.3c-1.2,1.5-1.7,3.6-1.7,6.1c0,3,0.8,5.5,2.3,7.6c1.5,2,3.3,3.5,5.2,4.3
				c1.7,0.8,3.5,1.3,5.4,1.3c2.2,0,3.9-0.8,5-2.3s1.6-3.6,1.6-6.1c0-3-0.8-5.5-2.3-7.6c-1.5-2-3.3-3.5-5.1-4.3
				C3728.5,2096.3,3726.7,2095.9,3724.8,2095.9 M3728.1,2093.5c6.8,0,12.5,1.4,17,4c4.6,2.6,6.9,5.8,6.9,9.4c0,3.9-2.3,7-7.1,9.5
				c-4.7,2.6-10.3,3.9-16.8,3.9c-6.7,0-12.4-1.4-17-4c-4.6-2.6-7-5.8-7-9.4c0-3.9,2.4-7,7.2-9.5
				C3716,2094.7,3721.6,2093.5,3728.1,2093.5"/>
			<path d="M3827,2083.8c-2.2,0-3.9,0.8-4.9,2.3c-1.2,1.5-1.7,3.6-1.7,6.1c0,3,0.8,5.5,2.3,7.6c1.5,2,3.3,3.5,5.2,4.3
				c1.7,0.8,3.5,1.3,5.4,1.3c2.2,0,3.9-0.8,5-2.3s1.6-3.6,1.6-6.1c0-3-0.8-5.5-2.3-7.6c-1.5-2-3.3-3.5-5.1-4.3
				C3830.5,2084.2,3828.7,2083.8,3827,2083.8 M3830.1,2081.4c6.8,0,12.5,1.4,17,4c4.6,2.6,6.9,5.8,6.9,9.4c0,3.9-2.3,7-7.1,9.5
				c-4.7,2.6-10.3,3.9-16.8,3.9c-6.7,0-12.4-1.4-17-4c-4.6-2.6-7-5.8-7-9.4c0-3.9,2.4-7,7.2-9.5
				C3818.1,2082.7,3823.7,2081.4,3830.1,2081.4"/>
			<path d="M3929,2071.7c-2.2,0-3.9,0.8-4.9,2.3c-1.2,1.5-1.7,3.6-1.7,6.1c0,3,0.8,5.5,2.4,7.6c1.5,2,3.3,3.5,5.2,4.3
				c1.7,0.8,3.5,1.3,5.4,1.3c2.2,0,3.9-0.8,5-2.3s1.6-3.6,1.6-6.1c0-3-0.8-5.5-2.3-7.6c-1.5-2-3.3-3.5-5.1-4.3
				C3932.6,2072.1,3930.7,2071.7,3929,2071.7 M3932.2,2069.3c6.8,0,12.5,1.4,17,4c4.6,2.6,6.9,5.8,6.9,9.4c0,3.9-2.3,7-7.1,9.5
				c-4.7,2.6-10.3,3.9-16.8,3.9c-6.7,0-12.4-1.4-17-4c-4.6-2.6-7-5.8-7-9.4c0-3.9,2.4-7,7.2-9.5
				C3920.1,2070.6,3925.7,2069.3,3932.2,2069.3"/>
			<path d="M4031,2059.7c-2.2,0-3.9,0.8-4.9,2.3c-1.2,1.5-1.7,3.6-1.7,6.1c0,3,0.8,5.5,2.3,7.6c1.5,2,3.3,3.5,5.2,4.3
				c1.7,0.8,3.5,1.3,5.4,1.3c2.2,0,3.9-0.8,5-2.3s1.6-3.6,1.6-6.1c0-3-0.8-5.5-2.3-7.6c-1.5-2-3.3-3.5-5.1-4.3
				C4034.6,2060.1,4032.9,2059.7,4031,2059.7 M4034.2,2057.3c6.8,0,12.5,1.4,17,4c4.6,2.6,6.9,5.8,6.9,9.4c0,3.9-2.3,7-7.1,9.5
				c-4.7,2.6-10.3,3.9-16.8,3.9c-6.7,0-12.4-1.4-17-4c-4.6-2.6-7-5.8-7-9.4c0-3.9,2.4-7,7.1-9.5
				C4022.1,2058.5,4027.7,2057.3,4034.2,2057.3"/>
			<path d="M4133.1,2047.6c-2.2,0-3.9,0.8-4.9,2.3c-1.2,1.5-1.7,3.6-1.7,6.1c0,3,0.8,5.5,2.4,7.6c1.5,2,3.3,3.5,5.2,4.3
				c1.7,0.8,3.5,1.3,5.4,1.3c2.2,0,3.9-0.8,5-2.3s1.6-3.6,1.6-6.1c0-3-0.8-5.5-2.3-7.6c-1.5-2-3.3-3.5-5.1-4.3
				C4136.7,2048,4134.9,2047.6,4133.1,2047.6 M4136.3,2045.2c6.8,0,12.5,1.4,17,4c4.6,2.6,6.9,5.8,6.9,9.4c0,3.9-2.3,7-7.1,9.5
				c-4.7,2.6-10.3,3.9-16.8,3.9c-6.7,0-12.4-1.4-17-4c-4.6-2.6-7-5.8-7-9.4c0-3.9,2.4-7,7.2-9.5
				C4124.2,2046.4,4129.8,2045.2,4136.3,2045.2"/>
			<path d="M4235.1,2035.5c-2.2,0-3.9,0.8-4.9,2.3c-1.2,1.5-1.7,3.6-1.7,6.1c0,3,0.8,5.5,2.4,7.6c1.5,2,3.3,3.5,5.2,4.3
				c1.7,0.8,3.5,1.3,5.4,1.3c2.2,0,3.9-0.8,5-2.3s1.6-3.6,1.6-6.1c0-3-0.8-5.5-2.3-7.6c-1.5-2-3.3-3.5-5.1-4.3
				C4238.8,2035.9,4236.9,2035.5,4235.1,2035.5 M4238.3,2033.1c6.8,0,12.5,1.4,17,4c4.6,2.6,6.9,5.8,6.9,9.4c0,3.9-2.3,7-7.1,9.5
				c-4.7,2.6-10.3,3.9-16.8,3.9c-6.7,0-12.4-1.4-17-4c-4.6-2.6-7-5.8-7-9.4c0-3.9,2.4-7,7.2-9.5
				C4226.2,2034.4,4231.8,2033.1,4238.3,2033.1"/>
			<path d="M4337.1,2023.4c-2.2,0-3.9,0.8-4.9,2.3c-1.2,1.5-1.7,3.6-1.7,6.1c0,3,0.8,5.5,2.4,7.6c1.5,2,3.3,3.5,5.2,4.3
				c1.7,0.8,3.5,1.3,5.4,1.3c2.2,0,3.9-0.8,5-2.3s1.6-3.6,1.6-6.1c0-3-0.8-5.5-2.3-7.6c-1.5-2-3.3-3.5-5.1-4.3
				C4340.8,2023.8,4339,2023.4,4337.1,2023.4 M4340.3,2021c6.8,0,12.5,1.4,17,4c4.6,2.6,6.9,5.8,6.9,9.4c0,3.9-2.3,7-7.1,9.5
				c-4.7,2.6-10.3,3.9-16.8,3.9c-6.7,0-12.4-1.4-17-4s-7-5.8-7-9.4c0-3.9,2.4-7,7.1-9.5C4328.3,2022.3,4333.9,2021,4340.3,2021"/>
			<path d="M4439.2,2011.4c-2.2,0-3.9,0.8-4.9,2.3c-1.2,1.5-1.7,3.6-1.7,6.1c0,3,0.8,5.5,2.3,7.6c1.5,2,3.3,3.5,5.2,4.3
				c1.7,0.8,3.5,1.3,5.4,1.3c2.2,0,3.9-0.8,5-2.3s1.6-3.6,1.6-6.1c0-3-0.8-5.5-2.3-7.6c-1.5-2-3.3-3.5-5.1-4.3
				C4442.8,2011.7,4441,2011.4,4439.2,2011.4 M4442.4,2008.9c6.8,0,12.5,1.4,17,4c4.6,2.6,6.9,5.8,6.9,9.4c0,3.9-2.3,7-7.1,9.5
				c-4.7,2.6-10.3,3.9-16.8,3.9c-6.7,0-12.4-1.4-17-4s-7-5.8-7-9.4c0-3.9,2.4-7,7.2-9.5C4430.3,2010.2,4435.9,2008.9,4442.4,2008.9"
				/>
			<path d="M4541.2,1999.3c-2.2,0-3.9,0.8-4.9,2.3c-1.2,1.5-1.7,3.6-1.7,6.1c0,3,0.8,5.5,2.4,7.6c1.5,2,3.3,3.5,5.2,4.3
				c1.7,0.8,3.5,1.3,5.4,1.3c2.2,0,3.9-0.8,5-2.3s1.6-3.6,1.6-6.1c0-3-0.8-5.5-2.3-7.6c-1.5-2-3.3-3.5-5.1-4.3
				C4544.9,1999.7,4543.1,1999.3,4541.2,1999.3 M4544.4,1996.9c6.8,0,12.5,1.4,17,4c4.6,2.6,6.9,5.8,6.9,9.4c0,3.9-2.3,7-7.1,9.5
				c-4.7,2.6-10.3,3.9-16.8,3.9c-6.7,0-12.4-1.4-17-4s-7-5.8-7-9.4c0-3.9,2.4-7,7.2-9.5C4532.3,1998.1,4537.9,1996.9,4544.4,1996.9"
				/>
			<path d="M4643.3,1987.2c-2.2,0-3.9,0.8-4.9,2.3c-1.2,1.5-1.7,3.6-1.7,6.1c0,3,0.8,5.5,2.4,7.6c1.5,2,3.3,3.5,5.2,4.3
				c1.7,0.8,3.5,1.3,5.4,1.3c2.2,0,3.9-0.8,5-2.3s1.6-3.6,1.6-6.1c0-3-0.8-5.5-2.3-7.6c-1.5-2-3.3-3.5-5.1-4.3
				C4646.9,1987.6,4645.1,1987.2,4643.3,1987.2 M4646.4,1984.8c6.8,0,12.5,1.4,17,4c4.6,2.6,6.9,5.8,6.9,9.4c0,3.9-2.3,7-7.1,9.5
				c-4.7,2.6-10.3,3.9-16.8,3.9c-6.7,0-12.4-1.4-17-4s-7-5.8-7-9.4c0-3.9,2.4-7,7.2-9.5C4634.5,1986,4640,1984.8,4646.4,1984.8"/>
			<path d="M4745.3,1975.1c-2.2,0-3.9,0.8-4.9,2.3c-1.2,1.5-1.7,3.6-1.7,6.1c0,3,0.8,5.5,2.3,7.6c1.5,2,3.3,3.5,5.2,4.3
				c1.7,0.8,3.5,1.3,5.4,1.3c2.2,0,3.9-0.8,5-2.3s1.6-3.6,1.6-6.1c0-3-0.8-5.5-2.3-7.6c-1.5-2-3.3-3.5-5.1-4.3
				C4749,1975.5,4747.1,1975.1,4745.3,1975.1 M4748.6,1972.7c6.8,0,12.5,1.4,17,4c4.6,2.6,6.9,5.8,6.9,9.4c0,3.9-2.3,7-7.1,9.5
				c-4.7,2.6-10.3,3.9-16.8,3.9c-6.7,0-12.4-1.4-17-4s-7-5.8-7-9.4c0-3.9,2.4-7,7.2-9.5C4736.5,1974,4742.1,1972.7,4748.6,1972.7"/>
			<path d="M4847.3,1963c-2.2,0-3.9,0.8-4.9,2.3c-1.2,1.5-1.7,3.6-1.7,6.1c0,3,0.8,5.5,2.3,7.6c1.5,2,3.3,3.5,5.2,4.3
				c1.7,0.8,3.5,1.3,5.4,1.3c2.2,0,3.9-0.8,5-2.3s1.6-3.6,1.6-6.1c0-3-0.8-5.5-2.3-7.6c-1.5-2-3.3-3.5-5.1-4.3
				C4851,1963.4,4849.2,1963,4847.3,1963 M4850.6,1960.6c6.8,0,12.5,1.4,17,4c4.6,2.6,6.9,5.8,6.9,9.4c0,3.9-2.3,7-7.1,9.5
				c-4.7,2.6-10.3,3.9-16.8,3.9c-6.7,0-12.4-1.4-17-4s-7-5.8-7-9.4c0-3.9,2.4-7,7.2-9.5C4838.5,1961.9,4844.1,1960.6,4850.6,1960.6"
				/>
			<path d="M4949.5,1951c-2.2,0-3.9,0.8-4.9,2.3c-1.2,1.5-1.7,3.6-1.7,6.1c0,3,0.8,5.5,2.3,7.6c1.5,2,3.3,3.5,5.2,4.3
				c1.7,0.8,3.5,1.3,5.4,1.3c2.2,0,3.9-0.8,5-2.3s1.6-3.6,1.6-6.1c0-3-0.8-5.5-2.3-7.6c-1.5-2-3.3-3.5-5.1-4.3
				C4953,1951.3,4951.2,1951,4949.5,1951 M4952.7,1948.5c6.8,0,12.5,1.4,17,4c4.6,2.6,6.9,5.8,6.9,9.4c0,3.9-2.3,7-7.1,9.5
				c-4.7,2.6-10.3,3.9-16.8,3.9c-6.7,0-12.4-1.4-17-4s-7-5.8-7-9.4c0-3.9,2.4-7,7.2-9.5C4940.6,1949.8,4946.2,1948.5,4952.7,1948.5"
				/>
			<path d="M5051.5,1938.9c-2.2,0-3.9,0.8-4.9,2.3c-1.2,1.5-1.7,3.6-1.7,6.1c0,3,0.8,5.5,2.3,7.6c1.5,2,3.3,3.5,5.2,4.3
				c1.7,0.8,3.5,1.3,5.4,1.3c2.2,0,3.9-0.8,5-2.3s1.6-3.6,1.6-6.1c0-3-0.8-5.5-2.3-7.6c-1.5-2-3.3-3.5-5.1-4.3
				C5055.1,1939.3,5053.3,1938.9,5051.5,1938.9 M5054.7,1936.5c6.8,0,12.5,1.4,17,4c4.6,2.6,6.9,5.8,6.9,9.4c0,3.9-2.3,7-7.1,9.5
				c-4.7,2.6-10.3,3.9-16.8,3.9c-6.7,0-12.4-1.4-17-4s-7-5.8-7-9.4c0-3.9,2.4-7,7.2-9.5C5042.6,1937.7,5048.2,1936.5,5054.7,1936.5"
				/>
			<path d="M5153.5,1926.8c-2.2,0-3.9,0.8-4.9,2.3c-1.2,1.5-1.7,3.6-1.7,6.1c0,3,0.8,5.5,2.3,7.6c1.5,2,3.3,3.5,5.2,4.3
				c1.7,0.8,3.5,1.3,5.4,1.3c2.2,0,3.9-0.8,5-2.3s1.6-3.6,1.6-6.1c0-3-0.8-5.5-2.3-7.6c-1.5-2-3.3-3.5-5.1-4.3
				C5157.2,1927.2,5155.4,1926.8,5153.5,1926.8 M5156.7,1924.4c6.8,0,12.5,1.4,17,4c4.6,2.6,6.9,5.8,6.9,9.4c0,3.9-2.3,7-7.1,9.5
				c-4.7,2.6-10.3,3.9-16.8,3.9c-6.7,0-12.4-1.4-17-4s-7-5.8-7-9.4c0-3.9,2.4-7,7.1-9.5C5144.6,1925.6,5150.3,1924.4,5156.7,1924.4"
				/>
			<path d="M5255.6,1914.7c-2.2,0-3.9,0.8-4.9,2.3c-1.2,1.5-1.7,3.6-1.7,6.1c0,3,0.8,5.5,2.3,7.6c1.5,2,3.3,3.5,5.2,4.3
				c1.7,0.8,3.5,1.3,5.4,1.3c2.2,0,3.9-0.8,5-2.3s1.6-3.6,1.6-6.1c0-3-0.8-5.5-2.3-7.6c-1.5-2-3.3-3.5-5.1-4.3
				C5259.2,1915.1,5257.4,1914.7,5255.6,1914.7 M5258.8,1912.3c6.8,0,12.5,1.4,17,4c4.6,2.6,6.9,5.8,6.9,9.4c0,3.9-2.3,7-7.1,9.5
				c-4.7,2.6-10.3,3.9-16.8,3.9c-6.7,0-12.4-1.4-17-4s-7-5.8-7-9.4c0-3.9,2.4-7,7.2-9.5C5246.7,1913.6,5252.3,1912.3,5258.8,1912.3"
				/>
			<path d="M5357.6,1902.6c-2.2,0-3.9,0.8-4.9,2.3c-1.2,1.5-1.7,3.6-1.7,6.1c0,3,0.8,5.5,2.3,7.6c1.5,2,3.3,3.5,5.2,4.3
				c1.7,0.8,3.5,1.3,5.4,1.3c2.2,0,3.9-0.8,5-2.3s1.6-3.6,1.6-6.1c0-3-0.8-5.5-2.3-7.6c-1.5-2-3.3-3.5-5.1-4.3
				C5361.3,1903,5359.5,1902.6,5357.6,1902.6 M5360.8,1900.2c6.8,0,12.5,1.4,17,4c4.6,2.6,6.9,5.8,6.9,9.4c0,3.9-2.3,7-7.1,9.5
				c-4.7,2.6-10.3,3.9-16.8,3.9c-6.7,0-12.4-1.4-17-4s-7-5.8-7-9.4c0-3.9,2.4-7,7.2-9.5C5348.7,1901.5,5354.3,1900.2,5360.8,1900.2"
				/>
			<path d="M5459.7,1890.6c-2.2,0-3.9,0.8-4.9,2.3c-1.2,1.5-1.7,3.6-1.7,6.1c0,3,0.8,5.5,2.3,7.6c1.5,2,3.3,3.5,5.2,4.3
				c1.7,0.8,3.5,1.3,5.4,1.3c2.2,0,3.9-0.8,5-2.3s1.6-3.6,1.6-6.1c0-3-0.8-5.5-2.3-7.6c-1.5-2-3.3-3.5-5.1-4.3
				C5463.3,1891,5461.5,1890.6,5459.7,1890.6 M5462.8,1888.2c6.8,0,12.5,1.4,17,4c4.6,2.6,6.9,5.8,6.9,9.4c0,3.9-2.3,7-7.1,9.5
				c-4.7,2.6-10.3,3.9-16.8,3.9c-6.7,0-12.4-1.4-17-4s-7-5.8-7-9.4c0-3.9,2.4-7,7.1-9.5C5450.8,1889.4,5456.4,1888.2,5462.8,1888.2"
				/>
			<path d="M225.2,2388.1c-1-1-1.4-2.1-1.4-3.5s0.5-2.5,1.4-3.5c1-1,2.1-1.4,3.5-1.4s2.5,0.5,3.5,1.4c1,1,1.4,2.1,1.4,3.5
				s-0.5,2.5-1.4,3.5c-1,1-2.1,1.4-3.5,1.4S226.2,2389.1,225.2,2388.1 M225.2,2412.3c-1-1-1.4-2.1-1.4-3.5s0.5-2.5,1.4-3.5
				c1-1,2.1-1.4,3.5-1.4s2.5,0.5,3.5,1.4c1,1,1.4,2.1,1.4,3.5s-0.5,2.5-1.4,3.5c-1,1-2.1,1.4-3.5,1.4
				C227.3,2413.6,226.2,2413.2,225.2,2412.3 M192.5,2371.3c8.4,0,15.3,2.1,20.6,6.3c5.1,4.4,7.7,10.3,7.7,18c0,5.1-1,9.8-3,14
				c-1.9,4.4-4.3,8.3-7.4,11.7c-3.2,3.5-7,6.8-11.4,9.9c-4.3,3-8.8,5.7-13.4,8.1c-9.4,4.7-14.5,7.1-15.5,7.1c-0.8,0-1.3-0.4-1.3-1.3
				c0-0.3,0.1-0.6,0.4-0.9c3.2-1.9,7.2-4.3,11.8-7.2c3-1.9,6.6-4.6,10.5-8.1c3.9-3.3,7-6.4,9.1-9.3c2.2-2.8,4.3-6.4,6.1-10.5
				c1.5-4.3,2.3-8.4,2.3-12.5c0-6.1-1.5-11.4-4.5-15.9s-7.1-6.8-12-6.8c-3.5,0-6.6,1.2-9.1,3.4c-2.7,2.3-4.6,5.2-5.9,8.8
				c1.2-0.5,2.3-0.8,3.3-0.8c2.6,0,4.9,1,6.8,2.8c1.9,2,2.8,4.3,2.8,6.9c0,2.7-0.9,5.1-2.7,7.2c-1.9,1.9-4.3,2.9-6.9,2.9
				c-2.8,0-5.4-1-7.6-2.9c-2.1-2.1-3.2-4.5-3.2-7.2c0-6.5,2.2-12,6.6-16.6C180.9,2373.6,186.3,2371.3,192.5,2371.3"/>
			<path d="M205.5,2166.6c0,0,0.2,0,0.6,0c0.3-0.1,0.5-0.1,0.7-0.1c7.1,0,12.9,2.5,17.4,7.4c4.5,4.9,6.8,10.6,6.8,17.2
				c0,8.1-3.4,14.7-10,19.8c-1.7,1.4-4.1,2.5-6.9,3.4c0.3,4.1,0.5,7.4,0.5,10c0,0.5-0.1,2.3-0.2,5.5c-0.3,5.9-2.2,10.9-6,15.2
				c-3.7,4.3-8.2,6.3-13.6,6.3c-5.1,0-9.5-1.8-13-5.4c-3.6-3.7-5.4-8-5.4-13.2c0-2.7,1.1-5,3.1-6.9c2.1-1.9,4.6-2.8,7.4-2.8
				c2.5,0,4.6,1,6.3,2.9c1.7,1.8,2.6,4.1,2.6,6.8c0,2.4-0.9,4.5-2.6,6.3c-1.7,1.7-3.9,2.6-6.3,2.6c-1,0-2-0.2-2.9-0.6
				c2.8,4.1,6.5,6.1,11,6.1c4.3,0,7.9-1.7,10.6-5.3c2.9-3.7,4.4-7.9,4.7-12.8c0.1-3,0.2-4.7,0.2-5.2c0-3.5-0.1-6.4-0.4-8.7
				c-3.2,0.5-6,0.8-8.4,0.8c-8.7,0-16.2-3.5-22.3-10.3c-6-7-9.1-15.3-9.1-24.9c0-2,0.2-4.1,0.6-6.1c0.4-1.7,0.9-3.6,1.4-5.6
				c0.3-1.2,1.2-3,2.5-5.5c0.5-0.8,1.1-1.7,1.7-2.8c0.7-1.2,1.1-1.9,1.4-2.2c0.7-1.3,1.8-3,3.7-5.1c0.5-0.6,1.1-1.2,1.5-1.9
				c0.6-0.7,1-1.3,1.4-1.7c0.4-0.5,0.7-0.8,0.9-1.1c0.2-0.3,1.6-1.9,4.3-5c0.7-0.7,1.3-1.4,1.8-2c0.6-0.7,1.1-1.3,1.4-1.7
				c0.4-0.4,0.7-0.7,0.9-0.9c-2.2-7.4-3.7-13.4-4.3-18c-0.5-3.6-0.7-8.5-0.7-14.7c0-5.5,1.3-10.6,3.8-15.4c2.4-4.9,5.9-9,10.2-12.2
				c0.3-0.2,0.6-0.3,1-0.3c0.5,0,0.8,0.1,1,0.3c3.4,4.1,6.3,9.4,8.8,15.9c2.5,6.6,3.8,12.5,3.8,17.9c0,6-1.4,11.7-4.3,17
				c-3.3,5.6-7.4,11.4-12.7,17.4C201.5,2151.2,203.3,2157.7,205.5,2166.6 M213.5,2210.5c3.3-1.2,5.8-3.3,7.6-6.1c2-2.8,3-5.9,3-9.4
				c0-4.4-1.5-8.4-4.5-11.9c-3.1-3.6-7.1-5.6-11.8-6C210.6,2190.3,212.4,2201.5,213.5,2210.5 M177,2188.7c0,6.2,2.5,11.7,7.5,16.4
				c5.1,4.6,10.9,6.9,17.4,6.9c2.6,0,5.2-0.2,7.7-0.6c-1-9.6-3-21-6-34.3c-3.6,0.4-6.5,1.6-8.6,3.8c-2,2.2-3.1,4.7-3.1,7.4
				c0,4.7,2.5,8.7,7.6,11.6c0.5,0.5,0.7,0.9,0.7,1.4s-0.2,1-0.7,1.4c-0.4,0.5-0.9,0.7-1.4,0.7c-0.1,0-0.4-0.1-0.9-0.2
				c-3.6-1.9-6.4-4.4-8.3-7.5c-1.8-3.3-2.7-6.6-2.7-10c0-4.3,1.4-8.3,4.1-11.8c2.8-3.5,6.5-5.8,11-6.8c-1.7-7.1-3.2-12.6-4.3-16.5
				c-1,1.2-2.2,2.5-3.7,4.1c-1.4,1.6-2.2,2.6-2.5,2.9c-2.2,3-4,5.2-5.2,6.9c-2.1,3-3.7,5.5-4.7,7.6c-1.1,2.4-2,5-2.8,7.8
				C177.5,2182.7,177,2185.6,177,2188.7 M208.6,2092.7c-4.7,2.3-8.4,5.7-11.1,10c-2.8,4.4-4.2,9.3-4.2,14.4c0,4.5,1.2,10.6,3.4,18.3
				c4.5-5.5,7.9-10.5,10.1-15.2c2.4-4.9,3.6-10,3.6-15.4C210.4,2100.8,209.8,2096.8,208.6,2092.7"/>
			<path class="st4" d="M135.5,2243.5c0-28.2-19.4-55.7-19.4-82.7c0-13.6,5.3-26.9,21.6-38.7c0.2-0.2,0.3-0.4,0.3-0.6
				c0-0.5-1.3-0.9-2.1-0.9c-0.5,0-1.3,0.1-1.7,0.4c-21.2,15.2-28.3,32.8-28.3,50.5c0,28.6,20.8,56.2,20.8,83.7
				c0,13.6-5.3,26.5-21.6,38.3v0.4v0.4c16.3,11.9,21.6,24.6,21.6,38.3c0,27.4-20.8,55.1-20.8,83.7c0,17.8,7.1,35.4,28.3,50.5
				c0.6,0.4,1.4,0.4,1.7,0.4c0.9,0,2.1-0.4,2.1-0.9c0-0.2-0.1-0.4-0.3-0.6c-16.3-11.9-21.6-25-21.6-38.7c0-27.1,19.4-54.5,19.4-82.7
				c0-18-7.1-35.2-27.8-50.5C128.5,2278.6,135.5,2261.4,135.5,2243.5"/>
		</g>
	</g>
</g>
<g id="_x38_8键图层">
	<g id="_x38_8键_1_">
		<g id="_x38__3_">
			<g id="_x31_Key_1_">
				<g id="C_17_">
					<rect x="5411.8" y="1298.9" class="st5" width="102" height="566.9"/>
				</g>
			</g>
		</g>
		<g id="_x37__3_">
			<g id="_x31_2Keys_13_">
				<rect id="B_15_" x="5309.8" y="1298.9" class="st5" width="102" height="566.9"/>
				<rect id="A_15_" x="5207.7" y="1298.9" class="st5" width="102" height="566.9"/>
				<rect id="G_13_" x="5105.7" y="1298.9" class="st5" width="102" height="566.9"/>
				<rect id="F_13_" x="5003.6" y="1298.9" class="st5" width="102" height="566.9"/>
				<rect id="E_13_" x="4901.6" y="1298.9" class="st5" width="102" height="566.9"/>
				<rect id="D_13_" x="4799.5" y="1298.9" class="st5" width="102" height="566.9"/>
				<g id="C_16_">
					<rect x="4697.5" y="1298.9" class="st5" width="102" height="566.9"/>
				</g>
				<rect id="A_x266F_B_x266D__15_" x="5289.9" y="1298.9" class="st6" width="59.5" height="368.5"/>
				<rect id="G_x266F_A_x266D__13_" x="5170.9" y="1298.9" class="st6" width="59.5" height="368.5"/>
				<rect id="F_x266F_G_x266D__13_" x="4873.3" y="1298.9" class="st6" width="59.5" height="368.5"/>
				<rect id="D_x266F_E_x266D__13_" x="5051.8" y="1298.9" class="st6" width="59.5" height="368.5"/>
				<rect id="C_x266F_D_x266D__13_" x="4754.2" y="1298.9" class="st6" width="59.5" height="368.5"/>
			</g>
		</g>
		<g id="_x36__3_">
			<g id="_x31_2Keys_12_">
				<rect id="B_14_" x="4595.5" y="1298.9" class="st5" width="102" height="566.9"/>
				<rect id="A_14_" x="4493.4" y="1298.9" class="st5" width="102" height="566.9"/>
				<rect id="G_12_" x="4391.4" y="1298.9" class="st5" width="102" height="566.9"/>
				<rect id="F_12_" x="4289.3" y="1298.9" class="st5" width="102" height="566.9"/>
				<rect id="E_12_" x="4187.3" y="1298.9" class="st5" width="102" height="566.9"/>
				<rect id="D_12_" x="4085.2" y="1298.9" class="st5" width="102" height="566.9"/>
				<g id="C_15_">
					<rect x="3983.2" y="1298.9" class="st5" width="102" height="566.9"/>
				</g>
				<rect id="A_x266F_B_x266D__14_" x="4575.6" y="1298.9" class="st6" width="59.5" height="368.5"/>
				<rect id="G_x266F_A_x266D__12_" x="4456.6" y="1298.9" class="st6" width="59.5" height="368.5"/>
				<rect id="F_x266F_G_x266D__12_" x="4159" y="1298.9" class="st6" width="59.5" height="368.5"/>
				<rect id="D_x266F_E_x266D__12_" x="4337.5" y="1298.9" class="st6" width="59.5" height="368.5"/>
				<rect id="C_x266F_D_x266D__12_" x="4039.9" y="1298.9" class="st6" width="59.5" height="368.5"/>
			</g>
		</g>
		<g id="_x35__3_">
			<g id="_x31_2Keys_11_">
				<rect id="B_13_" x="3881.2" y="1298.9" class="st5" width="102" height="566.9"/>
				<rect id="A_13_" x="3779.1" y="1298.9" class="st5" width="102" height="566.9"/>
				<rect id="G_11_" x="3677.1" y="1298.9" class="st5" width="102" height="566.9"/>
				<rect id="F_11_" x="3575" y="1298.9" class="st5" width="102" height="566.9"/>
				<rect id="E_11_" x="3473" y="1298.9" class="st5" width="102" height="566.9"/>
				<rect id="D_11_" x="3370.9" y="1298.9" class="st5" width="102" height="566.9"/>
				<g id="C_14_">
					<rect x="3268.9" y="1298.9" class="st5" width="102" height="566.9"/>
				</g>
				<rect id="A_x266F_B_x266D__13_" x="3861.3" y="1298.9" class="st6" width="59.5" height="368.5"/>
				<rect id="G_x266F_A_x266D__11_" x="3742.3" y="1298.9" class="st6" width="59.5" height="368.5"/>
				<rect id="F_x266F_G_x266D__11_" x="3444.7" y="1298.9" class="st6" width="59.5" height="368.5"/>
				<rect id="D_x266F_E_x266D__11_" x="3623.2" y="1298.9" class="st6" width="59.5" height="368.5"/>
				<rect id="C_x266F_D_x266D__11_" x="3325.6" y="1298.9" class="st6" width="59.5" height="368.5"/>
			</g>
		</g>
		<g id="_x34__3_">
			<g id="_x31_2Keys_10_">
				<rect id="B_12_" x="3166.8" y="1298.9" class="st5" width="102" height="566.9"/>
				<rect id="A_12_" x="3064.7" y="1298.9" class="st5" width="102" height="566.9"/>
				<rect id="G_10_" x="2962.7" y="1298.9" class="st5" width="102" height="566.9"/>
				<rect id="F_10_" x="2860.6" y="1298.9" class="st5" width="102" height="566.9"/>
				<rect id="E_10_" x="2758.6" y="1298.9" class="st5" width="102" height="566.9"/>
				<rect id="D_10_" x="2656.5" y="1298.9" class="st5" width="102" height="566.9"/>
				<g id="C_13_">
					<rect x="2554.5" y="1298.9" class="st5" width="102" height="566.9"/>
				</g>
				<rect id="A_x266F_B_x266D__12_" x="3146.9" y="1298.9" class="st6" width="59.5" height="368.5"/>
				<rect id="G_x266F_A_x266D__10_" x="3027.9" y="1298.9" class="st6" width="59.5" height="368.5"/>
				<rect id="F_x266F_G_x266D__10_" x="2730.3" y="1298.9" class="st6" width="59.5" height="368.5"/>
				<rect id="D_x266F_E_x266D__10_" x="2908.8" y="1298.9" class="st6" width="59.5" height="368.5"/>
				<rect id="C_x266F_D_x266D__10_" x="2611.2" y="1298.9" class="st6" width="59.5" height="368.5"/>
			</g>
		</g>
		<g id="_x33__3_">
			<g id="_x31_2Keys_9_">
				<rect id="B_11_" x="2452.5" y="1298.9" class="st5" width="102" height="566.9"/>
				<rect id="A_11_" x="2350.4" y="1298.9" class="st5" width="102" height="566.9"/>
				<rect id="G_9_" x="2248.4" y="1298.9" class="st5" width="102" height="566.9"/>
				<rect id="F_9_" x="2146.3" y="1298.9" class="st5" width="102" height="566.9"/>
				<rect id="E_9_" x="2044.3" y="1298.9" class="st5" width="102" height="566.9"/>
				<rect id="D_9_" x="1942.2" y="1298.9" class="st5" width="102" height="566.9"/>
				<g id="C_12_">
					<rect x="1840.2" y="1298.9" class="st5" width="102" height="566.9"/>
				</g>
				<rect id="A_x266F_B_x266D__11_" x="2432.6" y="1298.9" class="st6" width="59.5" height="368.5"/>
				<rect id="G_x266F_A_x266D__9_" x="2313.6" y="1298.9" class="st6" width="59.5" height="368.5"/>
				<rect id="F_x266F_G_x266D__9_" x="2016" y="1298.9" class="st6" width="59.5" height="368.5"/>
				<rect id="D_x266F_E_x266D__9_" x="2194.5" y="1298.9" class="st6" width="59.5" height="368.5"/>
				<rect id="C_x266F_D_x266D__9_" x="1896.9" y="1298.9" class="st6" width="59.5" height="368.5"/>
			</g>
		</g>
		<g id="_x32__3_">
			<g id="_x31_2Keys_8_">
				<rect id="B_10_" x="1738.1" y="1298.9" class="st5" width="102" height="566.9"/>
				<rect id="A_10_" x="1636" y="1298.9" class="st5" width="102" height="566.9"/>
				<rect id="G_8_" x="1534" y="1298.9" class="st5" width="102" height="566.9"/>
				<rect id="F_8_" x="1431.9" y="1298.9" class="st5" width="102" height="566.9"/>
				<rect id="E_8_" x="1329.9" y="1298.9" class="st5" width="102" height="566.9"/>
				<rect id="D_8_" x="1227.8" y="1298.9" class="st5" width="102" height="566.9"/>
				<g id="C_11_">
					<rect x="1125.8" y="1298.9" class="st5" width="102" height="566.9"/>
				</g>
				<rect id="A_x266F_B_x266D__10_" x="1718.2" y="1298.9" class="st6" width="59.5" height="368.5"/>
				<rect id="G_x266F_A_x266D__8_" x="1599.2" y="1298.9" class="st6" width="59.5" height="368.5"/>
				<rect id="F_x266F_G_x266D__8_" x="1301.6" y="1298.9" class="st6" width="59.5" height="368.5"/>
				<rect id="D_x266F_E_x266D__8_" x="1480.1" y="1298.9" class="st6" width="59.5" height="368.5"/>
				<rect id="C_x266F_D_x266D__8_" x="1182.5" y="1298.9" class="st6" width="59.5" height="368.5"/>
			</g>
		</g>
		<g id="_x31__3_">
			<g id="_x31_2Keys_7_">
				<rect id="B_9_" x="1023.8" y="1298.9" class="st5" width="102" height="566.9"/>
				<rect id="A_9_" x="921.7" y="1298.9" class="st5" width="102" height="566.9"/>
				<rect id="G_7_" x="819.7" y="1298.9" class="st5" width="102" height="566.9"/>
				<rect id="F_7_" x="717.6" y="1298.9" class="st5" width="102" height="566.9"/>
				<rect id="E_7_" x="615.6" y="1298.9" class="st5" width="102" height="566.9"/>
				<rect id="D_7_" x="513.5" y="1298.9" class="st5" width="102" height="566.9"/>
				<g id="C_10_">
					<rect x="411.5" y="1298.9" class="st5" width="102" height="566.9"/>
				</g>
				<rect id="A_x266F_B_x266D__9_" x="1003.9" y="1298.9" class="st6" width="59.5" height="368.5"/>
				<rect id="G_x266F_A_x266D__7_" x="884.9" y="1298.9" class="st6" width="59.5" height="368.5"/>
				<rect id="F_x266F_G_x266D__7_" x="587.3" y="1298.9" class="st6" width="59.5" height="368.5"/>
				<rect id="D_x266F_E_x266D__7_" x="765.8" y="1298.9" class="st6" width="59.5" height="368.5"/>
				<rect id="C_x266F_D_x266D__7_" x="468.2" y="1298.9" class="st6" width="59.5" height="368.5"/>
			</g>
		</g>
		<g id="_x30__3_">
			<g id="_x33_Keys_1_">
				<rect id="B_8_" x="309.9" y="1298.9" class="st5" width="102" height="566.9"/>
				<rect id="A_8_" x="207.8" y="1298.9" class="st5" width="102" height="566.9"/>
				<g id="C_9_">
				</g>
				<rect id="A_x266F_B_x266D__8_" x="289.9" y="1298.9" class="st6" width="59.5" height="368.5"/>
			</g>
		</g>
	</g>
</g>
<g id="_x38_8音图层">
	<g id="_x38_8音">
		<g id="_x38__1_">
			<rect x="5411.8" y="1179.1" class="st7" width="59.5" height="42.5"/>
			<text id="C8" transform="matrix(1 0 0 1 5428.8643 1194.939)" class="st8 st9">C8</text>
		</g>
		<g id="_x37_">
			<rect x="5352.3" y="1179.1" class="st7" width="59.5" height="42.5"/>
			<text id="B7" transform="matrix(1 0 0 1 5369.7134 1194.939)" class="st8 st9">B7</text>
			<rect x="5292.8" y="1179.1" class="st7" width="59.5" height="42.5"/>
			<text transform="matrix(1 0 0 1 5300.8433 1194.939)" class="st8 st9">A♯7</text>
			<text transform="matrix(1 0 0 1 5301.1436 1216.5389)" class="st8 st9">B♭7</text>
			<rect x="5233.3" y="1179.1" class="st7" width="59.5" height="42.5"/>
			<text id="A7" transform="matrix(1 0 0 1 5250.3159 1194.939)" class="st8 st9">A7</text>
			<rect x="5173.7" y="1179.1" class="st7" width="59.5" height="42.5"/>
			<text transform="matrix(1 0 0 1 5181.7529 1194.939)" class="st8 st9">G♯7</text>
			<text transform="matrix(1 0 0 1 5181.7529 1216.5389)" class="st8 st9">A♭7</text>
			<rect x="5114.2" y="1179.1" class="st7" width="59.5" height="42.5"/>
			<text id="G7" transform="matrix(1 0 0 1 5131.2256 1194.939)" class="st8 st9">G7</text>
			<rect x="5054.7" y="1179.1" class="st7" width="59.5" height="42.5"/>
			<text transform="matrix(1 0 0 1 5064.0654 1194.939)" class="st8 st9">F♯7</text>
			<text transform="matrix(1 0 0 1 5062.6655 1216.5389)" class="st8 st9">G♭7</text>
			<rect x="4995.1" y="1179.1" class="st7" width="59.5" height="42.5"/>
			<text id="F7" transform="matrix(1 0 0 1 5013.5376 1194.939)" class="st8 st9">F7</text>
			<rect x="4935.6" y="1179.1" class="st7" width="59.5" height="42.5"/>
			<text id="E7" transform="matrix(1 0 0 1 4953.6416 1194.939)" class="st8 st9">E7</text>
			<rect x="4876.1" y="1179.1" class="st7" width="59.5" height="42.5"/>
			<text transform="matrix(1 0 0 1 4884.0786 1194.939)" class="st8 st9">D♯7</text>
			<text transform="matrix(1 0 0 1 4885.0786 1216.5389)" class="st8 st9">E♭7</text>
			<rect x="4816.6" y="1179.1" class="st7" width="59.5" height="42.5"/>
			<text id="D7" transform="matrix(1 0 0 1 4833.5513 1194.939)" class="st8 st9">D7</text>
			<rect x="4757" y="1179.1" class="st7" width="59.5" height="42.5"/>
			<text transform="matrix(1 0 0 1 4765.0415 1194.939)" class="st8 st9">C♯7</text>
			<text transform="matrix(1 0 0 1 4765.0415 1216.5389)" class="st8 st9">D♭7 </text>
			<rect x="4697.5" y="1179.1" class="st7" width="59.5" height="42.5"/>
			<text id="C7" transform="matrix(1 0 0 1 4714.5142 1194.939)" class="st8 st9">C7</text>
		</g>
		<g id="_x36__1_">
			<rect x="4638" y="1179.1" class="st7" width="59.5" height="42.5"/>
			<text id="B6" transform="matrix(1 0 0 1 4655.4639 1194.939)" class="st8 st9">B6</text>
			<rect x="4578.5" y="1179.1" class="st7" width="59.5" height="42.5"/>
			<text transform="matrix(1 0 0 1 4586.5938 1194.939)" class="st8 st9">A♯6</text>
			<text transform="matrix(1 0 0 1 4586.8936 1216.5389)" class="st8 st9">B♭6</text>
			<rect x="4519" y="1179.1" class="st7" width="59.5" height="42.5"/>
			<text id="A6" transform="matrix(1 0 0 1 4536.0659 1194.939)" class="st8 st9">A6</text>
			<rect x="4459.4" y="1179.1" class="st7" width="59.5" height="42.5"/>
			<text transform="matrix(1 0 0 1 4467.5029 1194.939)" class="st8 st9">G♯6</text>
			<text transform="matrix(1 0 0 1 4467.5029 1216.5389)" class="st8 st9">A♭6</text>
			<rect x="4399.9" y="1179.1" class="st7" width="59.5" height="42.5"/>
			<text id="G6" transform="matrix(1 0 0 1 4416.9756 1194.939)" class="st8 st9">G6</text>
			<rect x="4340.4" y="1179.1" class="st7" width="59.5" height="42.5"/>
			<text transform="matrix(1 0 0 1 4349.8149 1194.939)" class="st8 st9">F♯6</text>
			<text transform="matrix(1 0 0 1 4348.415 1216.5389)" class="st8 st9">G♭6</text>
			<rect x="4280.8" y="1179.1" class="st7" width="59.5" height="42.5"/>
			<text id="F6" transform="matrix(1 0 0 1 4299.2871 1194.939)" class="st8 st9">F6</text>
			<rect x="4221.3" y="1179.1" class="st7" width="59.5" height="42.5"/>
			<text id="E6" transform="matrix(1 0 0 1 4239.3911 1194.939)" class="st8 st9">E6</text>
			<rect x="4161.8" y="1179.1" class="st7" width="59.5" height="42.5"/>
			<text transform="matrix(1 0 0 1 4169.8286 1194.939)" class="st8 st9">D♯6</text>
			<text transform="matrix(1 0 0 1 4170.8286 1216.5389)" class="st8 st9">E♭6</text>
			<rect x="4102.3" y="1179.1" class="st7" width="59.5" height="42.5"/>
			<text id="D6" transform="matrix(1 0 0 1 4119.3008 1194.939)" class="st8 st9">D6</text>
			<rect x="4042.7" y="1179.1" class="st7" width="59.5" height="42.5"/>
			<text transform="matrix(1 0 0 1 4050.7913 1194.939)" class="st8 st9">C♯6</text>
			<text transform="matrix(1 0 0 1 4050.7913 1216.5389)" class="st8 st9">D♭6 </text>
			<rect x="3983.2" y="1179.1" class="st7" width="59.5" height="42.5"/>
			<text id="C6" transform="matrix(1 0 0 1 4000.2639 1194.939)" class="st8 st9">C6</text>
		</g>
		<g id="_x35__1_">
			<rect x="3923.6" y="1179.1" class="st7" width="59.5" height="42.5"/>
			<text id="B5" transform="matrix(1 0 0 1 3941.063 1194.939)" class="st8 st9">B5</text>
			<rect x="3864.1" y="1179.1" class="st7" width="59.5" height="42.5"/>
			<text transform="matrix(1 0 0 1 3872.1929 1194.939)" class="st8 st9">A♯5</text>
			<text transform="matrix(1 0 0 1 3872.4929 1216.5389)" class="st8 st9">B♭5</text>
			<rect x="3804.6" y="1179.1" class="st7" width="59.5" height="42.5"/>
			<text id="A5" transform="matrix(1 0 0 1 3821.6655 1194.939)" class="st8 st9">A5</text>
			<rect x="3745" y="1179.1" class="st7" width="59.5" height="42.5"/>
			<text transform="matrix(1 0 0 1 3753.1023 1194.939)" class="st8 st9">G♯5</text>
			<text transform="matrix(1 0 0 1 3753.1023 1216.5389)" class="st8 st9">A♭5</text>
			<rect x="3685.5" y="1179.1" class="st7" width="59.5" height="42.5"/>
			<text id="G5" transform="matrix(1 0 0 1 3702.5752 1194.939)" class="st8 st9">G5</text>
			<rect x="3626" y="1179.1" class="st7" width="59.5" height="42.5"/>
			<text transform="matrix(1 0 0 1 3635.4148 1194.939)" class="st8 st9">F♯5</text>
			<text transform="matrix(1 0 0 1 3634.0149 1216.5389)" class="st8 st9">G♭5</text>
			<rect x="3566.4" y="1179.1" class="st7" width="59.5" height="42.5"/>
			<text id="F5" transform="matrix(1 0 0 1 3584.887 1194.939)" class="st8 st9">F5</text>
			<rect x="3506.9" y="1179.1" class="st7" width="59.5" height="42.5"/>
			<text id="E5" transform="matrix(1 0 0 1 3524.991 1194.939)" class="st8 st9">E5</text>
			<rect x="3447.4" y="1179.1" class="st7" width="59.5" height="42.5"/>
			<text transform="matrix(1 0 0 1 3455.4285 1194.939)" class="st8 st9">D♯5</text>
			<text transform="matrix(1 0 0 1 3456.4285 1216.5389)" class="st8 st9">E♭5</text>
			<rect x="3387.9" y="1179.1" class="st7" width="59.5" height="42.5"/>
			<text id="D5" transform="matrix(1 0 0 1 3404.9009 1194.939)" class="st8 st9">D5</text>
			<rect x="3328.3" y="1179.1" class="st7" width="59.5" height="42.5"/>
			<text transform="matrix(1 0 0 1 3336.3914 1194.939)" class="st8 st9">C♯5</text>
			<text transform="matrix(1 0 0 1 3336.3914 1216.5389)" class="st8 st9">D♭5 </text>
			<rect x="3268.8" y="1179.1" class="st7" width="59.5" height="42.5"/>
			<text id="C5" transform="matrix(1 0 0 1 3285.864 1194.939)" class="st8 st9">C5</text>
		</g>
		<g id="_x34__1_">
			<rect x="3209.2" y="1179.1" class="st7" width="59.5" height="42.5"/>
			<text id="B4" transform="matrix(1 0 0 1 3226.6521 1194.939)" class="st8 st9">B4</text>
			<rect x="3149.7" y="1179.1" class="st7" width="59.5" height="42.5"/>
			<text transform="matrix(1 0 0 1 3157.7825 1194.939)" class="st8 st9">A♯4</text>
			<text transform="matrix(1 0 0 1 3158.0825 1216.5389)" class="st8 st9">B♭4</text>
			<rect x="3090.2" y="1179.1" class="st7" width="59.5" height="42.5"/>
			<text id="A4" transform="matrix(1 0 0 1 3107.2551 1194.939)" class="st8 st9">A4</text>
			<rect x="3030.7" y="1179.1" class="st7" width="59.5" height="42.5"/>
			<text transform="matrix(1 0 0 1 3038.6914 1194.939)" class="st8 st9">G♯4</text>
			<text transform="matrix(1 0 0 1 3038.6914 1216.5389)" class="st8 st9">A♭4</text>
			<rect x="2971.1" y="1179.1" class="st7" width="59.5" height="42.5"/>
			<text id="G4" transform="matrix(1 0 0 1 2988.1643 1194.939)" class="st8 st9">G4</text>
			<rect x="2911.6" y="1179.1" class="st7" width="59.5" height="42.5"/>
			<text transform="matrix(1 0 0 1 2921.0046 1194.939)" class="st8 st9">F♯4</text>
			<text transform="matrix(1 0 0 1 2919.6047 1216.5389)" class="st8 st9">G♭4</text>
			<rect x="2852.1" y="1179.1" class="st7" width="59.5" height="42.5"/>
			<text id="F4" transform="matrix(1 0 0 1 2870.4768 1194.939)" class="st8 st9">F4</text>
			<rect x="2792.5" y="1179.1" class="st7" width="59.5" height="42.5"/>
			<text id="E4" transform="matrix(1 0 0 1 2810.5801 1194.939)" class="st8 st9">E4</text>
			<rect x="2733" y="1179.1" class="st7" width="59.5" height="42.5"/>
			<text transform="matrix(1 0 0 1 2741.0178 1194.939)" class="st8 st9">D♯4</text>
			<text transform="matrix(1 0 0 1 2742.0178 1216.5389)" class="st8 st9">E♭4</text>
			<rect x="2673.5" y="1179.1" class="st7" width="59.5" height="42.5"/>
			<text id="D4" transform="matrix(1 0 0 1 2690.49 1194.939)" class="st8 st9">D4</text>
			<rect x="2614" y="1179.1" class="st7" width="59.5" height="42.5"/>
			<text transform="matrix(1 0 0 1 2621.9802 1194.939)" class="st8 st9">C♯4</text>
			<text transform="matrix(1 0 0 1 2621.9802 1216.5389)" class="st8 st9">D♭4</text>
			<rect x="2554.4" y="1179.1" class="st7" width="59.5" height="42.5"/>
			<text id="C4" transform="matrix(1 0 0 1 2571.4529 1194.939)" class="st8 st9">C4</text>
		</g>
		<g id="_x33__1_">
			<rect x="2495" y="1179.1" class="st7" width="59.5" height="42.5"/>
			<text id="B5_2_" transform="matrix(1 0 0 1 2512.4634 1194.939)" class="st8 st9">B3</text>
			<rect x="2435.5" y="1179.1" class="st7" width="59.5" height="42.5"/>
			<text transform="matrix(1 0 0 1 2443.5933 1194.939)" class="st8 st9">A♯3</text>
			<text transform="matrix(1 0 0 1 2443.8933 1216.5389)" class="st8 st9">B♭3</text>
			<rect x="2376" y="1179.1" class="st7" width="59.5" height="42.5"/>
			<text id="A5_2_" transform="matrix(1 0 0 1 2393.0659 1194.939)" class="st8 st9">A3</text>
			<rect x="2316.4" y="1179.1" class="st7" width="59.5" height="42.5"/>
			<text transform="matrix(1 0 0 1 2324.5027 1194.939)" class="st8 st9">G♯3</text>
			<text transform="matrix(1 0 0 1 2324.5027 1216.5389)" class="st8 st9">A♭3</text>
			<rect x="2256.9" y="1179.1" class="st7" width="59.5" height="42.5"/>
			<text id="G5_2_" transform="matrix(1 0 0 1 2273.9756 1194.939)" class="st8 st9">G3</text>
			<rect x="2197.4" y="1179.1" class="st7" width="59.5" height="42.5"/>
			<text transform="matrix(1 0 0 1 2206.8152 1194.939)" class="st8 st9">F♯3</text>
			<text transform="matrix(1 0 0 1 2205.4153 1216.5389)" class="st8 st9">G♭3</text>
			<rect x="2137.8" y="1179.1" class="st7" width="59.5" height="42.5"/>
			<text id="F5_2_" transform="matrix(1 0 0 1 2156.2874 1194.939)" class="st8 st9">F3</text>
			<rect x="2078.3" y="1179.1" class="st7" width="59.5" height="42.5"/>
			<text id="E5_2_" transform="matrix(1 0 0 1 2096.3914 1194.939)" class="st8 st9">E3</text>
			<rect x="2018.8" y="1179.1" class="st7" width="59.5" height="42.5"/>
			<text transform="matrix(1 0 0 1 2026.8286 1194.939)" class="st8 st9">D♯3</text>
			<text transform="matrix(1 0 0 1 2027.8286 1216.5389)" class="st8 st9">E♭3</text>
			<rect x="1959.3" y="1179.1" class="st7" width="59.5" height="42.5"/>
			<text id="D5_2_" transform="matrix(1 0 0 1 1976.301 1194.939)" class="st8 st9">D3</text>
			<rect x="1899.7" y="1179.1" class="st7" width="59.5" height="42.5"/>
			<text transform="matrix(1 0 0 1 1907.7915 1194.939)" class="st8 st9">C♯3</text>
			<text transform="matrix(1 0 0 1 1907.7915 1216.5389)" class="st8 st9">D♭3 </text>
			<rect x="1840.2" y="1179.1" class="st7" width="59.5" height="42.5"/>
			<text id="C5_2_" transform="matrix(1 0 0 1 1857.2642 1194.939)" class="st8 st9">C3</text>
		</g>
		<g id="_x32__1_">
			<rect x="1780.6" y="1179.1" class="st7" width="59.5" height="42.5"/>
			<text id="B2" transform="matrix(1 0 0 1 1798.0635 1194.939)" class="st8 st9">B2</text>
			<rect x="1721.1" y="1179.1" class="st7" width="59.5" height="42.5"/>
			<text transform="matrix(1 0 0 1 1729.1934 1194.939)" class="st8 st9">A♯2</text>
			<text transform="matrix(1 0 0 1 1729.4934 1216.5391)" class="st8 st9">B♭2</text>
			<rect x="1661.6" y="1179.1" class="st7" width="59.5" height="42.5"/>
			<text id="A2" transform="matrix(1 0 0 1 1678.666 1194.939)" class="st8 st9">A2</text>
			<rect x="1602" y="1179.1" class="st7" width="59.5" height="42.5"/>
			<text transform="matrix(1 0 0 1 1610.1028 1194.939)" class="st8 st9">G♯2</text>
			<text transform="matrix(1 0 0 1 1610.1028 1216.5391)" class="st8 st9">A♭2</text>
			<rect x="1542.5" y="1179.1" class="st7" width="59.5" height="42.5"/>
			<text id="G2" transform="matrix(1 0 0 1 1559.5757 1194.939)" class="st8 st9">G2</text>
			<rect x="1483" y="1179.1" class="st7" width="59.5" height="42.5"/>
			<text transform="matrix(1 0 0 1 1492.4153 1194.939)" class="st8 st9">F♯2</text>
			<text transform="matrix(1 0 0 1 1491.0154 1216.5391)" class="st8 st9">G♭2</text>
			<rect x="1423.4" y="1179.1" class="st7" width="59.5" height="42.5"/>
			<text id="F2" transform="matrix(1 0 0 1 1441.8875 1194.939)" class="st8 st9">F2</text>
			<rect x="1363.9" y="1179.1" class="st7" width="59.5" height="42.5"/>
			<text id="E2" transform="matrix(1 0 0 1 1381.9913 1194.939)" class="st8 st9">E2</text>
			<rect x="1304.4" y="1179.1" class="st7" width="59.5" height="42.5"/>
			<text transform="matrix(1 0 0 1 1312.4286 1194.939)" class="st8 st9">D♯2</text>
			<text transform="matrix(1 0 0 1 1313.4286 1216.5391)" class="st8 st9">E♭2</text>
			<rect x="1244.9" y="1179.1" class="st7" width="59.5" height="42.5"/>
			<text id="D2" transform="matrix(1 0 0 1 1261.901 1194.939)" class="st8 st9">D2</text>
			<rect x="1185.3" y="1179.1" class="st7" width="59.5" height="42.5"/>
			<text transform="matrix(1 0 0 1 1193.3915 1194.939)" class="st8 st9">C♯2</text>
			<text transform="matrix(1 0 0 1 1193.3915 1216.5391)" class="st8 st9">D♭2 </text>
			<rect x="1125.8" y="1179.1" class="st7" width="59.5" height="42.5"/>
			<text id="C2" transform="matrix(1 0 0 1 1142.8641 1194.939)" class="st8 st9">C2</text>
		</g>
		<g id="_x31__1_">
			<rect x="1066.3" y="1179.1" class="st7" width="59.5" height="42.5"/>
			<text id="B1" transform="matrix(1 0 0 1 1083.7133 1194.939)" class="st8 st9">B1</text>
			<rect x="1006.8" y="1179.1" class="st7" width="59.5" height="42.5"/>
			<text transform="matrix(1 0 0 1 1014.8431 1194.939)" class="st8 st9">A♯1</text>
			<text transform="matrix(1 0 0 1 1015.1431 1216.5389)" class="st8 st9">B♭1</text>
			<rect x="947.3" y="1179.1" class="st7" width="59.5" height="42.5"/>
			<text id="A1" transform="matrix(1 0 0 1 964.3157 1194.939)" class="st8 st9">A1</text>
			<rect x="887.7" y="1179.1" class="st7" width="59.5" height="42.5"/>
			<text transform="matrix(1 0 0 1 895.7525 1194.939)" class="st8 st9">G♯1</text>
			<text transform="matrix(1 0 0 1 895.7525 1216.5389)" class="st8 st9">A♭1</text>
			<rect x="828.2" y="1179.1" class="st7" width="59.5" height="42.5"/>
			<text id="G1" transform="matrix(1 0 0 1 845.2254 1194.939)" class="st8 st9">G1</text>
			<rect x="768.7" y="1179.1" class="st7" width="59.5" height="42.5"/>
			<text transform="matrix(1 0 0 1 778.065 1194.939)" class="st8 st9">F♯1</text>
			<text transform="matrix(1 0 0 1 776.6651 1216.5389)" class="st8 st9">G♭1</text>
			<rect x="709.1" y="1179.1" class="st7" width="59.5" height="42.5"/>
			<text id="F1" transform="matrix(1 0 0 1 727.5372 1194.939)" class="st8 st9">F1</text>
			<rect x="649.6" y="1179.1" class="st7" width="59.5" height="42.5"/>
			<text id="E1" transform="matrix(1 0 0 1 667.6412 1194.939)" class="st8 st9">E1</text>
			<rect x="590.1" y="1179.1" class="st7" width="59.5" height="42.5"/>
			<text transform="matrix(1 0 0 1 598.0784 1194.939)" class="st8 st9">D♯1</text>
			<text transform="matrix(1 0 0 1 599.0784 1216.5389)" class="st8 st9">E♭1</text>
			<rect x="530.6" y="1179.1" class="st7" width="59.5" height="42.5"/>
			<text id="D1" transform="matrix(1 0 0 1 547.5508 1194.939)" class="st8 st9">D1</text>
			<rect x="471" y="1179.1" class="st7" width="59.5" height="42.5"/>
			<text transform="matrix(1 0 0 1 479.0414 1194.939)" class="st8 st9">C♯1</text>
			<text transform="matrix(1 0 0 1 479.0414 1216.5389)" class="st8 st9">D♭1 </text>
			<rect x="411.5" y="1179.1" class="st7" width="59.5" height="42.5"/>
			<text id="C1" transform="matrix(1 0 0 1 428.5143 1194.939)" class="st8 st9">C1</text>
		</g>
		<g id="_x30__1_">
			<rect x="352.4" y="1179.1" class="st7" width="59.5" height="42.5"/>
			<text id="B0" transform="matrix(1 0 0 1 369.8636 1194.939)" class="st8 st9">B0</text>
			<rect x="292.9" y="1179.1" class="st7" width="59.5" height="42.5"/>
			<text transform="matrix(1 0 0 1 300.9937 1194.939)" class="st8 st9">A♯0</text>
			<text transform="matrix(1 0 0 1 301.2938 1216.5389)" class="st8 st9">B♭0</text>
			<rect x="233.4" y="1179.1" class="st7" width="59.5" height="42.5"/>
			<text id="A0" transform="matrix(1 0 0 1 250.4664 1194.939)" class="st8 st9">A0</text>
		</g>
	</g>
</g>
<g id="五度音">
	<g>
		<g>
			<path class="st10" d="M441.2,1175.1c0-264.7-1.3-264.7,355.8-264.7c348.9,0,357,0,358.4,246.8"/>
			<g>
				<polygon class="st11" points="1144.3,1148.8 1155.4,1153.4 1166.5,1148.7 1155.6,1175.1 				"/>
			</g>
		</g>
	</g>
	<g>
		<g>
			<path class="st10" d="M1155.6,1175.1c0-264.7-1.3-264.7,355.8-264.7c348.9,0,357,0,358.4,246.8"/>
			<g>
				<polygon class="st11" points="1858.6,1148.8 1869.8,1153.4 1880.8,1148.7 1869.9,1175.1 				"/>
			</g>
		</g>
	</g>
	<g>
		<g>
			<path class="st10" d="M1869.9,1175.1c0-264.7-1.3-264.7,355.8-264.7c348.9,0,357,0,358.4,246.8"/>
			<g>
				<polygon class="st11" points="2573,1148.8 2584.1,1153.4 2595.2,1148.7 2584.3,1175.1 				"/>
			</g>
		</g>
	</g>
	<g>
		<g>
			<path class="st10" d="M2584.3,1175.1c0-264.7-1.3-264.7,355.8-264.7c348.9,0,357,0,358.4,246.8"/>
			<g>
				<polygon class="st11" points="3287.3,1148.8 3298.5,1153.4 3309.5,1148.7 3298.6,1175.1 				"/>
			</g>
		</g>
	</g>
	<g>
		<g>
			<path class="st10" d="M3298.6,1175.1c0-264.7-1.3-264.7,355.8-264.7c348.9,0,357,0,358.4,246.8"/>
			<g>
				<polygon class="st11" points="4001.7,1148.8 4012.8,1153.4 4023.9,1148.7 4013,1175.1 				"/>
			</g>
		</g>
	</g>
	<g>
		<g>
			<path class="st10" d="M4013,1175.1c0-264.7-1.3-264.7,355.8-264.7c348.9,0,357,0,358.4,246.8"/>
			<g>
				<polygon class="st11" points="4716,1148.8 4727.2,1153.4 4738.3,1148.7 4727.3,1175.1 				"/>
			</g>
		</g>
	</g>
	<g>
		<g>
			<path class="st10" d="M4727.3,1175.1c0-264.7-1.3-264.7,355.8-264.7c348.9,0,357,0,358.4,246.8"/>
			<g>
				<polygon class="st11" points="5430.4,1148.8 5441.5,1153.4 5452.6,1148.7 5441.7,1175.1 				"/>
			</g>
		</g>
	</g>
</g>
<g id="八度音">
	<g>
		<g>
			<path class="st12" d="M441.2,1179.8c0-68.6-0.9-137.1,208.3-137.1c190.2,0,206.8,57.1,208.2,119.2"/>
			<g>
				<polygon class="st13" points="846.5,1153.7 857.6,1158.2 868.7,1153.4 857.9,1179.8 				"/>
			</g>
		</g>
	</g>
	<g>
		<g>
			<path class="st12" d="M857.9,1179.8c0-68.6-0.9-137.1,208.3-137.1c190.2,0,206.8,57.1,208.2,119.2"/>
			<g>
				<polygon class="st13" points="1263.2,1153.7 1274.3,1158.2 1285.4,1153.4 1274.6,1179.8 				"/>
			</g>
		</g>
	</g>
	<g>
		<g>
			<path class="st12" d="M1274.7,1175.1c0-68.6-0.9-137.1,208.3-137.1c190.2,0,206.8,57.1,208.2,119.2"/>
			<g>
				<polygon class="st13" points="1679.9,1148.9 1691.1,1153.4 1702.1,1148.6 1691.4,1175.1 				"/>
			</g>
		</g>
	</g>
	<g>
		<g>
			<path class="st12" d="M1691.4,1175.1c0-68.6-0.9-137.1,208.3-137.1c190.2,0,206.8,57.1,208.2,119.2"/>
			<g>
				<polygon class="st13" points="2096.6,1148.9 2107.8,1153.4 2118.8,1148.6 2108.1,1175.1 				"/>
			</g>
		</g>
	</g>
	<g>
		<g>
			<path class="st12" d="M2108,1175.1c0-68.6-0.9-137.1,208.4-137.1c190.2,0,206.8,57.1,208.2,119.2"/>
			<g>
				<polygon class="st13" points="2513.3,1148.9 2524.4,1153.4 2535.5,1148.6 2524.7,1175.1 				"/>
			</g>
		</g>
	</g>
	<g>
		<g>
			<path class="st12" d="M2524.7,1175.1c0-68.6-0.9-137.1,208.4-137.1c190.2,0,206.8,57.1,208.2,119.2"/>
			<g>
				<polygon class="st13" points="2930,1148.9 2941.1,1153.4 2952.2,1148.6 2941.4,1175.1 				"/>
			</g>
		</g>
	</g>
	<g>
		<g>
			<path class="st12" d="M2941.5,1170.3c0-68.6-0.9-137.1,208.4-137.1c190.2,0,206.8,57.1,208.2,119.2"/>
			<g>
				<polygon class="st13" points="3346.7,1144.1 3357.9,1148.7 3368.9,1143.8 3358.2,1170.3 				"/>
			</g>
		</g>
	</g>
	<g>
		<g>
			<path class="st12" d="M3358.2,1170.3c0-68.6-0.9-137.1,208.4-137.1c190.2,0,206.8,57.1,208.2,119.2"/>
			<g>
				<polygon class="st13" points="3763.4,1144.1 3774.6,1148.7 3785.6,1143.8 3774.9,1170.3 				"/>
			</g>
		</g>
	</g>
	<g>
		<g>
			<path class="st12" d="M3779.1,1170.3c0-68.6-0.9-137.1,208.4-137.1c190.2,0,206.8,57.1,208.2,119.2"/>
			<g>
				<polygon class="st13" points="4184.4,1144.1 4195.5,1148.7 4206.6,1143.8 4195.8,1170.3 				"/>
			</g>
		</g>
	</g>
	<g>
		<g>
			<path class="st12" d="M4195.8,1170.3c0-68.6-0.9-137.1,208.3-137.1c190.2,0,206.8,57.1,208.2,119.2"/>
			<g>
				<polygon class="st13" points="4601.1,1144.1 4612.2,1148.7 4623.3,1143.8 4612.5,1170.3 				"/>
			</g>
		</g>
	</g>
	<g>
		<g>
			<path class="st12" d="M4612.6,1165.5c0-68.6-0.9-137.1,208.4-137.1c190.2,0,206.8,57.1,208.2,119.2"/>
			<g>
				<polygon class="st13" points="5017.8,1139.3 5029,1143.9 5040,1139 5029.3,1165.5 				"/>
			</g>
		</g>
	</g>
	<g>
		<g>
			<path class="st12" d="M5029.3,1165.5c0-68.6-0.9-137.1,208.3-137.1c190.2,0,206.8,57.1,208.2,119.2"/>
			<g>
				<polygon class="st13" points="5434.5,1139.3 5445.7,1143.9 5456.7,1139 5446,1165.5 				"/>
			</g>
		</g>
	</g>
</g>
</svg>
