<?xml version="1.0" encoding="UTF-8" standalone="no"?>
<svg width="524px" height="454px" viewBox="0 0 524 454"
 xmlns="http://www.w3.org/2000/svg" xmlns:xlink="http://www.w3.org/1999/xlink" version="1.2" baseProfile="tiny">
<title>谱号</title>
<desc>Generated by MuseScore 3.3.4</desc>
<polyline class="" fill="none" stroke="#000000" stroke-width="4.00" stroke-linejoin="bevel" points="63.373,317.857 63.373,419.857"/>
<polyline class="" fill="none" stroke="#000000" stroke-width="4.00" stroke-linejoin="bevel" points="495.608,317.857 495.608,419.857"/>
<polyline class="" fill="none" stroke="#000000" stroke-width="12.50" stroke-linejoin="bevel" points="513.858,317.857 513.858,419.857"/>
<polyline class="" fill="none" stroke="#000000" stroke-width="4.00" stroke-linejoin="bevel" points="63.373,55.3564 63.373,318.857"/>
<polyline class="" fill="none" stroke="#000000" stroke-width="4.00" stroke-linejoin="bevel" points="495.608,55.3564 495.608,157.356"/>
<polyline class="" fill="none" stroke="#000000" stroke-width="12.50" stroke-linejoin="bevel" points="513.858,55.3564 513.858,157.356"/>
<polyline class="" fill="none" stroke="#000000" stroke-width="2.00" stroke-linejoin="bevel" points="61.373,318.857 520.108,318.857"/>
<polyline class="" fill="none" stroke="#000000" stroke-width="2.00" stroke-linejoin="bevel" points="61.373,343.857 520.108,343.857"/>
<polyline class="" fill="none" stroke="#000000" stroke-width="2.00" stroke-linejoin="bevel" points="61.373,368.857 520.108,368.857"/>
<polyline class="" fill="none" stroke="#000000" stroke-width="2.00" stroke-linejoin="bevel" points="61.373,393.857 520.108,393.857"/>
<polyline class="" fill="none" stroke="#000000" stroke-width="2.00" stroke-linejoin="bevel" points="61.373,418.857 520.108,418.857"/>
<polyline class="" fill="none" stroke="#000000" stroke-width="2.00" stroke-linejoin="bevel" points="61.373,56.3564 520.108,56.3564"/>
<polyline class="" fill="none" stroke="#000000" stroke-width="2.00" stroke-linejoin="bevel" points="61.373,81.3564 520.108,81.3564"/>
<polyline class="" fill="none" stroke="#000000" stroke-width="2.00" stroke-linejoin="bevel" points="61.373,106.356 520.108,106.356"/>
<polyline class="" fill="none" stroke="#000000" stroke-width="2.00" stroke-linejoin="bevel" points="61.373,131.356 520.108,131.356"/>
<polyline class="" fill="none" stroke="#000000" stroke-width="2.00" stroke-linejoin="bevel" points="61.373,156.356 520.108,156.356"/>
<path class="" d="M143.775,334.97 C142.799,333.993 142.311,332.789 142.311,331.357 C142.311,329.924 142.799,328.72 143.775,327.743 C144.752,326.767 145.956,326.278 147.389,326.278 C148.821,326.278 150.025,326.767 151.002,327.743 C151.979,328.72 152.467,329.924 152.467,331.357 C152.467,332.789 151.979,333.993 151.002,334.97 C150.025,335.946 148.821,336.435 147.389,336.435 C145.956,336.435 144.752,335.946 143.775,334.97 M143.775,359.97 C142.799,358.993 142.311,357.789 142.311,356.357 C142.311,354.924 142.799,353.72 143.775,352.743 C144.752,351.767 145.956,351.278 147.389,351.278 C148.821,351.278 150.025,351.767 151.002,352.743 C151.979,353.72 152.467,354.924 152.467,356.357 C152.467,357.789 151.979,358.993 151.002,359.97 C150.025,360.946 148.821,361.435 147.389,361.435 C145.956,361.435 144.752,360.946 143.775,359.97 M109.889,317.587 C118.548,317.587 125.644,319.768 131.178,324.13 C136.516,328.687 139.186,334.872 139.186,342.685 C139.186,347.958 138.144,352.776 136.061,357.138 C134.107,361.695 131.536,365.732 128.346,369.247 C125.09,372.828 121.152,376.213 116.529,379.403 C112.037,382.528 107.415,385.328 102.662,387.802 C92.9616,392.685 87.623,395.126 86.6465,395.126 C85.8001,395.126 85.3769,394.703 85.3769,393.857 C85.3769,393.531 85.5072,393.238 85.7676,392.978 C89.0879,391.025 93.1569,388.518 97.9746,385.458 C101.1,383.44 104.745,380.64 108.912,377.06 C112.949,373.674 116.074,370.484 118.287,367.489 C120.566,364.56 122.649,360.914 124.537,356.552 C126.165,352.19 126.979,347.893 126.979,343.661 C126.979,337.346 125.416,331.845 122.291,327.157 C119.166,322.47 115.032,320.126 109.889,320.126 C106.243,320.126 103.118,321.298 100.514,323.642 C97.7142,326.051 95.696,329.078 94.459,332.724 C95.696,332.203 96.8353,331.942 97.8769,331.942 C100.611,331.942 102.955,332.919 104.908,334.872 C106.861,336.955 107.838,339.332 107.838,342.001 C107.838,344.801 106.894,347.307 105.006,349.521 C102.988,351.539 100.611,352.548 97.8769,352.548 C94.9473,352.548 92.3105,351.539 89.9668,349.521 C87.7532,347.307 86.6465,344.801 86.6465,342.001 C86.6465,335.295 88.9251,329.566 93.4824,324.814 C97.9746,319.996 103.443,317.587 109.889,317.587"/>
<path class="" d="M123.365,105.77 C123.365,105.77 123.561,105.77 123.951,105.77 C124.212,105.705 124.439,105.673 124.635,105.673 C131.926,105.673 137.916,108.244 142.604,113.388 C147.291,118.466 149.635,124.39 149.635,131.161 C149.635,139.56 146.152,146.395 139.186,151.669 C137.363,153.101 134.986,154.273 132.057,155.185 C132.382,159.416 132.545,162.834 132.545,165.438 C132.545,165.959 132.48,167.847 132.35,171.102 C132.089,177.157 130.006,182.398 126.1,186.825 C122.324,191.187 117.636,193.368 112.037,193.368 C106.764,193.368 102.271,191.513 98.5605,187.802 C94.8496,184.026 92.9941,179.468 92.9941,174.13 C92.9941,171.33 94.0683,168.954 96.2168,167.001 C98.4303,165.048 101.002,164.071 103.932,164.071 C106.536,164.071 108.717,165.08 110.475,167.099 C112.298,168.987 113.209,171.33 113.209,174.13 C113.209,176.669 112.298,178.85 110.475,180.673 C108.652,182.496 106.471,183.407 103.932,183.407 C102.89,183.407 101.881,183.212 100.904,182.821 C103.769,187.053 107.577,189.169 112.33,189.169 C116.822,189.169 120.501,187.346 123.365,183.7 C126.36,179.924 127.988,175.53 128.248,170.517 C128.378,167.392 128.443,165.601 128.443,165.145 C128.443,161.5 128.313,158.505 128.053,156.161 C124.798,156.682 121.9,156.942 119.361,156.942 C110.312,156.942 102.597,153.362 96.2168,146.2 C89.9668,138.974 86.8418,130.38 86.8418,120.419 C86.8418,118.336 87.0371,116.22 87.4277,114.071 C87.8183,112.313 88.3066,110.393 88.8926,108.31 C89.2181,107.138 90.097,105.25 91.5293,102.645 C92.0501,101.864 92.6361,100.888 93.2871,99.7158 C93.9381,98.5439 94.3939,97.7626 94.6543,97.372 C95.3053,96.0699 96.5749,94.3121 98.4629,92.0986 C98.9837,91.5126 99.5208,90.8616 100.074,90.1455 C100.628,89.4293 101.1,88.8434 101.49,88.3876 C101.881,87.9319 102.174,87.5738 102.369,87.3134 C102.564,87.053 104.029,85.3278 106.764,82.1376 C107.415,81.4866 108.049,80.7867 108.668,80.038 C109.286,79.2893 109.791,78.7034 110.182,78.2802 C110.572,77.8571 110.865,77.5478 111.061,77.3525 C108.717,69.6051 107.252,63.4202 106.666,58.7978 C106.21,55.0869 105.982,50.0087 105.982,43.5634 C105.982,37.8994 107.284,32.5934 109.889,27.6455 C112.428,22.5022 115.976,18.303 120.533,15.0478 C120.794,14.8525 121.119,14.7548 121.51,14.7548 C121.965,14.7548 122.291,14.8525 122.486,15.0478 C126.002,19.2796 129.029,24.7809 131.568,31.5517 C134.173,38.3225 135.475,44.4749 135.475,50.0087 C135.475,56.2587 133.977,62.1181 130.982,67.5869 C127.597,73.3811 123.235,79.3707 117.896,85.5556 C119.264,89.8525 121.087,96.5908 123.365,105.77 M131.666,151.181 C135.051,149.944 137.688,147.828 139.576,144.833 C141.659,141.968 142.701,138.746 142.701,135.165 C142.701,130.543 141.139,126.441 138.014,122.86 C134.824,119.149 130.755,117.066 125.807,116.61 C128.606,130.347 130.559,141.871 131.666,151.181 M93.873,128.622 C93.873,135.067 96.4772,140.731 101.686,145.614 C107.024,150.367 113.014,152.743 119.654,152.743 C122.389,152.743 125.058,152.548 127.662,152.157 C126.62,142.261 124.57,130.412 121.51,116.61 C117.799,117.001 114.837,118.303 112.623,120.517 C110.475,122.795 109.4,125.367 109.4,128.231 C109.4,133.179 112.037,137.183 117.311,140.243 C117.766,140.699 117.994,141.187 117.994,141.708 C117.994,142.229 117.766,142.717 117.311,143.173 C116.92,143.629 116.432,143.856 115.846,143.856 C115.781,143.856 115.488,143.791 114.967,143.661 C111.256,141.643 108.391,139.039 106.373,135.849 C104.485,132.463 103.541,129.045 103.541,125.595 C103.541,121.102 104.941,117.033 107.74,113.388 C110.67,109.742 114.479,107.398 119.166,106.356 C117.343,99.0647 115.846,93.3681 114.674,89.2666 C113.632,90.4384 112.379,91.8544 110.914,93.5146 C109.449,95.1748 108.587,96.1676 108.326,96.4931 C105.982,99.553 104.192,101.929 102.955,103.622 C100.742,106.682 99.1139,109.319 98.0723,111.532 C96.9655,114.006 95.9889,116.708 95.1426,119.638 C94.2962,122.437 93.873,125.432 93.873,128.622 M126.49,29.3056 C121.607,31.7145 117.766,35.165 114.967,39.6572 C112.102,44.2796 110.67,49.26 110.67,54.5986 C110.67,59.2861 111.842,65.6012 114.186,73.5439 C118.873,67.8798 122.389,62.639 124.732,57.8212 C127.206,52.7431 128.443,47.4371 128.443,41.9033 C128.443,37.7366 127.792,33.5374 126.49,29.3056"/>
<path class="" d="M257.479,364.755 L257.479,372.47 C257.479,375.204 257.609,377.385 257.869,379.013 C260.018,377.19 261.548,375.823 262.459,374.911 C263.501,373.87 264.542,372.437 265.584,370.614 C266.626,368.791 267.147,366.969 267.147,365.146 C267.147,363.323 266.756,361.76 265.975,360.458 C265.193,359.156 264.152,358.505 262.85,358.505 C261.287,358.505 259.985,359.091 258.943,360.263 C257.967,361.565 257.479,363.062 257.479,364.755 M253.377,382.626 L252.108,323.153 C253.019,322.633 253.93,322.372 254.842,322.372 C255.753,322.372 256.665,322.633 257.576,323.153 L256.795,357.626 C259.464,355.347 262.524,354.208 265.975,354.208 C268.514,354.208 270.63,355.25 272.322,357.333 C274.015,359.416 274.861,361.793 274.861,364.462 C274.861,366.155 274.308,367.945 273.201,369.833 C272.16,371.591 271.053,372.958 269.881,373.935 C269.23,374.456 267.57,375.758 264.9,377.841 C264.119,378.427 263.192,379.11 262.117,379.892 C261.043,380.673 260.376,381.161 260.115,381.357 C259.66,381.617 259.236,382.138 258.846,382.919 C258.39,383.57 257.869,384.123 257.283,384.579 C256.828,384.97 256.274,385.165 255.623,385.165 C254.972,385.165 254.451,384.937 254.061,384.482 C253.605,384.026 253.377,383.407 253.377,382.626"/>
<path class="" d="M232.479,402.255 L232.479,409.97 C232.479,412.704 232.609,414.885 232.869,416.513 C235.018,414.69 236.548,413.323 237.459,412.411 C238.501,411.37 239.542,409.937 240.584,408.114 C241.626,406.291 242.147,404.469 242.147,402.646 C242.147,400.823 241.756,399.26 240.975,397.958 C240.193,396.656 239.152,396.005 237.85,396.005 C236.287,396.005 234.985,396.591 233.943,397.763 C232.967,399.065 232.479,400.562 232.479,402.255 M228.377,420.126 L227.108,360.653 C228.019,360.133 228.93,359.872 229.842,359.872 C230.753,359.872 231.665,360.133 232.576,360.653 L231.795,395.126 C234.464,392.847 237.524,391.708 240.975,391.708 C243.514,391.708 245.63,392.75 247.322,394.833 C249.015,396.916 249.861,399.293 249.861,401.962 C249.861,403.655 249.308,405.445 248.201,407.333 C247.16,409.091 246.053,410.458 244.881,411.435 C244.23,411.956 242.57,413.258 239.9,415.341 C239.119,415.927 238.191,416.61 237.117,417.392 C236.043,418.173 235.376,418.661 235.115,418.857 C234.66,419.117 234.236,419.638 233.846,420.419 C233.39,421.07 232.869,421.623 232.283,422.079 C231.828,422.47 231.274,422.665 230.623,422.665 C229.972,422.665 229.451,422.437 229.061,421.982 C228.605,421.526 228.377,420.907 228.377,420.126"/>
<path class="" d="M207.479,352.255 L207.479,359.97 C207.479,362.704 207.609,364.885 207.869,366.513 C210.018,364.69 211.548,363.323 212.459,362.411 C213.501,361.37 214.542,359.937 215.584,358.114 C216.626,356.291 217.147,354.469 217.147,352.646 C217.147,350.823 216.756,349.26 215.975,347.958 C215.193,346.656 214.152,346.005 212.85,346.005 C211.287,346.005 209.985,346.591 208.943,347.763 C207.967,349.065 207.479,350.562 207.479,352.255 M203.377,370.126 L202.107,310.653 C203.019,310.133 203.93,309.872 204.842,309.872 C205.753,309.872 206.665,310.133 207.576,310.653 L206.795,345.126 C209.464,342.847 212.524,341.708 215.975,341.708 C218.514,341.708 220.63,342.75 222.322,344.833 C224.015,346.916 224.861,349.293 224.861,351.962 C224.861,353.655 224.308,355.445 223.201,357.333 C222.16,359.091 221.053,360.458 219.881,361.435 C219.23,361.955 217.57,363.258 214.9,365.341 C214.119,365.927 213.191,366.61 212.117,367.392 C211.043,368.173 210.376,368.661 210.115,368.857 C209.66,369.117 209.236,369.638 208.846,370.419 C208.39,371.07 207.869,371.623 207.283,372.079 C206.828,372.47 206.274,372.665 205.623,372.665 C204.972,372.665 204.451,372.437 204.061,371.982 C203.605,371.526 203.377,370.907 203.377,370.126"/>
<path class="" d="M182.479,389.755 L182.479,397.47 C182.479,400.204 182.609,402.385 182.869,404.013 C185.018,402.19 186.548,400.823 187.459,399.911 C188.501,398.87 189.542,397.437 190.584,395.614 C191.626,393.791 192.147,391.969 192.147,390.146 C192.147,388.323 191.756,386.76 190.975,385.458 C190.193,384.156 189.152,383.505 187.85,383.505 C186.287,383.505 184.985,384.091 183.943,385.263 C182.967,386.565 182.479,388.062 182.479,389.755 M178.377,407.626 L177.107,348.153 C178.019,347.633 178.93,347.372 179.842,347.372 C180.753,347.372 181.665,347.633 182.576,348.153 L181.795,382.626 C184.464,380.347 187.524,379.208 190.975,379.208 C193.514,379.208 195.63,380.25 197.322,382.333 C199.015,384.416 199.861,386.793 199.861,389.462 C199.861,391.155 199.308,392.945 198.201,394.833 C197.16,396.591 196.053,397.958 194.881,398.935 C194.23,399.456 192.57,400.758 189.9,402.841 C189.119,403.427 188.191,404.11 187.117,404.892 C186.043,405.673 185.376,406.161 185.115,406.357 C184.66,406.617 184.236,407.138 183.846,407.919 C183.39,408.57 182.869,409.123 182.283,409.579 C181.828,409.97 181.274,410.165 180.623,410.165 C179.972,410.165 179.451,409.937 179.061,409.482 C178.605,409.026 178.377,408.407 178.377,407.626"/>
<path class="" d="M257.479,77.2548 L257.479,84.9696 C257.479,87.704 257.609,89.885 257.869,91.5126 C260.018,89.6897 261.548,88.3225 262.459,87.4111 C263.501,86.3694 264.542,84.9371 265.584,83.1142 C266.626,81.2913 267.147,79.4683 267.147,77.6454 C267.147,75.8225 266.756,74.26 265.975,72.9579 C265.193,71.6558 264.152,71.0048 262.85,71.0048 C261.287,71.0048 259.985,71.5907 258.943,72.7626 C257.967,74.0647 257.479,75.5621 257.479,77.2548 M253.377,95.1259 L252.108,35.6532 C253.019,35.1324 253.93,34.872 254.842,34.872 C255.753,34.872 256.665,35.1324 257.576,35.6532 L256.795,70.1259 C259.464,67.8473 262.524,66.7079 265.975,66.7079 C268.514,66.7079 270.63,67.7496 272.322,69.8329 C274.015,71.9163 274.861,74.2926 274.861,76.9618 C274.861,78.6545 274.308,80.4449 273.201,82.3329 C272.16,84.0907 271.053,85.4579 269.881,86.4345 C269.23,86.9553 267.57,88.2574 264.9,90.3407 C264.119,90.9267 263.192,91.6103 262.117,92.3915 C261.043,93.1728 260.376,93.6611 260.115,93.8564 C259.66,94.1168 259.236,94.6376 258.846,95.4189 C258.39,96.0699 257.869,96.6233 257.283,97.079 C256.828,97.4696 256.274,97.665 255.623,97.665 C254.972,97.665 254.451,97.4371 254.061,96.9814 C253.605,96.5256 253.377,95.9071 253.377,95.1259"/>
<path class="" d="M232.479,114.755 L232.479,122.47 C232.479,125.204 232.609,127.385 232.869,129.013 C235.018,127.19 236.548,125.823 237.459,124.911 C238.501,123.869 239.542,122.437 240.584,120.614 C241.626,118.791 242.147,116.968 242.147,115.145 C242.147,113.323 241.756,111.76 240.975,110.458 C240.193,109.156 239.152,108.505 237.85,108.505 C236.287,108.505 234.985,109.091 233.943,110.263 C232.967,111.565 232.479,113.062 232.479,114.755 M228.377,132.626 L227.108,73.1533 C228.019,72.6324 228.93,72.372 229.842,72.372 C230.753,72.372 231.665,72.6324 232.576,73.1533 L231.795,107.626 C234.464,105.347 237.524,104.208 240.975,104.208 C243.514,104.208 245.63,105.25 247.322,107.333 C249.015,109.416 249.861,111.793 249.861,114.462 C249.861,116.155 249.308,117.945 248.201,119.833 C247.16,121.591 246.053,122.958 244.881,123.935 C244.23,124.455 242.57,125.757 239.9,127.841 C239.119,128.427 238.191,129.11 237.117,129.892 C236.043,130.673 235.376,131.161 235.115,131.356 C234.66,131.617 234.236,132.138 233.846,132.919 C233.39,133.57 232.869,134.123 232.283,134.579 C231.828,134.97 231.274,135.165 230.623,135.165 C229.972,135.165 229.451,134.937 229.061,134.481 C228.605,134.026 228.377,133.407 228.377,132.626"/>
<path class="" d="M207.479,64.7548 L207.479,72.4696 C207.479,75.204 207.609,77.385 207.869,79.0126 C210.018,77.1897 211.548,75.8225 212.459,74.911 C213.501,73.8694 214.542,72.4371 215.584,70.6142 C216.626,68.7913 217.147,66.9683 217.147,65.1454 C217.147,63.3225 216.756,61.76 215.975,60.4579 C215.193,59.1558 214.152,58.5048 212.85,58.5048 C211.287,58.5048 209.985,59.0907 208.943,60.2626 C207.967,61.5647 207.479,63.0621 207.479,64.7548 M203.377,82.6259 L202.107,23.1532 C203.019,22.6324 203.93,22.372 204.842,22.372 C205.753,22.372 206.665,22.6324 207.576,23.1532 L206.795,57.6259 C209.464,55.3472 212.524,54.2079 215.975,54.2079 C218.514,54.2079 220.63,55.2496 222.322,57.3329 C224.015,59.4163 224.861,61.7926 224.861,64.4618 C224.861,66.1545 224.308,67.9449 223.201,69.8329 C222.16,71.5907 221.053,72.9579 219.881,73.9345 C219.23,74.4553 217.57,75.7574 214.9,77.8407 C214.119,78.4267 213.191,79.1103 212.117,79.8915 C211.043,80.6728 210.376,81.161 210.115,81.3564 C209.66,81.6168 209.236,82.1376 208.846,82.9189 C208.39,83.5699 207.869,84.1233 207.283,84.579 C206.828,84.9696 206.274,85.165 205.623,85.165 C204.972,85.165 204.451,84.9371 204.061,84.4814 C203.605,84.0256 203.377,83.4071 203.377,82.6259"/>
<path class="" d="M182.479,102.255 L182.479,109.97 C182.479,112.704 182.609,114.885 182.869,116.513 C185.018,114.69 186.548,113.323 187.459,112.411 C188.501,111.369 189.542,109.937 190.584,108.114 C191.626,106.291 192.147,104.468 192.147,102.645 C192.147,100.823 191.756,99.26 190.975,97.9579 C190.193,96.6559 189.152,96.0048 187.85,96.0048 C186.287,96.0048 184.985,96.5908 183.943,97.7626 C182.967,99.0647 182.479,100.562 182.479,102.255 M178.377,120.126 L177.107,60.6533 C178.019,60.1324 178.93,59.872 179.842,59.872 C180.753,59.872 181.665,60.1324 182.576,60.6533 L181.795,95.1259 C184.464,92.8473 187.524,91.7079 190.975,91.7079 C193.514,91.7079 195.63,92.7496 197.322,94.8329 C199.015,96.9163 199.861,99.2926 199.861,101.962 C199.861,103.655 199.308,105.445 198.201,107.333 C197.16,109.091 196.053,110.458 194.881,111.435 C194.23,111.955 192.57,113.257 189.9,115.341 C189.119,115.927 188.191,116.61 187.117,117.392 C186.043,118.173 185.376,118.661 185.115,118.856 C184.66,119.117 184.236,119.638 183.846,120.419 C183.39,121.07 182.869,121.623 182.283,122.079 C181.828,122.47 181.274,122.665 180.623,122.665 C179.972,122.665 179.451,122.437 179.061,121.981 C178.605,121.526 178.377,120.907 178.377,120.126"/>
<path class="" fill-rule="evenodd" d="M50.9159,185.325 C50.9159,156.12 30.8016,127.733 30.8016,99.7543 C30.8016,85.6627 36.2873,71.9796 53.2016,59.7261 C53.4302,59.5729 53.5444,59.3176 53.5444,59.1645 C53.5444,58.7049 52.2873,58.2965 51.373,58.2965 C50.9159,58.2965 50.1159,58.3476 49.5444,58.7049 C27.6016,74.4303 20.2873,92.6064 20.2873,110.987 C20.2873,140.599 41.773,169.191 41.773,197.578 C41.773,211.67 36.2873,224.944 19.373,237.198 L19.373,237.606 L19.373,238.015 C36.2873,250.268 41.773,263.543 41.773,277.635 C41.773,306.022 20.2873,334.614 20.2873,364.226 C20.2873,382.607 27.6016,400.783 49.5444,416.508 C50.1159,416.865 50.9159,416.916 51.373,416.916 C52.2873,416.916 53.5444,416.508 53.5444,416.048 C53.5444,415.895 53.4302,415.64 53.2016,415.487 C36.2873,403.233 30.8016,389.55 30.8016,375.459 C30.8016,347.48 50.9159,319.092 50.9159,289.888 C50.9159,271.304 43.6016,253.536 22.1159,237.606 C43.6016,221.677 50.9159,203.909 50.9159,185.325"/>
</svg>
