<?xml version="1.0" encoding="UTF-8" standalone="no"?>
<svg width="495px" height="429px" viewBox="0 0 495 429"
 xmlns="http://www.w3.org/2000/svg" xmlns:xlink="http://www.w3.org/1999/xlink" version="1.2" baseProfile="tiny">
<title>音名</title>
<desc>Generated by MuseScore 3.3.0</desc>
<polyline class="" fill="none" stroke="#000000" stroke-width="4.00" stroke-linejoin="bevel" points="460.063,300.66 460.063,403.91"/>
<polyline class="" fill="none" stroke="#000000" stroke-width="12.50" stroke-linejoin="bevel" points="478.313,300.66 478.313,403.91"/>
<polyline class="" fill="none" stroke="#000000" stroke-width="4.00" stroke-linejoin="bevel" points="51.607,300.66 51.607,403.91"/>
<polyline class="" fill="none" stroke="#000000" stroke-width="4.00" stroke-linejoin="bevel" points="460.063,38.1603 460.063,302.285"/>
<polyline class="" fill="none" stroke="#000000" stroke-width="12.50" stroke-linejoin="bevel" points="478.313,38.1603 478.313,302.285"/>
<polyline class="" fill="none" stroke="#000000" stroke-width="4.00" stroke-linejoin="bevel" points="51.607,38.1603 51.607,302.285"/>
<polyline class="" fill="none" stroke="#000000" stroke-width="3.25" stroke-linejoin="bevel" points="47.107,302.285 484.563,302.285"/>
<polyline class="" fill="none" stroke="#000000" stroke-width="3.25" stroke-linejoin="bevel" points="47.107,327.285 484.563,327.285"/>
<polyline class="" fill="none" stroke="#000000" stroke-width="3.25" stroke-linejoin="bevel" points="47.107,352.285 484.563,352.285"/>
<polyline class="" fill="none" stroke="#000000" stroke-width="3.25" stroke-linejoin="bevel" points="47.107,377.285 484.563,377.285"/>
<polyline class="" fill="none" stroke="#000000" stroke-width="3.25" stroke-linejoin="bevel" points="47.107,402.285 484.563,402.285"/>
<polyline class="" fill="none" stroke="#000000" stroke-width="3.25" stroke-linejoin="bevel" points="47.107,39.7853 484.563,39.7853"/>
<polyline class="" fill="none" stroke="#000000" stroke-width="3.25" stroke-linejoin="bevel" points="47.107,64.7853 484.563,64.7853"/>
<polyline class="" fill="none" stroke="#000000" stroke-width="3.25" stroke-linejoin="bevel" points="47.107,89.7853 484.563,89.7853"/>
<polyline class="" fill="none" stroke="#000000" stroke-width="3.25" stroke-linejoin="bevel" points="47.107,114.785 484.563,114.785"/>
<polyline class="" fill="none" stroke="#000000" stroke-width="3.25" stroke-linejoin="bevel" points="47.107,139.785 484.563,139.785"/>
<path class="" d="M99.307,301.085 C81.907,301.085 74.107,313.785 74.107,323.385 C74.107,331.385 78.307,338.285 86.407,338.285 C92.707,338.285 97.007,333.885 97.007,327.685 C97.007,321.285 92.307,317.285 87.407,317.285 C84.707,317.285 83.707,317.985 82.407,317.985 C81.107,317.985 80.807,317.185 80.807,316.185 C80.807,312.185 86.807,304.885 97.007,304.885 C107.607,304.885 112.207,315.285 112.207,330.985 C112.207,341.285 110.007,353.285 103.807,362.885 C97.807,372.185 87.507,380.685 75.107,387.785 C74.207,388.285 73.607,388.785 73.607,389.585 C73.607,390.185 74.007,390.785 74.907,390.785 C75.407,390.785 76.007,390.585 76.607,390.285 C89.907,383.785 102.707,376.185 113.307,364.785 C122.007,355.385 127.207,343.185 127.207,330.085 C127.207,312.685 116.607,301.085 99.307,301.085 M137.107,334.385 C134.007,334.385 131.707,336.685 131.707,339.785 C131.707,342.885 134.007,345.185 137.107,345.185 C140.207,345.185 142.507,342.885 142.507,339.785 C142.507,336.685 140.207,334.385 137.107,334.385 M137.007,309.285 C133.907,309.285 131.507,311.685 131.507,314.785 C131.507,317.885 133.907,320.285 137.007,320.285 C140.107,320.285 142.507,317.885 142.507,314.785 C142.507,311.685 140.107,309.285 137.007,309.285"/>
<path class="" d="M121.107,20.4853 C124.407,20.4853 127.107,23.1853 127.107,28.6853 C127.107,35.5853 123.807,41.9853 116.007,49.7853 C114.407,51.3853 112.007,53.6853 109.707,55.6853 C109.007,56.2853 108.607,56.1853 108.407,54.8853 C108.007,52.2853 107.807,48.8853 107.807,45.6853 C107.807,30.0853 115.007,20.4853 121.107,20.4853 M117.107,104.485 C116.907,103.285 117.007,102.985 118.207,103.085 C126.307,103.785 133.007,110.585 133.007,119.385 C133.007,125.685 129.207,130.785 123.607,133.585 C122.407,134.185 122.207,134.185 122.007,132.985 L117.107,104.485 M110.207,88.5853 C110.507,90.4853 110.507,90.3853 108.707,90.9853 C99.907,93.9853 94.207,101.885 94.207,110.385 C94.207,119.385 98.907,125.785 105.707,128.085 C106.507,128.385 107.707,128.685 108.407,128.685 C109.207,128.685 109.607,128.185 109.607,127.585 C109.607,126.885 108.807,126.585 108.107,126.285 C103.907,124.485 100.907,120.185 100.907,115.585 C100.907,109.885 104.807,105.585 110.907,103.885 C112.507,103.485 112.707,103.585 112.907,104.685 L117.907,134.485 C118.107,135.585 118.007,135.585 116.507,135.885 C114.907,136.185 112.907,136.385 110.907,136.385 C93.407,136.385 82.107,126.685 82.107,112.785 C82.107,106.885 83.107,98.9853 91.407,89.5853 C97.407,82.8853 102.007,79.1853 106.707,75.3853 C107.707,74.5853 107.907,74.6853 108.107,75.7853 L110.207,88.5853 M111.707,73.2853 C111.507,72.0853 111.707,71.9853 112.307,71.3853 C113.907,69.8853 116.007,67.7853 117.907,65.6853 C126.307,56.4853 131.307,44.5853 131.307,33.2853 C131.307,24.5853 128.907,15.9853 124.807,9.98525 C123.307,7.78525 120.707,4.98525 119.607,4.98525 C118.207,4.98525 115.107,7.58525 113.107,9.78525 C105.707,17.9853 103.307,30.4853 103.307,40.8853 C103.307,46.6853 104.007,53.1853 104.707,57.2853 C104.907,58.4853 105.007,58.6853 103.807,59.6853 C97.407,64.9853 90.507,71.0853 85.307,77.4853 C78.407,86.0853 74.107,95.3853 74.107,106.085 C74.107,123.485 86.007,139.985 110.507,139.985 C112.807,139.985 115.407,139.785 117.407,139.385 C118.507,139.185 118.707,139.085 118.907,140.285 C120.107,146.985 121.607,155.685 121.607,160.385 C121.607,175.185 111.607,176.985 105.707,176.985 C100.307,176.985 97.707,175.385 97.707,174.085 C97.707,173.385 98.607,173.085 100.907,172.385 C104.007,171.485 107.607,168.785 107.607,162.985 C107.607,157.485 104.107,152.785 98.007,152.785 C91.307,152.785 87.307,158.085 87.307,164.285 C87.307,170.785 91.207,180.585 106.307,180.585 C113.007,180.585 126.007,177.585 126.007,160.585 C126.007,154.885 124.207,145.385 123.107,139.185 C122.907,137.985 123.007,138.085 124.407,137.485 C134.507,133.485 141.207,124.985 141.207,113.685 C141.207,100.885 131.807,89.5853 117.107,89.5853 C114.507,89.5853 114.507,89.5853 114.207,87.7853 L111.707,73.2853 "/>
<path class="" fill="#a0a0a4" d="M135.307,334.685 L135.307,313.285 C135.307,312.485 135.207,311.585 134.107,311.585 C133.207,311.585 132.707,311.785 132.107,312.485 L122.607,323.985 C122.207,324.485 121.707,325.085 121.707,326.285 L121.707,334.685 L108.207,334.685 C116.207,327.885 132.207,305.185 132.507,304.085 C132.507,303.885 132.607,303.785 132.607,303.585 C132.607,302.785 131.907,302.185 131.107,302.185 C130.207,302.185 126.107,302.385 124.307,302.385 C122.507,302.385 118.007,302.185 117.207,302.185 C116.307,302.185 114.907,302.485 114.907,304.085 C114.907,316.485 105.107,330.385 102.107,334.585 L101.507,335.385 C101.507,335.485 101.407,335.585 101.407,335.685 C101.207,336.085 101.107,336.485 101.107,336.785 C101.107,337.785 101.907,338.485 103.107,338.485 L121.707,338.485 L121.707,344.785 C121.707,347.485 119.507,348.285 117.707,348.285 C116.107,348.285 115.407,349.185 115.407,350.185 C115.407,351.185 115.807,352.285 117.307,352.285 L138.607,352.285 C139.607,352.285 140.607,351.585 140.607,350.185 C140.607,348.785 139.407,348.185 138.407,348.185 C137.407,348.185 135.307,347.585 135.307,344.385 L135.307,338.485 L142.607,338.485 C143.607,338.485 144.107,337.785 144.107,336.585 C144.107,335.385 143.707,334.685 142.607,334.685 L135.307,334.685 "/>
<path class="" fill="#a0a0a4" d="M135.307,384.685 L135.307,363.285 C135.307,362.485 135.207,361.585 134.107,361.585 C133.207,361.585 132.707,361.785 132.107,362.485 L122.607,373.985 C122.207,374.485 121.707,375.085 121.707,376.285 L121.707,384.685 L108.207,384.685 C116.207,377.885 132.207,355.185 132.507,354.085 C132.507,353.885 132.607,353.785 132.607,353.585 C132.607,352.785 131.907,352.185 131.107,352.185 C130.207,352.185 126.107,352.385 124.307,352.385 C122.507,352.385 118.007,352.185 117.207,352.185 C116.307,352.185 114.907,352.485 114.907,354.085 C114.907,366.485 105.107,380.385 102.107,384.585 L101.507,385.385 C101.507,385.485 101.407,385.585 101.407,385.685 C101.207,386.085 101.107,386.485 101.107,386.785 C101.107,387.785 101.907,388.485 103.107,388.485 L121.707,388.485 L121.707,394.785 C121.707,397.485 119.507,398.285 117.707,398.285 C116.107,398.285 115.407,399.185 115.407,400.185 C115.407,401.185 115.807,402.285 117.307,402.285 L138.607,402.285 C139.607,402.285 140.607,401.585 140.607,400.185 C140.607,398.785 139.407,398.185 138.407,398.185 C137.407,398.185 135.307,397.585 135.307,394.385 L135.307,388.485 L142.607,388.485 C143.607,388.485 144.107,387.785 144.107,386.585 C144.107,385.385 143.707,384.685 142.607,384.685 L135.307,384.685 "/>
<path class="" fill="#a0a0a4" d="M135.307,72.1853 L135.307,50.7853 C135.307,49.9853 135.207,49.0853 134.107,49.0853 C133.207,49.0853 132.707,49.2853 132.107,49.9853 L122.607,61.4853 C122.207,61.9853 121.707,62.5853 121.707,63.7853 L121.707,72.1853 L108.207,72.1853 C116.207,65.3853 132.207,42.6853 132.507,41.5853 C132.507,41.3853 132.607,41.2853 132.607,41.0853 C132.607,40.2853 131.907,39.6853 131.107,39.6853 C130.207,39.6853 126.107,39.8853 124.307,39.8853 C122.507,39.8853 118.007,39.6853 117.207,39.6853 C116.307,39.6853 114.907,39.9853 114.907,41.5853 C114.907,53.9853 105.107,67.8853 102.107,72.0853 L101.507,72.8853 C101.507,72.9853 101.407,73.0853 101.407,73.1853 C101.207,73.5853 101.107,73.9853 101.107,74.2853 C101.107,75.2853 101.907,75.9853 103.107,75.9853 L121.707,75.9853 L121.707,82.2853 C121.707,84.9853 119.507,85.7853 117.707,85.7853 C116.107,85.7853 115.407,86.6853 115.407,87.6853 C115.407,88.6853 115.807,89.7853 117.307,89.7853 L138.607,89.7853 C139.607,89.7853 140.607,89.0853 140.607,87.6853 C140.607,86.2853 139.407,85.6853 138.407,85.6853 C137.407,85.6853 135.307,85.0853 135.307,81.8853 L135.307,75.9853 L142.607,75.9853 C143.607,75.9853 144.107,75.2853 144.107,74.0853 C144.107,72.8853 143.707,72.1853 142.607,72.1853 L135.307,72.1853 "/>
<path class="" fill="#a0a0a4" d="M135.307,122.185 L135.307,100.785 C135.307,99.9853 135.207,99.0853 134.107,99.0853 C133.207,99.0853 132.707,99.2853 132.107,99.9853 L122.607,111.485 C122.207,111.985 121.707,112.585 121.707,113.785 L121.707,122.185 L108.207,122.185 C116.207,115.385 132.207,92.6853 132.507,91.5853 C132.507,91.3853 132.607,91.2853 132.607,91.0853 C132.607,90.2853 131.907,89.6853 131.107,89.6853 C130.207,89.6853 126.107,89.8853 124.307,89.8853 C122.507,89.8853 118.007,89.6853 117.207,89.6853 C116.307,89.6853 114.907,89.9853 114.907,91.5853 C114.907,103.985 105.107,117.885 102.107,122.085 L101.507,122.885 C101.507,122.985 101.407,123.085 101.407,123.185 C101.207,123.585 101.107,123.985 101.107,124.285 C101.107,125.285 101.907,125.985 103.107,125.985 L121.707,125.985 L121.707,132.285 C121.707,134.985 119.507,135.785 117.707,135.785 C116.107,135.785 115.407,136.685 115.407,137.685 C115.407,138.685 115.807,139.785 117.307,139.785 L138.607,139.785 C139.607,139.785 140.607,139.085 140.607,137.685 C140.607,136.285 139.407,135.685 138.407,135.685 C137.407,135.685 135.307,135.085 135.307,131.885 L135.307,125.985 L142.607,125.985 C143.607,125.985 144.107,125.285 144.107,124.085 C144.107,122.885 143.707,122.185 142.607,122.185 L135.307,122.185 "/>
<path class="" fill="#a0a0a4" d="M177.307,338.185 L177.307,328.985 C177.307,327.485 176.107,326.385 174.707,326.385 L151.707,326.385 C150.207,326.385 149.107,327.485 149.107,328.985 L149.107,338.185 C149.107,339.585 150.207,340.785 151.707,340.785 L174.707,340.785 C176.107,340.785 177.307,339.585 177.307,338.185"/>
<path class="" fill="#a0a0a4" d="M177.307,75.6853 L177.307,66.4853 C177.307,64.9853 176.107,63.8853 174.707,63.8853 L151.707,63.8853 C150.207,63.8853 149.107,64.9853 149.107,66.4853 L149.107,75.6853 C149.107,77.0853 150.207,78.2853 151.707,78.2853 L174.707,78.2853 C176.107,78.2853 177.307,77.0853 177.307,75.6853"/>
<path class="" fill="#6c6c6c" d="M260.782,329.784 L260.207,329.784 C260.057,328.767 259.815,328.113 259.482,327.821 C259.149,327.53 258.474,327.384 257.457,327.384 L253.832,327.384 L253.832,332.584 C253.832,333.6 253.969,334.259 254.244,334.559 C254.519,334.859 255.14,335.034 256.107,335.084 L256.107,335.559 L249.107,335.559 L249.107,335.084 C250.057,335.017 250.657,334.838 250.907,334.546 C251.157,334.255 251.282,333.592 251.282,332.559 L251.282,321.734 C251.282,320.85 251.149,320.271 250.882,319.996 C250.615,319.721 250.024,319.55 249.107,319.484 L249.107,319.009 L262.382,319.009 L262.457,322.584 L261.832,322.584 C261.615,321.467 261.282,320.75 260.832,320.434 C260.382,320.117 259.449,319.959 258.032,319.959 L254.632,319.959 C254.299,319.959 254.082,320.013 253.982,320.121 C253.882,320.23 253.832,320.459 253.832,320.809 L253.832,326.359 L257.457,326.359 C258.457,326.359 259.128,326.213 259.469,325.921 C259.811,325.63 260.057,324.984 260.207,323.984 L260.782,323.984 L260.782,329.784 "/>
<path class="" fill="#6c6c6c" d="M278.832,346.059 C278.832,346.542 278.969,346.842 279.244,346.959 C279.519,347.075 280.257,347.134 281.457,347.134 L282.132,347.134 C283.915,347.134 285.19,346.921 285.957,346.496 C286.724,346.071 287.415,345.184 288.032,343.834 L288.732,343.834 L287.607,348.059 L274.107,348.059 L274.107,347.584 C275.024,347.517 275.615,347.346 275.882,347.071 C276.149,346.796 276.282,346.217 276.282,345.334 L276.282,334.234 C276.282,333.35 276.149,332.771 275.882,332.496 C275.615,332.221 275.024,332.05 274.107,331.984 L274.107,331.509 L287.382,331.509 L287.457,335.084 L286.832,335.084 C286.615,333.967 286.282,333.25 285.832,332.934 C285.382,332.617 284.449,332.459 283.032,332.459 L279.657,332.459 C279.324,332.459 279.103,332.513 278.994,332.621 C278.886,332.73 278.832,332.959 278.832,333.309 L278.832,338.859 L282.682,338.859 C283.749,338.859 284.436,338.696 284.744,338.371 C285.053,338.046 285.282,337.417 285.432,336.484 L286.007,336.484 L286.007,342.284 L285.432,342.284 C285.265,341.25 285.024,340.592 284.707,340.309 C284.39,340.025 283.715,339.884 282.682,339.884 L278.832,339.884 L278.832,346.059 "/>
<path class="" fill="#6c6c6c" d="M315.832,352.209 C315.832,352.959 315.749,353.692 315.582,354.409 C315.415,355.125 315.107,355.867 314.657,356.634 C314.207,357.4 313.632,358.063 312.932,358.621 C312.232,359.18 311.303,359.642 310.144,360.009 C308.986,360.375 307.674,360.559 306.207,360.559 L299.107,360.559 L299.107,360.084 C300.057,360.017 300.661,359.85 300.919,359.584 C301.178,359.317 301.307,358.734 301.307,357.834 L301.307,346.734 C301.307,345.817 301.186,345.234 300.944,344.984 C300.703,344.734 300.09,344.567 299.107,344.484 L299.107,344.009 L305.857,344.009 C307.374,344.009 308.728,344.18 309.919,344.521 C311.111,344.863 312.069,345.305 312.794,345.846 C313.519,346.388 314.119,347.03 314.594,347.771 C315.069,348.513 315.394,349.242 315.569,349.959 C315.744,350.675 315.832,351.425 315.832,352.209 M313.107,352.384 C313.107,351.667 313.036,350.98 312.894,350.321 C312.753,349.663 312.499,348.996 312.132,348.321 C311.765,347.646 311.29,347.067 310.707,346.584 C310.124,346.1 309.357,345.705 308.407,345.396 C307.457,345.088 306.374,344.934 305.157,344.934 C304.64,344.934 304.294,345 304.119,345.134 C303.944,345.267 303.857,345.525 303.857,345.909 L303.857,358.609 C303.857,359.009 303.949,359.28 304.132,359.421 C304.315,359.563 304.657,359.634 305.157,359.634 C310.457,359.634 313.107,357.217 313.107,352.384"/>
<path class="" fill="#6c6c6c" d="M324.107,364.942 C324.107,362.342 324.907,360.229 326.507,358.604 C328.107,356.979 330.099,356.167 332.482,356.167 C333.549,356.167 334.549,356.304 335.482,356.579 C336.415,356.854 336.957,356.992 337.107,356.992 C337.657,356.992 338.007,356.717 338.157,356.167 L338.682,356.167 L338.907,361.817 L338.332,361.817 C337.415,358.717 335.624,357.167 332.957,357.167 C331.14,357.167 329.694,357.842 328.619,359.192 C327.544,360.542 327.007,362.35 327.007,364.617 C327.007,366.067 327.194,367.321 327.569,368.379 C327.944,369.437 328.449,370.237 329.082,370.779 C329.715,371.321 330.369,371.712 331.044,371.954 C331.719,372.196 332.44,372.317 333.207,372.317 C335.174,372.317 337.032,371.475 338.782,369.792 L339.232,370.242 C338.465,371.258 337.49,372.042 336.307,372.592 C335.124,373.142 333.824,373.417 332.407,373.417 C329.94,373.417 327.94,372.642 326.407,371.092 C324.874,369.542 324.107,367.492 324.107,364.942"/>
<path class="" fill="#6c6c6c" d="M363.507,381.059 C363.507,381.559 363.415,382.05 363.232,382.534 C363.049,383.017 362.744,383.496 362.319,383.971 C361.894,384.446 361.265,384.83 360.432,385.121 C359.599,385.413 358.607,385.559 357.457,385.559 L349.107,385.559 L349.107,385.084 C350.14,385.05 350.799,384.9 351.082,384.634 C351.365,384.367 351.507,383.767 351.507,382.834 L351.507,371.734 C351.507,370.817 351.369,370.23 351.094,369.971 C350.819,369.713 350.157,369.55 349.107,369.484 L349.107,369.009 L356.107,369.009 C360.474,369.009 362.657,370.425 362.657,373.259 C362.657,373.809 362.557,374.296 362.357,374.721 C362.157,375.146 361.953,375.471 361.744,375.696 C361.536,375.921 361.215,376.134 360.782,376.334 C360.349,376.534 360.074,376.646 359.957,376.671 C359.84,376.696 359.599,376.759 359.232,376.859 C359.615,376.959 359.903,377.034 360.094,377.084 C360.286,377.134 360.636,377.275 361.144,377.509 C361.653,377.742 362.049,377.992 362.332,378.259 C362.615,378.525 362.882,378.905 363.132,379.396 C363.382,379.888 363.507,380.442 363.507,381.059 M355.632,384.634 C356.382,384.634 357.032,384.584 357.582,384.484 C358.132,384.384 358.649,384.213 359.132,383.971 C359.615,383.73 359.986,383.367 360.244,382.884 C360.503,382.4 360.632,381.8 360.632,381.084 C360.632,380.4 360.503,379.821 360.244,379.346 C359.986,378.871 359.674,378.509 359.307,378.259 C358.94,378.009 358.432,377.817 357.782,377.684 C357.132,377.55 356.557,377.471 356.057,377.446 C355.557,377.421 354.89,377.409 354.057,377.409 L354.057,383.609 C354.057,384.009 354.165,384.28 354.382,384.421 C354.599,384.563 355.015,384.634 355.632,384.634 M354.057,376.409 L356.432,376.409 C357.599,376.409 358.503,376.146 359.144,375.621 C359.786,375.096 360.107,374.342 360.107,373.359 C360.107,372.242 359.732,371.392 358.982,370.809 C358.232,370.225 357.14,369.934 355.707,369.934 L354.607,369.934 C354.24,369.934 354.057,370.184 354.057,370.684 L354.057,376.409 "/>
<path class="" fill="#6c6c6c" d="M391.382,397.732 L391.382,398.207 L385.007,398.207 L385.007,397.732 C385.674,397.715 386.132,397.649 386.382,397.532 C386.632,397.415 386.757,397.199 386.757,396.882 C386.757,396.482 386.599,395.924 386.282,395.207 L385.257,392.807 L378.707,392.807 L377.557,395.732 C377.424,396.082 377.357,396.407 377.357,396.707 C377.357,397.39 377.924,397.732 379.057,397.732 L379.057,398.207 L374.107,398.207 L374.107,397.732 C374.724,397.699 375.203,397.461 375.544,397.02 C375.886,396.578 376.44,395.449 377.207,393.632 L382.407,381.357 L382.907,381.357 L389.132,395.557 C389.532,396.474 389.865,397.057 390.132,397.307 C390.399,397.557 390.815,397.699 391.382,397.732 M379.132,391.782 L384.907,391.782 L382.007,384.907 L379.132,391.782 "/>
<path class="" fill="#6c6c6c" d="M408.107,394.667 C407.157,394.667 406.315,394.837 405.582,395.179 C404.849,395.521 404.257,395.958 403.807,396.492 C403.357,397.025 402.99,397.65 402.707,398.367 C402.424,399.083 402.228,399.771 402.119,400.429 C402.011,401.087 401.957,401.75 401.957,402.417 C401.957,404.733 402.544,406.562 403.719,407.904 C404.894,409.246 406.499,409.917 408.532,409.917 C409.432,409.917 410.211,409.771 410.869,409.479 C411.528,409.187 411.857,408.842 411.857,408.442 L411.857,404.392 C411.857,403.458 411.728,402.871 411.469,402.629 C411.211,402.387 410.607,402.233 409.657,402.167 L409.657,401.717 L416.032,401.717 L416.032,402.167 C415.299,402.233 414.824,402.387 414.607,402.629 C414.39,402.871 414.282,403.358 414.282,404.092 L414.282,409.167 C413.782,409.6 412.878,410 411.569,410.367 C410.261,410.733 409.074,410.917 408.007,410.917 C407.257,410.917 406.507,410.842 405.757,410.692 C405.007,410.542 404.224,410.267 403.407,409.867 C402.59,409.467 401.874,408.962 401.257,408.354 C400.64,407.746 400.128,406.933 399.719,405.917 C399.311,404.9 399.107,403.742 399.107,402.442 C399.107,399.892 399.911,397.792 401.519,396.142 C403.128,394.492 405.182,393.667 407.682,393.667 C408.649,393.667 409.603,393.804 410.544,394.079 C411.486,394.354 412.032,394.492 412.182,394.492 C412.449,394.492 412.682,394.412 412.882,394.254 C413.082,394.096 413.224,393.9 413.307,393.667 L413.857,393.667 L414.057,398.942 L413.482,398.942 C412.949,397.642 412.282,396.604 411.482,395.829 C410.682,395.054 409.557,394.667 408.107,394.667"/>
<path class="" fill-opacity="0.500008" d="M435.782,417.284 L435.207,417.284 C435.057,416.267 434.815,415.613 434.482,415.321 C434.149,415.03 433.474,414.884 432.457,414.884 L428.832,414.884 L428.832,420.084 C428.832,421.1 428.969,421.759 429.244,422.059 C429.519,422.359 430.14,422.534 431.107,422.584 L431.107,423.059 L424.107,423.059 L424.107,422.584 C425.057,422.517 425.657,422.338 425.907,422.046 C426.157,421.755 426.282,421.092 426.282,420.059 L426.282,409.234 C426.282,408.35 426.149,407.771 425.882,407.496 C425.615,407.221 425.024,407.05 424.107,406.984 L424.107,406.509 L437.382,406.509 L437.457,410.084 L436.832,410.084 C436.615,408.967 436.282,408.25 435.832,407.934 C435.382,407.617 434.449,407.459 433.032,407.459 L429.632,407.459 C429.299,407.459 429.082,407.513 428.982,407.621 C428.882,407.73 428.832,407.959 428.832,408.309 L428.832,413.859 L432.457,413.859 C433.457,413.859 434.128,413.713 434.469,413.421 C434.811,413.13 435.057,412.484 435.207,411.484 L435.782,411.484 L435.782,417.284 "/>
<path class="" fill="#6c6c6c" d="M149.107,277.442 C149.107,274.842 149.907,272.729 151.507,271.104 C153.107,269.479 155.099,268.667 157.482,268.667 C158.549,268.667 159.549,268.804 160.482,269.079 C161.415,269.354 161.957,269.492 162.107,269.492 C162.657,269.492 163.007,269.217 163.157,268.667 L163.682,268.667 L163.907,274.317 L163.332,274.317 C162.415,271.217 160.624,269.667 157.957,269.667 C156.14,269.667 154.694,270.342 153.619,271.692 C152.544,273.042 152.007,274.85 152.007,277.117 C152.007,278.567 152.194,279.821 152.569,280.879 C152.944,281.937 153.449,282.737 154.082,283.279 C154.715,283.821 155.369,284.212 156.044,284.454 C156.719,284.696 157.44,284.817 158.207,284.817 C160.174,284.817 162.032,283.975 163.782,282.292 L164.232,282.742 C163.465,283.758 162.49,284.542 161.307,285.092 C160.124,285.642 158.824,285.917 157.407,285.917 C154.94,285.917 152.94,285.142 151.407,283.592 C149.874,282.042 149.107,279.992 149.107,277.442"/>
<path class="" fill="#6c6c6c" d="M188.507,292.324 C188.507,292.824 188.415,293.316 188.232,293.799 C188.049,294.283 187.744,294.762 187.319,295.237 C186.894,295.712 186.265,296.095 185.432,296.387 C184.599,296.678 183.607,296.824 182.457,296.824 L174.107,296.824 L174.107,296.349 C175.14,296.316 175.799,296.166 176.082,295.899 C176.365,295.633 176.507,295.033 176.507,294.099 L176.507,282.999 C176.507,282.083 176.369,281.495 176.094,281.237 C175.819,280.978 175.157,280.816 174.107,280.749 L174.107,280.274 L181.107,280.274 C185.474,280.274 187.657,281.691 187.657,284.524 C187.657,285.074 187.557,285.562 187.357,285.987 C187.157,286.412 186.953,286.737 186.744,286.962 C186.536,287.187 186.215,287.399 185.782,287.599 C185.349,287.799 185.074,287.912 184.957,287.937 C184.84,287.962 184.599,288.024 184.232,288.124 C184.615,288.224 184.903,288.299 185.094,288.349 C185.286,288.399 185.636,288.541 186.144,288.774 C186.653,289.008 187.049,289.258 187.332,289.524 C187.615,289.791 187.882,290.17 188.132,290.662 C188.382,291.153 188.507,291.708 188.507,292.324 M180.632,295.899 C181.382,295.899 182.032,295.849 182.582,295.749 C183.132,295.649 183.649,295.478 184.132,295.237 C184.615,294.995 184.986,294.633 185.244,294.149 C185.503,293.666 185.632,293.066 185.632,292.349 C185.632,291.666 185.503,291.087 185.244,290.612 C184.986,290.137 184.674,289.774 184.307,289.524 C183.94,289.274 183.432,289.083 182.782,288.949 C182.132,288.816 181.557,288.737 181.057,288.712 C180.557,288.687 179.89,288.674 179.057,288.674 L179.057,294.874 C179.057,295.274 179.165,295.545 179.382,295.687 C179.599,295.828 180.015,295.899 180.632,295.899 M179.057,287.674 L181.432,287.674 C182.599,287.674 183.503,287.412 184.144,286.887 C184.786,286.362 185.107,285.608 185.107,284.624 C185.107,283.508 184.732,282.658 183.982,282.074 C183.232,281.491 182.14,281.199 180.707,281.199 L179.607,281.199 C179.24,281.199 179.057,281.449 179.057,281.949 L179.057,287.674 "/>
<path class="" fill="#6c6c6c" d="M216.382,308.998 L216.382,309.473 L210.007,309.473 L210.007,308.998 C210.674,308.981 211.132,308.914 211.382,308.798 C211.632,308.681 211.757,308.464 211.757,308.148 C211.757,307.748 211.599,307.189 211.282,306.473 L210.257,304.073 L203.707,304.073 L202.557,306.998 C202.424,307.348 202.357,307.673 202.357,307.973 C202.357,308.656 202.924,308.998 204.057,308.998 L204.057,309.473 L199.107,309.473 L199.107,308.998 C199.724,308.964 200.203,308.727 200.544,308.285 C200.886,307.844 201.44,306.714 202.207,304.898 L207.407,292.623 L207.907,292.623 L214.132,306.823 C214.532,307.739 214.865,308.323 215.132,308.573 C215.399,308.823 215.815,308.964 216.382,308.998 M204.132,303.048 L209.907,303.048 L207.007,296.173 L204.132,303.048 "/>
<path class="" fill="#6c6c6c" d="M233.107,307.167 C232.157,307.167 231.315,307.337 230.582,307.679 C229.849,308.021 229.257,308.458 228.807,308.992 C228.357,309.525 227.99,310.15 227.707,310.867 C227.424,311.583 227.228,312.271 227.119,312.929 C227.011,313.587 226.957,314.25 226.957,314.917 C226.957,317.233 227.544,319.062 228.719,320.404 C229.894,321.746 231.499,322.417 233.532,322.417 C234.432,322.417 235.211,322.271 235.869,321.979 C236.528,321.687 236.857,321.342 236.857,320.942 L236.857,316.892 C236.857,315.958 236.728,315.371 236.469,315.129 C236.211,314.887 235.607,314.733 234.657,314.667 L234.657,314.217 L241.032,314.217 L241.032,314.667 C240.299,314.733 239.824,314.887 239.607,315.129 C239.39,315.371 239.282,315.858 239.282,316.592 L239.282,321.667 C238.782,322.1 237.878,322.5 236.569,322.867 C235.261,323.233 234.074,323.417 233.007,323.417 C232.257,323.417 231.507,323.342 230.757,323.192 C230.007,323.042 229.224,322.767 228.407,322.367 C227.59,321.967 226.874,321.462 226.257,320.854 C225.64,320.246 225.128,319.433 224.719,318.417 C224.311,317.4 224.107,316.242 224.107,314.942 C224.107,312.392 224.911,310.292 226.519,308.642 C228.128,306.992 230.182,306.167 232.682,306.167 C233.649,306.167 234.603,306.304 235.544,306.579 C236.486,306.854 237.032,306.992 237.182,306.992 C237.449,306.992 237.682,306.912 237.882,306.754 C238.082,306.596 238.224,306.4 238.307,306.167 L238.857,306.167 L239.057,311.442 L238.482,311.442 C237.949,310.142 237.282,309.104 236.482,308.329 C235.682,307.554 234.557,307.167 233.107,307.167"/>
<path class="" fill="#6b6c6c" d="M466.382,21.4978 L466.382,21.9728 L460.007,21.9728 L460.007,21.4978 C460.674,21.4811 461.132,21.4144 461.382,21.2978 C461.632,21.1811 461.757,20.9644 461.757,20.6478 C461.757,20.2478 461.599,19.6894 461.282,18.9728 L460.257,16.5728 L453.707,16.5728 L452.557,19.4978 C452.424,19.8478 452.357,20.1728 452.357,20.4728 C452.357,21.1561 452.924,21.4978 454.057,21.4978 L454.057,21.9728 L449.107,21.9728 L449.107,21.4978 C449.724,21.4644 450.203,21.2269 450.544,20.7853 C450.886,20.3436 451.44,19.2144 452.207,17.3978 L457.407,5.12275 L457.907,5.12275 L464.132,19.3228 C464.532,20.2394 464.865,20.8228 465.132,21.0728 C465.399,21.3228 465.815,21.4644 466.382,21.4978 M454.132,15.5478 L459.907,15.5478 L457.007,8.67275 L454.132,15.5478 "/>
<path class="" fill="#6c6c6c" fill-opacity="0.8" d="M258.107,107.167 C257.157,107.167 256.315,107.337 255.582,107.679 C254.849,108.021 254.257,108.458 253.807,108.992 C253.357,109.525 252.99,110.15 252.707,110.867 C252.424,111.583 252.228,112.271 252.119,112.929 C252.011,113.587 251.957,114.25 251.957,114.917 C251.957,117.233 252.544,119.062 253.719,120.404 C254.894,121.746 256.499,122.417 258.532,122.417 C259.432,122.417 260.211,122.271 260.869,121.979 C261.528,121.687 261.857,121.342 261.857,120.942 L261.857,116.892 C261.857,115.958 261.728,115.371 261.469,115.129 C261.211,114.887 260.607,114.733 259.657,114.667 L259.657,114.217 L266.032,114.217 L266.032,114.667 C265.299,114.733 264.824,114.887 264.607,115.129 C264.39,115.371 264.282,115.858 264.282,116.592 L264.282,121.667 C263.782,122.1 262.878,122.5 261.569,122.867 C260.261,123.233 259.074,123.417 258.007,123.417 C257.257,123.417 256.507,123.342 255.757,123.192 C255.007,123.042 254.224,122.767 253.407,122.367 C252.59,121.967 251.874,121.462 251.257,120.854 C250.64,120.246 250.128,119.433 249.719,118.417 C249.311,117.4 249.107,116.242 249.107,114.942 C249.107,112.392 249.911,110.292 251.519,108.642 C253.128,106.992 255.182,106.167 257.682,106.167 C258.649,106.167 259.603,106.304 260.544,106.579 C261.486,106.854 262.032,106.992 262.182,106.992 C262.449,106.992 262.682,106.912 262.882,106.754 C263.082,106.596 263.224,106.4 263.307,106.167 L263.857,106.167 L264.057,111.442 L263.482,111.442 C262.949,110.142 262.282,109.104 261.482,108.329 C260.682,107.554 259.557,107.167 258.107,107.167"/>
<path class="" fill="#6c6c6c" fill-opacity="0.8" d="M291.382,110.146 L291.382,110.621 L285.007,110.621 L285.007,110.146 C285.674,110.13 286.132,110.063 286.382,109.946 C286.632,109.83 286.757,109.613 286.757,109.296 C286.757,108.896 286.599,108.338 286.282,107.621 L285.257,105.221 L278.707,105.221 L277.557,108.146 C277.424,108.496 277.357,108.821 277.357,109.121 C277.357,109.805 277.924,110.146 279.057,110.146 L279.057,110.621 L274.107,110.621 L274.107,110.146 C274.724,110.113 275.203,109.876 275.544,109.434 C275.886,108.992 276.44,107.863 277.207,106.046 L282.407,93.7714 L282.907,93.7714 L289.132,107.971 C289.532,108.888 289.865,109.471 290.132,109.721 C290.399,109.971 290.815,110.113 291.382,110.146 M279.132,104.196 L284.907,104.196 L282.007,97.3214 L279.132,104.196 "/>
<path class="" fill="#6c6c6c" fill-opacity="0.8" d="M313.507,93.5587 C313.507,94.0587 313.415,94.5504 313.232,95.0337 C313.049,95.517 312.744,95.9962 312.319,96.4712 C311.894,96.9462 311.265,97.3295 310.432,97.6212 C309.599,97.9129 308.607,98.0587 307.457,98.0587 L299.107,98.0587 L299.107,97.5837 C300.14,97.5504 300.799,97.4004 301.082,97.1337 C301.365,96.867 301.507,96.267 301.507,95.3337 L301.507,84.2337 C301.507,83.317 301.369,82.7295 301.094,82.4712 C300.819,82.2129 300.157,82.0504 299.107,81.9837 L299.107,81.5087 L306.107,81.5087 C310.474,81.5087 312.657,82.9254 312.657,85.7587 C312.657,86.3087 312.557,86.7962 312.357,87.2212 C312.157,87.6462 311.953,87.9712 311.744,88.1962 C311.536,88.4212 311.215,88.6337 310.782,88.8337 C310.349,89.0337 310.074,89.1462 309.957,89.1712 C309.84,89.1962 309.599,89.2587 309.232,89.3587 C309.615,89.4587 309.903,89.5337 310.094,89.5837 C310.286,89.6337 310.636,89.7754 311.144,90.0087 C311.653,90.242 312.049,90.492 312.332,90.7587 C312.615,91.0254 312.882,91.4045 313.132,91.8962 C313.382,92.3879 313.507,92.942 313.507,93.5587 M305.632,97.1337 C306.382,97.1337 307.032,97.0837 307.582,96.9837 C308.132,96.8837 308.649,96.7129 309.132,96.4712 C309.615,96.2295 309.986,95.867 310.244,95.3837 C310.503,94.9004 310.632,94.3004 310.632,93.5837 C310.632,92.9004 310.503,92.3212 310.244,91.8462 C309.986,91.3712 309.674,91.0087 309.307,90.7587 C308.94,90.5087 308.432,90.317 307.782,90.1837 C307.132,90.0504 306.557,89.9712 306.057,89.9462 C305.557,89.9212 304.89,89.9087 304.057,89.9087 L304.057,96.1087 C304.057,96.5087 304.165,96.7795 304.382,96.9212 C304.599,97.0629 305.015,97.1337 305.632,97.1337 M304.057,88.9087 L306.432,88.9087 C307.599,88.9087 308.503,88.6462 309.144,88.1212 C309.786,87.5962 310.107,86.842 310.107,85.8587 C310.107,84.742 309.732,83.892 308.982,83.3087 C308.232,82.7254 307.14,82.4337 305.707,82.4337 L304.607,82.4337 C304.24,82.4337 304.057,82.6837 304.057,83.1837 L304.057,88.9087 "/>
<path class="" fill="#6c6c6c" fill-opacity="0.8" d="M324.107,76.379 C324.107,73.779 324.907,71.6665 326.507,70.0415 C328.107,68.4165 330.099,67.604 332.482,67.604 C333.549,67.604 334.549,67.7415 335.482,68.0165 C336.415,68.2915 336.957,68.429 337.107,68.429 C337.657,68.429 338.007,68.154 338.157,67.604 L338.682,67.604 L338.907,73.254 L338.332,73.254 C337.415,70.154 335.624,68.604 332.957,68.604 C331.14,68.604 329.694,69.279 328.619,70.629 C327.544,71.979 327.007,73.7873 327.007,76.054 C327.007,77.504 327.194,78.7582 327.569,79.8165 C327.944,80.8748 328.449,81.6748 329.082,82.2165 C329.715,82.7582 330.369,83.1498 331.044,83.3915 C331.719,83.6332 332.44,83.754 333.207,83.754 C335.174,83.754 337.032,82.9123 338.782,81.229 L339.232,81.679 C338.465,82.6957 337.49,83.479 336.307,84.029 C335.124,84.579 333.824,84.854 332.407,84.854 C329.94,84.854 327.94,84.079 326.407,82.529 C324.874,80.979 324.107,78.929 324.107,76.379"/>
<path class="" fill="#6c6c6c" fill-opacity="0.8" d="M365.832,64.8331 C365.832,65.5831 365.749,66.3164 365.582,67.0331 C365.415,67.7498 365.107,68.4914 364.657,69.2581 C364.207,70.0248 363.632,70.6873 362.932,71.2456 C362.232,71.8039 361.303,72.2664 360.144,72.6331 C358.986,72.9998 357.674,73.1831 356.207,73.1831 L349.107,73.1831 L349.107,72.7081 C350.057,72.6414 350.661,72.4748 350.919,72.2081 C351.178,71.9414 351.307,71.3581 351.307,70.4581 L351.307,59.3581 C351.307,58.4414 351.186,57.8581 350.944,57.6081 C350.703,57.3581 350.09,57.1914 349.107,57.1081 L349.107,56.6331 L355.857,56.6331 C357.374,56.6331 358.728,56.8039 359.919,57.1456 C361.111,57.4873 362.069,57.9289 362.794,58.4706 C363.519,59.0123 364.119,59.6539 364.594,60.3956 C365.069,61.1373 365.394,61.8664 365.569,62.5831 C365.744,63.2998 365.832,64.0498 365.832,64.8331 M363.107,65.0081 C363.107,64.2914 363.036,63.6039 362.894,62.9456 C362.753,62.2873 362.499,61.6206 362.132,60.9456 C361.765,60.2706 361.29,59.6914 360.707,59.2081 C360.124,58.7248 359.357,58.3289 358.407,58.0206 C357.457,57.7123 356.374,57.5581 355.157,57.5581 C354.64,57.5581 354.294,57.6248 354.119,57.7581 C353.944,57.8914 353.857,58.1498 353.857,58.5331 L353.857,71.2331 C353.857,71.6331 353.949,71.9039 354.132,72.0456 C354.315,72.1873 354.657,72.2581 355.157,72.2581 C360.457,72.2581 363.107,69.8414 363.107,65.0081"/>
<path class="" fill="#6c6c6c" fill-opacity="0.8" d="M378.832,57.2947 C378.832,57.7781 378.969,58.0781 379.244,58.1947 C379.519,58.3114 380.257,58.3697 381.457,58.3697 L382.132,58.3697 C383.915,58.3697 385.19,58.1572 385.957,57.7322 C386.724,57.3072 387.415,56.4197 388.032,55.0697 L388.732,55.0697 L387.607,59.2947 L374.107,59.2947 L374.107,58.8197 C375.024,58.7531 375.615,58.5822 375.882,58.3072 C376.149,58.0322 376.282,57.4531 376.282,56.5697 L376.282,45.4697 C376.282,44.5864 376.149,44.0072 375.882,43.7322 C375.615,43.4572 375.024,43.2864 374.107,43.2197 L374.107,42.7447 L387.382,42.7447 L387.457,46.3197 L386.832,46.3197 C386.615,45.2031 386.282,44.4864 385.832,44.1697 C385.382,43.8531 384.449,43.6947 383.032,43.6947 L379.657,43.6947 C379.324,43.6947 379.103,43.7489 378.994,43.8572 C378.886,43.9656 378.832,44.1947 378.832,44.5447 L378.832,50.0947 L382.682,50.0947 C383.749,50.0947 384.436,49.9322 384.744,49.6072 C385.053,49.2822 385.282,48.6531 385.432,47.7197 L386.007,47.7197 L386.007,53.5197 L385.432,53.5197 C385.265,52.4864 385.024,51.8281 384.707,51.5447 C384.39,51.2614 383.715,51.1197 382.682,51.1197 L378.832,51.1197 L378.832,57.2947 "/>
<path class="" fill="#6c6c6c" fill-opacity="0.8" d="M410.782,42.2837 L410.207,42.2837 C410.057,41.267 409.815,40.6129 409.482,40.3212 C409.149,40.0295 408.474,39.8837 407.457,39.8837 L403.832,39.8837 L403.832,45.0837 C403.832,46.1004 403.969,46.7587 404.244,47.0587 C404.519,47.3587 405.14,47.5337 406.107,47.5837 L406.107,48.0587 L399.107,48.0587 L399.107,47.5837 C400.057,47.517 400.657,47.3379 400.907,47.0462 C401.157,46.7545 401.282,46.092 401.282,45.0587 L401.282,34.2337 C401.282,33.3504 401.149,32.7712 400.882,32.4962 C400.615,32.2212 400.024,32.0504 399.107,31.9837 L399.107,31.5087 L412.382,31.5087 L412.457,35.0837 L411.832,35.0837 C411.615,33.967 411.282,33.2504 410.832,32.9337 C410.382,32.617 409.449,32.4587 408.032,32.4587 L404.632,32.4587 C404.299,32.4587 404.082,32.5129 403.982,32.6212 C403.882,32.7295 403.832,32.9587 403.832,33.3087 L403.832,38.8587 L407.457,38.8587 C408.457,38.8587 409.128,38.7129 409.469,38.4212 C409.811,38.1295 410.057,37.4837 410.207,36.4837 L410.782,36.4837 L410.782,42.2837 "/>
<path class="" fill="#6c6c6c" fill-opacity="0.8" d="M433.107,19.6665 C432.157,19.6665 431.315,19.8373 430.582,20.179 C429.849,20.5207 429.257,20.9582 428.807,21.4915 C428.357,22.0248 427.99,22.6498 427.707,23.3665 C427.424,24.0832 427.228,24.7707 427.119,25.429 C427.011,26.0873 426.957,26.7498 426.957,27.4165 C426.957,29.7332 427.544,31.5623 428.719,32.904 C429.894,34.2457 431.499,34.9165 433.532,34.9165 C434.432,34.9165 435.211,34.7707 435.869,34.479 C436.528,34.1873 436.857,33.8415 436.857,33.4415 L436.857,29.3915 C436.857,28.4582 436.728,27.8707 436.469,27.629 C436.211,27.3873 435.607,27.2332 434.657,27.1665 L434.657,26.7165 L441.032,26.7165 L441.032,27.1665 C440.299,27.2332 439.824,27.3873 439.607,27.629 C439.39,27.8707 439.282,28.3582 439.282,29.0915 L439.282,34.1665 C438.782,34.5998 437.878,34.9998 436.569,35.3665 C435.261,35.7332 434.074,35.9165 433.007,35.9165 C432.257,35.9165 431.507,35.8415 430.757,35.6915 C430.007,35.5415 429.224,35.2665 428.407,34.8665 C427.59,34.4665 426.874,33.9623 426.257,33.354 C425.64,32.7457 425.128,31.9332 424.719,30.9165 C424.311,29.8998 424.107,28.7415 424.107,27.4415 C424.107,24.8915 424.911,22.7915 426.519,21.1415 C428.128,19.4915 430.182,18.6665 432.682,18.6665 C433.649,18.6665 434.603,18.804 435.544,19.079 C436.486,19.354 437.032,19.4915 437.182,19.4915 C437.449,19.4915 437.682,19.4123 437.882,19.254 C438.082,19.0957 438.224,18.8998 438.307,18.6665 L438.857,18.6665 L439.057,23.9415 L438.482,23.9415 C437.949,22.6415 437.282,21.604 436.482,20.829 C435.682,20.054 434.557,19.6665 433.107,19.6665"/>
<path class="" fill="#6c6c6c" fill-opacity="0.8" d="M149.107,164.942 C149.107,162.342 149.907,160.229 151.507,158.604 C153.107,156.979 155.099,156.167 157.482,156.167 C158.549,156.167 159.549,156.304 160.482,156.579 C161.415,156.854 161.957,156.992 162.107,156.992 C162.657,156.992 163.007,156.717 163.157,156.167 L163.682,156.167 L163.907,161.817 L163.332,161.817 C162.415,158.717 160.624,157.167 157.957,157.167 C156.14,157.167 154.694,157.842 153.619,159.192 C152.544,160.542 152.007,162.35 152.007,164.617 C152.007,166.067 152.194,167.321 152.569,168.379 C152.944,169.437 153.449,170.237 154.082,170.779 C154.715,171.321 155.369,171.712 156.044,171.954 C156.719,172.196 157.44,172.317 158.207,172.317 C160.174,172.317 162.032,171.475 163.782,169.792 L164.232,170.242 C163.465,171.258 162.49,172.042 161.307,172.592 C160.124,173.142 158.824,173.417 157.407,173.417 C154.94,173.417 152.94,172.642 151.407,171.092 C149.874,169.542 149.107,167.492 149.107,164.942"/>
<path class="" fill="#6c6c6c" fill-opacity="0.8" d="M190.832,152.209 C190.832,152.959 190.749,153.692 190.582,154.409 C190.415,155.125 190.107,155.867 189.657,156.634 C189.207,157.4 188.632,158.063 187.932,158.621 C187.232,159.18 186.303,159.642 185.144,160.009 C183.986,160.375 182.674,160.559 181.207,160.559 L174.107,160.559 L174.107,160.084 C175.057,160.017 175.661,159.85 175.919,159.584 C176.178,159.317 176.307,158.734 176.307,157.834 L176.307,146.734 C176.307,145.817 176.186,145.234 175.944,144.984 C175.703,144.734 175.09,144.567 174.107,144.484 L174.107,144.009 L180.857,144.009 C182.374,144.009 183.728,144.18 184.919,144.521 C186.111,144.863 187.069,145.305 187.794,145.846 C188.519,146.388 189.119,147.03 189.594,147.771 C190.069,148.513 190.394,149.242 190.569,149.959 C190.744,150.675 190.832,151.425 190.832,152.209 M188.107,152.384 C188.107,151.667 188.036,150.98 187.894,150.321 C187.753,149.663 187.499,148.996 187.132,148.321 C186.765,147.646 186.29,147.067 185.707,146.584 C185.124,146.1 184.357,145.705 183.407,145.396 C182.457,145.088 181.374,144.934 180.157,144.934 C179.64,144.934 179.294,145 179.119,145.134 C178.944,145.267 178.857,145.525 178.857,145.909 L178.857,158.609 C178.857,159.009 178.949,159.28 179.132,159.421 C179.315,159.563 179.657,159.634 180.157,159.634 C185.457,159.634 188.107,157.217 188.107,152.384"/>
<path class="" fill="#6c6c6c" fill-opacity="0.8" d="M203.832,146.059 C203.832,146.542 203.969,146.842 204.244,146.959 C204.519,147.075 205.257,147.134 206.457,147.134 L207.132,147.134 C208.915,147.134 210.19,146.921 210.957,146.496 C211.724,146.071 212.415,145.184 213.032,143.834 L213.732,143.834 L212.607,148.059 L199.107,148.059 L199.107,147.584 C200.024,147.517 200.615,147.346 200.882,147.071 C201.149,146.796 201.282,146.217 201.282,145.334 L201.282,134.234 C201.282,133.35 201.149,132.771 200.882,132.496 C200.615,132.221 200.024,132.05 199.107,131.984 L199.107,131.509 L212.382,131.509 L212.457,135.084 L211.832,135.084 C211.615,133.967 211.282,133.25 210.832,132.934 C210.382,132.617 209.449,132.459 208.032,132.459 L204.657,132.459 C204.324,132.459 204.103,132.513 203.994,132.621 C203.886,132.73 203.832,132.959 203.832,133.309 L203.832,138.859 L207.682,138.859 C208.749,138.859 209.436,138.696 209.744,138.371 C210.053,138.046 210.282,137.417 210.432,136.484 L211.007,136.484 L211.007,142.284 L210.432,142.284 C210.265,141.25 210.024,140.592 209.707,140.309 C209.39,140.025 208.715,139.884 207.682,139.884 L203.832,139.884 L203.832,146.059 "/>
<path class="" fill="#6c6c6c" fill-opacity="0.8" d="M235.782,129.784 L235.207,129.784 C235.057,128.767 234.815,128.113 234.482,127.821 C234.149,127.53 233.474,127.384 232.457,127.384 L228.832,127.384 L228.832,132.584 C228.832,133.6 228.969,134.259 229.244,134.559 C229.519,134.859 230.14,135.034 231.107,135.084 L231.107,135.559 L224.107,135.559 L224.107,135.084 C225.057,135.017 225.657,134.838 225.907,134.546 C226.157,134.255 226.282,133.592 226.282,132.559 L226.282,121.734 C226.282,120.85 226.149,120.271 225.882,119.996 C225.615,119.721 225.024,119.55 224.107,119.484 L224.107,119.009 L237.382,119.009 L237.457,122.584 L236.832,122.584 C236.615,121.467 236.282,120.75 235.832,120.434 C235.382,120.117 234.449,119.959 233.032,119.959 L229.632,119.959 C229.299,119.959 229.082,120.013 228.982,120.121 C228.882,120.23 228.832,120.459 228.832,120.809 L228.832,126.359 L232.457,126.359 C233.457,126.359 234.128,126.213 234.469,125.921 C234.811,125.63 235.057,124.984 235.207,123.984 L235.782,123.984 L235.782,129.784 "/>
<path class="" transform="matrix(3.625,0,0,3.625,8.10697,402.285)" d="M2,-49.8 C4.9,-51.6 8.2,-58.7 8.2,-64.6 C8.2,-65.1 8.2,-65.7 8.1,-66.2 C7.4,-72.2 4.4,-81.5 4.4,-86.9 C4.4,-92.1 6.7,-97.1 7.2,-98 C7.6,-98.4 7.7,-98.7 7.7,-99 C7.7,-99.2 7.6,-99.4 7.5,-99.4 C7.4,-99.5 7.3,-99.7 7.1,-99.7 C6.9,-99.7 6.7,-99.5 6.3,-99 C4.1,-96.3 1.4,-90.5 1.4,-80.5 C1.4,-70.6 4.9,-66.6 4.9,-60.3 C4.9,-55.6 3,-53 0.2,-49.8 C2,-47.8 4.9,-46.2 4.9,-39.7 C4.9,-32.7 1.4,-26.5 1.4,-19.2 C1.4,-9.2 4.1,-3.4 6.3,-0.6 C6.7,-0.1 6.9,0 7.1,0 C7.3,0 7.4,-0.1 7.5,-0.2 C7.6,-0.3 7.7,-0.4 7.7,-0.6 C7.7,-0.9 7.6,-1.2 7.2,-1.7 C6.7,-2.5 4.4,-7.5 4.4,-12.8 C4.4,-18.1 7.4,-27.5 8.1,-33.4 C8.2,-33.9 8.2,-34.4 8.2,-35 C8.2,-40.9 4.9,-48 2,-49.8"/>
</svg>
